%
M48
M72
T01C0.0130
T02C0.0150
T03C0.0200
T04C0.0260
T05C0.0276
T06C0.0315
T07C0.0335
T08C0.0866
T09C0.1100
T10C0.1575
%
T01
X9760Y29750
X9760Y35530
X7930Y39970
X11580Y46310
X7900Y49930
X7910Y56350
X13470Y53140
X16980Y50660
X19000Y54160
X22320Y56570
X23760Y54140
X23760Y53140
X24760Y53140
X24760Y54140
X25760Y54140
X25760Y53140
X24960Y51640
X25460Y51140
X25053Y50553
X24322Y49890
X24010Y50515
X23560Y50346
X22560Y51590
X22860Y51890
X23260Y52140
X21510Y48953
X21885Y48546
X21510Y46031
X22119Y45953
X22697Y45953
X23135Y45953
X23666Y45953
X23119Y45062
X22400Y45046
X22610Y44190
X23010Y44156
X23400Y44162
X23916Y44687
X24760Y44340
X25878Y44278
X26666Y43703
X27385Y44515
X27603Y44874
X28244Y45406
X28760Y45234
X29322Y45203
X29291Y45734
X29010Y46296
X29103Y46640
X28603Y45921
X27635Y47046
X26978Y46546
X25260Y47703
X26228Y48656
X26491Y49512
X26994Y49828
X27822Y51046
X28478Y51984
X28541Y53078
X28416Y53484
X28760Y53765
X28985Y53365
X29822Y53359
X30260Y52190
X30610Y51890
X30910Y51490
X30666Y51078
X30485Y50621
X30078Y50878
X30166Y51609
X31041Y50684
X31010Y50221
X31947Y49453
X30978Y48796
X30447Y48953
X30710Y48290
X29635Y48328
X29360Y49240
X28928Y49296
X29810Y49290
X29853Y49828
X32041Y47171
X31510Y45640
X31103Y44515
X29997Y44656
X30510Y43343
X28210Y43390
X32000Y39740
X34720Y42760
X35970Y46620
X35540Y50670
X33520Y54170
X30240Y56560
X27810Y55231
X27353Y54453
X27947Y53484
X27603Y53171
X20978Y45390
X21410Y44103
X21960Y44140
X20885Y43796
X20520Y39740
X17810Y42760
X16550Y46610
X19478Y47796
X20041Y49296
X24220Y38090
X24260Y34850
X21760Y34840
X17760Y34850
X15260Y34850
X15260Y29930
X17760Y29930
X21760Y29940
X24260Y29930
X28260Y29930
X30760Y29930
X30760Y34850
X28260Y34850
X28290Y38100
X34760Y34850
X37260Y34850
X37260Y29930
X38775Y28640
X40244Y28640
X34760Y29930
T02
X9604Y29551
X9917Y29549
X9915Y35729
X9604Y35729
X7876Y39551
X7604Y39700
X11914Y46572
X11643Y46729
X7918Y49642
X7643Y49801
X7652Y56483
X7926Y56636
X13707Y53299
X13706Y52980
X16763Y50890
X16666Y50594
X18691Y54232
X18900Y54460
X22065Y56760
X22359Y56888
X22614Y56994
X22870Y57089
X23128Y57176
X23390Y57258
X26760Y53234
X26978Y52671
X29137Y57256
X29399Y57174
X29674Y57079
X29935Y56981
X30205Y56869
X30494Y56741
X33615Y54466
X33822Y54237
X35754Y50897
X35850Y50601
X36256Y46748
X36224Y46436
X35031Y42761
X34876Y42493
X32284Y39612
X32031Y39429
X28495Y37855
X28192Y37790
X28103Y35033
X28415Y35034
X30604Y35033
X30916Y35033
X34604Y35032
X34915Y35034
X37104Y35033
X37416Y35034
X37416Y29746
X37102Y29746
X34917Y29747
X34602Y29746
X30916Y29747
X30603Y29747
X28415Y29746
X28103Y29746
X24416Y29746
X24104Y29746
X21915Y29747
X21603Y29746
X17915Y29747
X17604Y29746
X15417Y29746
X15104Y29746
X15100Y35033
X15417Y35033
X17605Y35036
X17917Y35034
X20495Y39424
X20242Y39608
X17643Y42492
X17487Y42762
X16297Y46425
X16265Y46735
X13350Y41257
X13195Y40989
X21600Y35031
X21917Y35033
X24104Y35035
X24416Y35034
X24315Y37793
X24011Y37858
X31872Y50018
X42605Y36031
X42916Y36030
X42915Y28750
X42601Y28749
T03
X40510Y35390
X40010Y35390
X39510Y35390
X39010Y35390
X38510Y35390
X38010Y35390
X34010Y35390
X33510Y35390
X33010Y35390
X32510Y35390
X32010Y35390
X31510Y35390
X27510Y35390
X27010Y35390
X26510Y35390
X26010Y35390
X25510Y35390
X25010Y35390
X21010Y35390
X20510Y35390
X20010Y35390
X19510Y35390
X19010Y35390
X18510Y35390
X14510Y35390
X14010Y35390
X13510Y35390
X13510Y35890
X13510Y36390
X13510Y36890
X13510Y37390
X13510Y38390
X13510Y38890
X13510Y39890
X13510Y40390
X13010Y35390
X12510Y35390
X12010Y35390
X11510Y35390
X8010Y35390
X7510Y35390
X7010Y35390
X6510Y35390
X6010Y35390
X5510Y35390
X5010Y35390
X13510Y45890
X13510Y46390
X13510Y46890
X13510Y47390
X13510Y47890
X13510Y48390
X13510Y48890
X13510Y49390
X13510Y49890
X13510Y50890
X13510Y55890
X13510Y56390
X13510Y56890
X13510Y57390
X13510Y57890
X13510Y58390
X45010Y35390
X45510Y35390
X46010Y35390
X46510Y35390
T04
X27188Y55767
X27184Y55818
X27188Y55877
X27186Y55920
X25283Y55877
X25281Y55920
X25279Y55818
X25283Y55767
T05
X25170Y56930
X25170Y56997
X25170Y57073
X25170Y57139
X27320Y57139
X27320Y57074
X27320Y56996
X27320Y56930
T06
X10645Y41605
X8224Y44026
T07
X31110Y45049
X31110Y46231
X42760Y32981
X42760Y31799
T08
X37260Y30640
X34760Y30640
X34760Y34140
X37260Y34140
X30760Y34140
X28260Y34140
X28260Y30640
X30760Y30640
X24260Y30640
X21760Y30640
X21760Y34140
X24260Y34140
X17760Y34140
X15260Y34140
X15260Y30640
X17760Y30640
X8283Y40581
X11236Y45695
X8260Y50542
X8260Y55738
X12760Y53140
T09
X17657Y46736
X18034Y50313
X19831Y53428
X22741Y55542
X29778Y55542
X32688Y53428
X34485Y50313
X34862Y46736
X33750Y43315
X31344Y40643
X28058Y39180
X24461Y39180
X21175Y40643
X18769Y43315
X9760Y34240
X9760Y31040
X42760Y30240
X42760Y34540
T10
X43260Y39140
X45760Y39140
X45760Y43140
X43260Y43140
X43260Y46140
X45760Y46140
X45760Y50140
X43260Y50140
X43260Y54140
X45760Y54140
X45760Y58140
X43260Y58140
X38760Y58140
X36260Y58140
M30
