G75*
%MOIN*%
%OFA0B0*%
%FSLAX25Y25*%
%IPPOS*%
%LPD*%
%AMOC8*
5,1,8,0,0,1.08239X$1,22.5*
%
%ADD10C,0.00800*%
%ADD11C,0.02300*%
%ADD12C,0.01600*%
%ADD13C,0.02800*%
%ADD14C,0.00500*%
%ADD15C,0.04146*%
%ADD16C,0.16800*%
%ADD17C,0.03556*%
%ADD18C,0.03398*%
%ADD19C,0.03800*%
%ADD20C,0.13461*%
%ADD21C,0.03950*%
%ADD22C,0.15800*%
%ADD23C,0.00300*%
D10*
X0146077Y0301016D02*
X0147196Y0300127D01*
X0148437Y0299419D01*
X0149772Y0298909D01*
X0151169Y0298609D01*
X0152595Y0298526D01*
X0154022Y0298609D01*
X0155419Y0298909D01*
X0156754Y0299419D01*
X0157995Y0300127D01*
X0159113Y0301016D01*
X0160082Y0302066D01*
X0160880Y0303252D01*
X0161486Y0304546D01*
X0161888Y0305917D01*
X0162075Y0307334D01*
X0162044Y0308762D01*
X0160940Y0307491D01*
X0159667Y0306389D01*
X0158251Y0305480D01*
X0156719Y0304781D01*
X0155103Y0304307D01*
X0153437Y0304068D01*
X0151753Y0304068D01*
X0150087Y0304307D01*
X0148471Y0304781D01*
X0146940Y0305480D01*
X0145523Y0306389D01*
X0144250Y0307491D01*
X0143146Y0308762D01*
X0143115Y0307334D01*
X0143302Y0305917D01*
X0143704Y0304546D01*
X0144311Y0303252D01*
X0145108Y0302066D01*
X0146077Y0301016D01*
X0146440Y0300728D02*
X0158750Y0300728D01*
X0159584Y0301526D02*
X0145607Y0301526D01*
X0144934Y0302325D02*
X0160256Y0302325D01*
X0160793Y0303123D02*
X0144397Y0303123D01*
X0143997Y0303922D02*
X0161194Y0303922D01*
X0161537Y0304720D02*
X0156511Y0304720D01*
X0158311Y0305519D02*
X0161771Y0305519D01*
X0161941Y0306317D02*
X0159555Y0306317D01*
X0160507Y0307116D02*
X0162047Y0307116D01*
X0162063Y0307914D02*
X0161308Y0307914D01*
X0162001Y0308713D02*
X0162045Y0308713D01*
X0168145Y0308713D02*
X0168189Y0308713D01*
X0168146Y0308762D02*
X0169250Y0307491D01*
X0170523Y0306389D01*
X0171940Y0305480D01*
X0173471Y0304781D01*
X0175087Y0304307D01*
X0176753Y0304068D01*
X0178437Y0304068D01*
X0180103Y0304307D01*
X0181719Y0304781D01*
X0183251Y0305480D01*
X0184667Y0306389D01*
X0185940Y0307491D01*
X0187044Y0308762D01*
X0187075Y0307334D01*
X0186888Y0305917D01*
X0186486Y0304546D01*
X0185880Y0303252D01*
X0185082Y0302066D01*
X0184113Y0301016D01*
X0182995Y0300127D01*
X0181754Y0299419D01*
X0180419Y0298909D01*
X0179022Y0298609D01*
X0177595Y0298526D01*
X0176169Y0298609D01*
X0174772Y0298909D01*
X0173437Y0299419D01*
X0172196Y0300127D01*
X0171077Y0301016D01*
X0170108Y0302066D01*
X0169311Y0303252D01*
X0168704Y0304546D01*
X0168302Y0305917D01*
X0168115Y0307334D01*
X0168146Y0308762D01*
X0168128Y0307914D02*
X0168882Y0307914D01*
X0168144Y0307116D02*
X0169683Y0307116D01*
X0170635Y0306317D02*
X0168249Y0306317D01*
X0168419Y0305519D02*
X0171879Y0305519D01*
X0173679Y0304720D02*
X0168653Y0304720D01*
X0168997Y0303922D02*
X0186194Y0303922D01*
X0186537Y0304720D02*
X0181511Y0304720D01*
X0183311Y0305519D02*
X0186771Y0305519D01*
X0186941Y0306317D02*
X0184555Y0306317D01*
X0185507Y0307116D02*
X0187047Y0307116D01*
X0187063Y0307914D02*
X0186308Y0307914D01*
X0187001Y0308713D02*
X0187045Y0308713D01*
X0185793Y0303123D02*
X0169397Y0303123D01*
X0169934Y0302325D02*
X0185256Y0302325D01*
X0184584Y0301526D02*
X0170607Y0301526D01*
X0171440Y0300728D02*
X0183750Y0300728D01*
X0182648Y0299929D02*
X0172542Y0299929D01*
X0174191Y0299130D02*
X0180999Y0299130D01*
X0157648Y0299929D02*
X0147542Y0299929D01*
X0149191Y0299130D02*
X0155999Y0299130D01*
X0148679Y0304720D02*
X0143653Y0304720D01*
X0143419Y0305519D02*
X0146879Y0305519D01*
X0145635Y0306317D02*
X0143249Y0306317D01*
X0143144Y0307116D02*
X0144683Y0307116D01*
X0143882Y0307914D02*
X0143128Y0307914D01*
X0143145Y0308713D02*
X0143189Y0308713D01*
X0143146Y0339038D02*
X0144250Y0340309D01*
X0145523Y0341411D01*
X0146940Y0342320D01*
X0148471Y0343019D01*
X0150087Y0343493D01*
X0151753Y0343732D01*
X0153437Y0343732D01*
X0155103Y0343493D01*
X0156719Y0343019D01*
X0158251Y0342320D01*
X0159667Y0341411D01*
X0160940Y0340309D01*
X0162044Y0339038D01*
X0162075Y0340466D01*
X0161888Y0341883D01*
X0161486Y0343254D01*
X0160880Y0344548D01*
X0160082Y0345734D01*
X0159113Y0346784D01*
X0157995Y0347673D01*
X0156754Y0348381D01*
X0155419Y0348891D01*
X0154022Y0349191D01*
X0152595Y0349274D01*
X0151169Y0349191D01*
X0149772Y0348891D01*
X0148437Y0348381D01*
X0147196Y0347673D01*
X0146077Y0346784D01*
X0145108Y0345734D01*
X0144311Y0344548D01*
X0143704Y0343254D01*
X0143302Y0341883D01*
X0143115Y0340466D01*
X0143146Y0339038D01*
X0143146Y0339056D02*
X0143162Y0339056D01*
X0143128Y0339855D02*
X0143855Y0339855D01*
X0143140Y0340653D02*
X0144647Y0340653D01*
X0145587Y0341452D02*
X0143245Y0341452D01*
X0143410Y0342250D02*
X0146831Y0342250D01*
X0148573Y0343049D02*
X0143644Y0343049D01*
X0143982Y0343847D02*
X0161208Y0343847D01*
X0161546Y0343049D02*
X0156618Y0343049D01*
X0158360Y0342250D02*
X0161780Y0342250D01*
X0161945Y0341452D02*
X0159604Y0341452D01*
X0160543Y0340653D02*
X0162051Y0340653D01*
X0162062Y0339855D02*
X0161335Y0339855D01*
X0162028Y0339056D02*
X0162044Y0339056D01*
X0160814Y0344646D02*
X0144376Y0344646D01*
X0144913Y0345444D02*
X0160277Y0345444D01*
X0159613Y0346243D02*
X0145578Y0346243D01*
X0146401Y0347041D02*
X0158790Y0347041D01*
X0157703Y0347840D02*
X0147487Y0347840D01*
X0149109Y0348638D02*
X0156081Y0348638D01*
X0168704Y0343254D02*
X0169311Y0344548D01*
X0170108Y0345734D01*
X0171077Y0346784D01*
X0172196Y0347673D01*
X0173437Y0348381D01*
X0174772Y0348891D01*
X0176169Y0349191D01*
X0177595Y0349274D01*
X0179022Y0349191D01*
X0180419Y0348891D01*
X0181754Y0348381D01*
X0182995Y0347673D01*
X0184113Y0346784D01*
X0185082Y0345734D01*
X0185880Y0344548D01*
X0186486Y0343254D01*
X0186888Y0341883D01*
X0187075Y0340466D01*
X0187044Y0339038D01*
X0185940Y0340309D01*
X0184667Y0341411D01*
X0183251Y0342320D01*
X0181719Y0343019D01*
X0180103Y0343493D01*
X0178437Y0343732D01*
X0176753Y0343732D01*
X0175087Y0343493D01*
X0173471Y0343019D01*
X0171940Y0342320D01*
X0170523Y0341411D01*
X0169250Y0340309D01*
X0168146Y0339038D01*
X0168115Y0340466D01*
X0168302Y0341883D01*
X0168704Y0343254D01*
X0168644Y0343049D02*
X0173573Y0343049D01*
X0171831Y0342250D02*
X0168410Y0342250D01*
X0168245Y0341452D02*
X0170587Y0341452D01*
X0169647Y0340653D02*
X0168140Y0340653D01*
X0168128Y0339855D02*
X0168855Y0339855D01*
X0168162Y0339056D02*
X0168146Y0339056D01*
X0168982Y0343847D02*
X0186208Y0343847D01*
X0186546Y0343049D02*
X0181618Y0343049D01*
X0183360Y0342250D02*
X0186780Y0342250D01*
X0186945Y0341452D02*
X0184604Y0341452D01*
X0185543Y0340653D02*
X0187051Y0340653D01*
X0187062Y0339855D02*
X0186335Y0339855D01*
X0187028Y0339056D02*
X0187044Y0339056D01*
X0185814Y0344646D02*
X0169376Y0344646D01*
X0169913Y0345444D02*
X0185277Y0345444D01*
X0184613Y0346243D02*
X0170578Y0346243D01*
X0171401Y0347041D02*
X0183790Y0347041D01*
X0182703Y0347840D02*
X0172487Y0347840D01*
X0174109Y0348638D02*
X0181081Y0348638D01*
X0208302Y0341883D02*
X0208704Y0343254D01*
X0209311Y0344548D01*
X0210108Y0345734D01*
X0211077Y0346784D01*
X0212196Y0347673D01*
X0213437Y0348381D01*
X0214772Y0348891D01*
X0216169Y0349191D01*
X0217595Y0349274D01*
X0219022Y0349191D01*
X0220419Y0348891D01*
X0221754Y0348381D01*
X0222995Y0347673D01*
X0224113Y0346784D01*
X0225082Y0345734D01*
X0225880Y0344548D01*
X0226486Y0343254D01*
X0226888Y0341883D01*
X0227075Y0340466D01*
X0227044Y0339038D01*
X0225940Y0340309D01*
X0224667Y0341411D01*
X0223251Y0342320D01*
X0221719Y0343019D01*
X0220103Y0343493D01*
X0218437Y0343732D01*
X0216753Y0343732D01*
X0215087Y0343493D01*
X0213471Y0343019D01*
X0211940Y0342320D01*
X0210523Y0341411D01*
X0209250Y0340309D01*
X0208146Y0339038D01*
X0208115Y0340466D01*
X0208302Y0341883D01*
X0208410Y0342250D02*
X0211831Y0342250D01*
X0210587Y0341452D02*
X0208245Y0341452D01*
X0208140Y0340653D02*
X0209647Y0340653D01*
X0208855Y0339855D02*
X0208128Y0339855D01*
X0208146Y0339056D02*
X0208162Y0339056D01*
X0208644Y0343049D02*
X0213573Y0343049D01*
X0209913Y0345444D02*
X0225277Y0345444D01*
X0225814Y0344646D02*
X0209376Y0344646D01*
X0208982Y0343847D02*
X0226208Y0343847D01*
X0226546Y0343049D02*
X0221618Y0343049D01*
X0223360Y0342250D02*
X0226780Y0342250D01*
X0226945Y0341452D02*
X0224604Y0341452D01*
X0225543Y0340653D02*
X0227051Y0340653D01*
X0227062Y0339855D02*
X0226335Y0339855D01*
X0227028Y0339056D02*
X0227044Y0339056D01*
X0224613Y0346243D02*
X0210578Y0346243D01*
X0211401Y0347041D02*
X0223790Y0347041D01*
X0222703Y0347840D02*
X0212487Y0347840D01*
X0214109Y0348638D02*
X0221081Y0348638D01*
X0233704Y0343254D02*
X0234311Y0344548D01*
X0235108Y0345734D01*
X0236077Y0346784D01*
X0237196Y0347673D01*
X0238437Y0348381D01*
X0239772Y0348891D01*
X0241169Y0349191D01*
X0242595Y0349274D01*
X0244022Y0349191D01*
X0245419Y0348891D01*
X0246754Y0348381D01*
X0247995Y0347673D01*
X0249113Y0346784D01*
X0250082Y0345734D01*
X0250880Y0344548D01*
X0251486Y0343254D01*
X0251888Y0341883D01*
X0252075Y0340466D01*
X0252044Y0339038D01*
X0250940Y0340309D01*
X0249667Y0341411D01*
X0248251Y0342320D01*
X0246719Y0343019D01*
X0245103Y0343493D01*
X0243437Y0343732D01*
X0241753Y0343732D01*
X0240087Y0343493D01*
X0238471Y0343019D01*
X0236940Y0342320D01*
X0235523Y0341411D01*
X0234250Y0340309D01*
X0233146Y0339038D01*
X0233115Y0340466D01*
X0233302Y0341883D01*
X0233704Y0343254D01*
X0233644Y0343049D02*
X0238573Y0343049D01*
X0236831Y0342250D02*
X0233410Y0342250D01*
X0233245Y0341452D02*
X0235587Y0341452D01*
X0234647Y0340653D02*
X0233140Y0340653D01*
X0233128Y0339855D02*
X0233855Y0339855D01*
X0233162Y0339056D02*
X0233146Y0339056D01*
X0233982Y0343847D02*
X0251208Y0343847D01*
X0251546Y0343049D02*
X0246618Y0343049D01*
X0248360Y0342250D02*
X0251780Y0342250D01*
X0251945Y0341452D02*
X0249604Y0341452D01*
X0250543Y0340653D02*
X0252051Y0340653D01*
X0252062Y0339855D02*
X0251335Y0339855D01*
X0252028Y0339056D02*
X0252044Y0339056D01*
X0250814Y0344646D02*
X0234376Y0344646D01*
X0234913Y0345444D02*
X0250277Y0345444D01*
X0249613Y0346243D02*
X0235578Y0346243D01*
X0236401Y0347041D02*
X0248790Y0347041D01*
X0247703Y0347840D02*
X0237487Y0347840D01*
X0239109Y0348638D02*
X0246081Y0348638D01*
X0245269Y0380024D02*
X0243695Y0379952D01*
X0242129Y0380127D01*
X0240628Y0380604D01*
X0239219Y0381310D01*
X0237939Y0382228D01*
X0236817Y0383335D01*
X0235883Y0384604D01*
X0235158Y0386003D01*
X0234661Y0387498D01*
X0234405Y0389053D01*
X0234394Y0390628D01*
X0234630Y0392186D01*
X0240215Y0407099D01*
X0240890Y0405804D01*
X0241763Y0404634D01*
X0242811Y0403618D01*
X0244008Y0402782D01*
X0245322Y0402148D01*
X0246722Y0401731D01*
X0248169Y0401543D01*
X0249628Y0401587D01*
X0251062Y0401864D01*
X0252432Y0402366D01*
X0253706Y0403080D01*
X0254849Y0403988D01*
X0253885Y0388093D01*
X0253467Y0386574D01*
X0252817Y0385139D01*
X0251950Y0383823D01*
X0250888Y0382659D01*
X0249657Y0381676D01*
X0248287Y0380897D01*
X0246813Y0380342D01*
X0245269Y0380024D01*
X0247442Y0380579D02*
X0240708Y0380579D01*
X0239126Y0381377D02*
X0249132Y0381377D01*
X0250283Y0382176D02*
X0238012Y0382176D01*
X0237183Y0382974D02*
X0251176Y0382974D01*
X0251904Y0383773D02*
X0236495Y0383773D01*
X0235907Y0384571D02*
X0252443Y0384571D01*
X0252922Y0385370D02*
X0235486Y0385370D01*
X0235103Y0386168D02*
X0253283Y0386168D01*
X0253575Y0386967D02*
X0234838Y0386967D01*
X0234617Y0387765D02*
X0253795Y0387765D01*
X0253914Y0388564D02*
X0234485Y0388564D01*
X0234403Y0389362D02*
X0253962Y0389362D01*
X0254010Y0390161D02*
X0234397Y0390161D01*
X0234444Y0390959D02*
X0254059Y0390959D01*
X0254107Y0391758D02*
X0234565Y0391758D01*
X0234769Y0392556D02*
X0254156Y0392556D01*
X0254204Y0393355D02*
X0235068Y0393355D01*
X0235367Y0394153D02*
X0254253Y0394153D01*
X0254301Y0394952D02*
X0235666Y0394952D01*
X0235965Y0395750D02*
X0254349Y0395750D01*
X0254398Y0396549D02*
X0236264Y0396549D01*
X0236563Y0397347D02*
X0254446Y0397347D01*
X0254495Y0398146D02*
X0236862Y0398146D01*
X0237161Y0398944D02*
X0254543Y0398944D01*
X0254591Y0399743D02*
X0237460Y0399743D01*
X0237759Y0400541D02*
X0254640Y0400541D01*
X0254688Y0401340D02*
X0238058Y0401340D01*
X0238357Y0402138D02*
X0245354Y0402138D01*
X0243786Y0402937D02*
X0238656Y0402937D01*
X0238956Y0403735D02*
X0242690Y0403735D01*
X0241866Y0404534D02*
X0239255Y0404534D01*
X0239554Y0405332D02*
X0241242Y0405332D01*
X0240720Y0406131D02*
X0239853Y0406131D01*
X0240152Y0406930D02*
X0240303Y0406930D01*
X0251810Y0402138D02*
X0254737Y0402138D01*
X0254785Y0402937D02*
X0253450Y0402937D01*
X0254530Y0403735D02*
X0254833Y0403735D01*
X0270341Y0403988D02*
X0271305Y0388093D01*
X0271723Y0386574D01*
X0272373Y0385139D01*
X0273240Y0383823D01*
X0274302Y0382659D01*
X0275533Y0381676D01*
X0276903Y0380897D01*
X0278378Y0380342D01*
X0279921Y0380024D01*
X0281495Y0379952D01*
X0283061Y0380127D01*
X0284562Y0380604D01*
X0285971Y0381310D01*
X0287252Y0382228D01*
X0288373Y0383335D01*
X0289308Y0384603D01*
X0290032Y0386003D01*
X0290529Y0387498D01*
X0290786Y0389053D01*
X0290796Y0390628D01*
X0290560Y0392186D01*
X0284975Y0407099D01*
X0284300Y0405804D01*
X0283427Y0404634D01*
X0282379Y0403618D01*
X0281183Y0402782D01*
X0279868Y0402148D01*
X0278469Y0401731D01*
X0277021Y0401543D01*
X0275562Y0401587D01*
X0274129Y0401864D01*
X0272758Y0402366D01*
X0271485Y0403080D01*
X0270341Y0403988D01*
X0270357Y0403735D02*
X0270660Y0403735D01*
X0270405Y0402937D02*
X0271740Y0402937D01*
X0270454Y0402138D02*
X0273380Y0402138D01*
X0270502Y0401340D02*
X0287132Y0401340D01*
X0286833Y0402138D02*
X0279837Y0402138D01*
X0281404Y0402937D02*
X0286534Y0402937D01*
X0286235Y0403735D02*
X0282500Y0403735D01*
X0283324Y0404534D02*
X0285936Y0404534D01*
X0285637Y0405332D02*
X0283948Y0405332D01*
X0284471Y0406131D02*
X0285338Y0406131D01*
X0285039Y0406930D02*
X0284887Y0406930D01*
X0287431Y0400541D02*
X0270550Y0400541D01*
X0270599Y0399743D02*
X0287730Y0399743D01*
X0288029Y0398944D02*
X0270647Y0398944D01*
X0270696Y0398146D02*
X0288328Y0398146D01*
X0288627Y0397347D02*
X0270744Y0397347D01*
X0270793Y0396549D02*
X0288926Y0396549D01*
X0289225Y0395750D02*
X0270841Y0395750D01*
X0270889Y0394952D02*
X0289524Y0394952D01*
X0289823Y0394153D02*
X0270938Y0394153D01*
X0270986Y0393355D02*
X0290122Y0393355D01*
X0290421Y0392556D02*
X0271035Y0392556D01*
X0271083Y0391758D02*
X0290625Y0391758D01*
X0290746Y0390959D02*
X0271131Y0390959D01*
X0271180Y0390161D02*
X0290793Y0390161D01*
X0290788Y0389362D02*
X0271228Y0389362D01*
X0271277Y0388564D02*
X0290705Y0388564D01*
X0290573Y0387765D02*
X0271395Y0387765D01*
X0271615Y0386967D02*
X0290353Y0386967D01*
X0290087Y0386168D02*
X0271907Y0386168D01*
X0272269Y0385370D02*
X0289705Y0385370D01*
X0289284Y0384571D02*
X0272747Y0384571D01*
X0273286Y0383773D02*
X0288696Y0383773D01*
X0288008Y0382974D02*
X0274015Y0382974D01*
X0274908Y0382176D02*
X0287179Y0382176D01*
X0286064Y0381377D02*
X0276058Y0381377D01*
X0277749Y0380579D02*
X0284482Y0380579D01*
X0306736Y0398944D02*
X0322547Y0398944D01*
X0322625Y0399039D02*
X0321625Y0397821D01*
X0320447Y0396775D01*
X0319088Y0395978D01*
X0317621Y0395404D01*
X0316082Y0395066D01*
X0314509Y0394973D01*
X0312941Y0395128D01*
X0311416Y0395526D01*
X0309973Y0396157D01*
X0308646Y0397006D01*
X0307468Y0398053D01*
X0306468Y0399271D01*
X0299123Y0413400D01*
X0300536Y0413035D01*
X0301990Y0412901D01*
X0303446Y0413000D01*
X0304868Y0413330D01*
X0306219Y0413882D01*
X0307465Y0414643D01*
X0308574Y0415593D01*
X0309517Y0416707D01*
X0310270Y0417958D01*
X0310814Y0419312D01*
X0311136Y0420736D01*
X0311226Y0422193D01*
X0322394Y0410841D01*
X0323243Y0409514D01*
X0323874Y0408071D01*
X0324272Y0406546D01*
X0324426Y0404978D01*
X0324334Y0403405D01*
X0323996Y0401866D01*
X0323422Y0400399D01*
X0322625Y0399039D01*
X0323037Y0399743D02*
X0306223Y0399743D01*
X0305807Y0400541D02*
X0323478Y0400541D01*
X0323790Y0401340D02*
X0305392Y0401340D01*
X0304977Y0402138D02*
X0324056Y0402138D01*
X0324231Y0402937D02*
X0304562Y0402937D01*
X0304147Y0403735D02*
X0324353Y0403735D01*
X0324400Y0404534D02*
X0303732Y0404534D01*
X0303317Y0405332D02*
X0324392Y0405332D01*
X0324313Y0406131D02*
X0302901Y0406131D01*
X0302486Y0406930D02*
X0324172Y0406930D01*
X0323964Y0407728D02*
X0302071Y0407728D01*
X0301656Y0408527D02*
X0323675Y0408527D01*
X0323326Y0409325D02*
X0301241Y0409325D01*
X0300826Y0410124D02*
X0322853Y0410124D01*
X0322314Y0410922D02*
X0300411Y0410922D01*
X0299995Y0411721D02*
X0321528Y0411721D01*
X0320743Y0412519D02*
X0299580Y0412519D01*
X0299440Y0413318D02*
X0299165Y0413318D01*
X0304816Y0413318D02*
X0319957Y0413318D01*
X0319172Y0414116D02*
X0306602Y0414116D01*
X0307782Y0414915D02*
X0318386Y0414915D01*
X0317601Y0415713D02*
X0308676Y0415713D01*
X0309351Y0416512D02*
X0316815Y0416512D01*
X0316030Y0417310D02*
X0309880Y0417310D01*
X0310331Y0418109D02*
X0315244Y0418109D01*
X0314459Y0418907D02*
X0310652Y0418907D01*
X0310903Y0419706D02*
X0313673Y0419706D01*
X0312888Y0420504D02*
X0311083Y0420504D01*
X0311171Y0421303D02*
X0312102Y0421303D01*
X0311316Y0422101D02*
X0311220Y0422101D01*
X0321591Y0433698D02*
X0334048Y0423779D01*
X0335456Y0423073D01*
X0336958Y0422596D01*
X0338516Y0422360D01*
X0340091Y0422370D01*
X0341646Y0422627D01*
X0343141Y0423123D01*
X0344540Y0423848D01*
X0345809Y0424782D01*
X0346916Y0425904D01*
X0347834Y0427184D01*
X0348484Y0428620D01*
X0348902Y0430139D01*
X0349077Y0431705D01*
X0349005Y0433279D01*
X0348687Y0434822D01*
X0348132Y0436297D01*
X0347353Y0437667D01*
X0346370Y0438898D01*
X0345206Y0439960D01*
X0343890Y0440826D01*
X0329071Y0446655D01*
X0329581Y0445287D01*
X0329867Y0443855D01*
X0329920Y0442397D01*
X0329741Y0440948D01*
X0329333Y0439546D01*
X0328706Y0438228D01*
X0327878Y0437026D01*
X0326868Y0435972D01*
X0325703Y0435092D01*
X0324413Y0434409D01*
X0323030Y0433940D01*
X0321591Y0433698D01*
X0322116Y0433280D02*
X0349004Y0433280D01*
X0349041Y0432482D02*
X0323118Y0432482D01*
X0324121Y0431683D02*
X0349074Y0431683D01*
X0348985Y0430885D02*
X0325124Y0430885D01*
X0326127Y0430086D02*
X0348887Y0430086D01*
X0348668Y0429288D02*
X0327129Y0429288D01*
X0328132Y0428489D02*
X0348425Y0428489D01*
X0348063Y0427691D02*
X0329135Y0427691D01*
X0330138Y0426892D02*
X0347624Y0426892D01*
X0347052Y0426094D02*
X0331140Y0426094D01*
X0332143Y0425295D02*
X0346315Y0425295D01*
X0345421Y0424497D02*
X0333146Y0424497D01*
X0334208Y0423698D02*
X0344251Y0423698D01*
X0342468Y0422900D02*
X0336001Y0422900D01*
X0326476Y0435676D02*
X0348366Y0435676D01*
X0348666Y0434877D02*
X0325298Y0434877D01*
X0323439Y0434079D02*
X0348840Y0434079D01*
X0348031Y0436474D02*
X0327349Y0436474D01*
X0328048Y0437273D02*
X0347577Y0437273D01*
X0347030Y0438071D02*
X0328598Y0438071D01*
X0329011Y0438870D02*
X0346392Y0438870D01*
X0345525Y0439668D02*
X0329368Y0439668D01*
X0329601Y0440467D02*
X0344436Y0440467D01*
X0342774Y0441266D02*
X0329780Y0441266D01*
X0329879Y0442064D02*
X0340744Y0442064D01*
X0338713Y0442863D02*
X0329903Y0442863D01*
X0329874Y0443661D02*
X0336683Y0443661D01*
X0334653Y0444460D02*
X0329746Y0444460D01*
X0329587Y0445258D02*
X0332622Y0445258D01*
X0330592Y0446057D02*
X0329294Y0446057D01*
X0340651Y0459631D02*
X0356898Y0459631D01*
X0356682Y0459435D02*
X0355367Y0458568D01*
X0353932Y0457918D01*
X0352412Y0457500D01*
X0350846Y0457325D01*
X0349272Y0457397D01*
X0333858Y0461392D01*
X0335074Y0462199D01*
X0336147Y0463189D01*
X0337048Y0464338D01*
X0337754Y0465615D01*
X0338248Y0466989D01*
X0338516Y0468424D01*
X0338552Y0469883D01*
X0338355Y0471330D01*
X0337930Y0472726D01*
X0337287Y0474037D01*
X0336444Y0475229D01*
X0335421Y0476271D01*
X0351330Y0476974D01*
X0352885Y0476717D01*
X0354380Y0476220D01*
X0355779Y0475496D01*
X0357048Y0474561D01*
X0358155Y0473440D01*
X0359072Y0472159D01*
X0359778Y0470751D01*
X0360255Y0469249D01*
X0360492Y0467691D01*
X0360481Y0466115D01*
X0360164Y0464572D01*
X0359609Y0463097D01*
X0358830Y0461728D01*
X0357846Y0460497D01*
X0356682Y0459435D01*
X0355768Y0458833D02*
X0343732Y0458833D01*
X0346813Y0458034D02*
X0354189Y0458034D01*
X0357773Y0460430D02*
X0337571Y0460430D01*
X0335753Y0462825D02*
X0359454Y0462825D01*
X0359807Y0463624D02*
X0336488Y0463624D01*
X0337095Y0464422D02*
X0360108Y0464422D01*
X0360297Y0465221D02*
X0337536Y0465221D01*
X0337899Y0466019D02*
X0360462Y0466019D01*
X0360486Y0466818D02*
X0338186Y0466818D01*
X0338365Y0467616D02*
X0360491Y0467616D01*
X0360382Y0468415D02*
X0338514Y0468415D01*
X0338535Y0469213D02*
X0360261Y0469213D01*
X0360013Y0470012D02*
X0338534Y0470012D01*
X0338426Y0470810D02*
X0359748Y0470810D01*
X0359348Y0471609D02*
X0338270Y0471609D01*
X0338027Y0472407D02*
X0358894Y0472407D01*
X0358322Y0473206D02*
X0337694Y0473206D01*
X0337303Y0474004D02*
X0357597Y0474004D01*
X0356720Y0474803D02*
X0336745Y0474803D01*
X0336078Y0475601D02*
X0355575Y0475601D01*
X0353840Y0476400D02*
X0338344Y0476400D01*
X0334815Y0462027D02*
X0359000Y0462027D01*
X0358431Y0461228D02*
X0334490Y0461228D01*
X0333797Y0491676D02*
X0349504Y0494296D01*
X0350972Y0494870D01*
X0352331Y0495667D01*
X0353549Y0496667D01*
X0354595Y0497845D01*
X0355445Y0499172D01*
X0356076Y0500615D01*
X0356474Y0502140D01*
X0356628Y0503708D01*
X0356536Y0505281D01*
X0356198Y0506820D01*
X0355567Y0508263D01*
X0354717Y0509590D01*
X0353671Y0510768D01*
X0352453Y0511768D01*
X0351093Y0512565D01*
X0349626Y0513139D01*
X0348087Y0513477D01*
X0346514Y0513570D01*
X0344946Y0513415D01*
X0343421Y0513017D01*
X0329174Y0505904D01*
X0330532Y0505368D01*
X0331787Y0504623D01*
X0332907Y0503687D01*
X0333863Y0502584D01*
X0334632Y0501343D01*
X0335193Y0499995D01*
X0335531Y0498575D01*
X0335639Y0497119D01*
X0335513Y0495664D01*
X0335158Y0494249D01*
X0334581Y0492908D01*
X0333797Y0491676D01*
X0334239Y0492370D02*
X0337959Y0492370D01*
X0335036Y0493967D02*
X0347534Y0493967D01*
X0350705Y0494766D02*
X0335288Y0494766D01*
X0335488Y0495564D02*
X0352155Y0495564D01*
X0353178Y0496363D02*
X0335574Y0496363D01*
X0335636Y0497161D02*
X0353988Y0497161D01*
X0354669Y0497960D02*
X0335577Y0497960D01*
X0335487Y0498758D02*
X0355180Y0498758D01*
X0355613Y0499557D02*
X0335297Y0499557D01*
X0335042Y0500355D02*
X0355962Y0500355D01*
X0356217Y0501154D02*
X0334710Y0501154D01*
X0334254Y0501952D02*
X0356425Y0501952D01*
X0356534Y0502751D02*
X0333718Y0502751D01*
X0333026Y0503549D02*
X0356613Y0503549D01*
X0356591Y0504348D02*
X0332116Y0504348D01*
X0330906Y0505146D02*
X0356544Y0505146D01*
X0356390Y0505945D02*
X0329255Y0505945D01*
X0330855Y0506743D02*
X0356215Y0506743D01*
X0355882Y0507542D02*
X0332454Y0507542D01*
X0334053Y0508340D02*
X0355517Y0508340D01*
X0355006Y0509139D02*
X0335653Y0509139D01*
X0337252Y0509937D02*
X0354409Y0509937D01*
X0353699Y0510736D02*
X0338852Y0510736D01*
X0340451Y0511534D02*
X0352737Y0511534D01*
X0351488Y0512333D02*
X0342050Y0512333D01*
X0343859Y0513132D02*
X0349645Y0513132D01*
X0342747Y0493169D02*
X0334693Y0493169D01*
X0321438Y0519317D02*
X0334721Y0528099D01*
X0335828Y0529221D01*
X0336746Y0530502D01*
X0337452Y0531910D01*
X0337929Y0533412D01*
X0338165Y0534970D01*
X0338155Y0536545D01*
X0337898Y0538100D01*
X0337401Y0539595D01*
X0336677Y0540994D01*
X0335742Y0542263D01*
X0334578Y0543325D01*
X0333263Y0544192D01*
X0331827Y0544842D01*
X0330308Y0545260D01*
X0328742Y0545435D01*
X0327168Y0545363D01*
X0325625Y0545045D01*
X0324150Y0544490D01*
X0322781Y0543712D01*
X0321550Y0542728D01*
X0311427Y0530435D01*
X0312886Y0530498D01*
X0314335Y0530327D01*
X0315739Y0529927D01*
X0317062Y0529309D01*
X0318268Y0528488D01*
X0319329Y0527484D01*
X0320216Y0526325D01*
X0320907Y0525039D01*
X0321383Y0523659D01*
X0321634Y0522221D01*
X0321652Y0520761D01*
X0321438Y0519317D01*
X0321468Y0519520D02*
X0321744Y0519520D01*
X0321586Y0520318D02*
X0322952Y0520318D01*
X0324159Y0521117D02*
X0321648Y0521117D01*
X0321638Y0521915D02*
X0325367Y0521915D01*
X0326575Y0522714D02*
X0321548Y0522714D01*
X0321409Y0523512D02*
X0327783Y0523512D01*
X0328991Y0524311D02*
X0321158Y0524311D01*
X0320869Y0525109D02*
X0330199Y0525109D01*
X0331406Y0525908D02*
X0320440Y0525908D01*
X0319924Y0526706D02*
X0332614Y0526706D01*
X0333822Y0527505D02*
X0319307Y0527505D01*
X0318463Y0528303D02*
X0334923Y0528303D01*
X0335711Y0529102D02*
X0317366Y0529102D01*
X0315797Y0529900D02*
X0336315Y0529900D01*
X0336845Y0530699D02*
X0311644Y0530699D01*
X0312302Y0531497D02*
X0337245Y0531497D01*
X0337574Y0532296D02*
X0312959Y0532296D01*
X0313617Y0533094D02*
X0337828Y0533094D01*
X0338002Y0533893D02*
X0314274Y0533893D01*
X0314932Y0534691D02*
X0338123Y0534691D01*
X0338162Y0535490D02*
X0315589Y0535490D01*
X0316247Y0536288D02*
X0338156Y0536288D01*
X0338065Y0537087D02*
X0316904Y0537087D01*
X0317562Y0537885D02*
X0337933Y0537885D01*
X0337704Y0538684D02*
X0318219Y0538684D01*
X0318877Y0539482D02*
X0337439Y0539482D01*
X0337046Y0540281D02*
X0319534Y0540281D01*
X0320192Y0541079D02*
X0336614Y0541079D01*
X0336026Y0541878D02*
X0320849Y0541878D01*
X0321507Y0542676D02*
X0335289Y0542676D01*
X0334351Y0543475D02*
X0322484Y0543475D01*
X0323769Y0544273D02*
X0333083Y0544273D01*
X0330992Y0545072D02*
X0325754Y0545072D01*
X0308012Y0554440D02*
X0308329Y0555983D01*
X0308402Y0557557D01*
X0308227Y0559123D01*
X0307809Y0560642D01*
X0307158Y0562078D01*
X0306292Y0563393D01*
X0305230Y0564557D01*
X0303999Y0565541D01*
X0302629Y0566320D01*
X0301134Y0566817D01*
X0299579Y0567073D01*
X0298004Y0567084D01*
X0296446Y0566847D01*
X0294944Y0566370D01*
X0293535Y0565664D01*
X0292255Y0564746D01*
X0291133Y0563640D01*
X0290199Y0562371D01*
X0289474Y0560972D01*
X0285227Y0545625D01*
X0286534Y0546275D01*
X0287928Y0546709D01*
X0289373Y0546915D01*
X0290832Y0546888D01*
X0292269Y0546628D01*
X0293646Y0546143D01*
X0294928Y0545444D01*
X0296082Y0544550D01*
X0297078Y0543484D01*
X0297892Y0542272D01*
X0298503Y0540946D01*
X0298894Y0539540D01*
X0307457Y0552965D01*
X0308012Y0554440D01*
X0308056Y0554654D02*
X0287726Y0554654D01*
X0287505Y0553856D02*
X0307792Y0553856D01*
X0307492Y0553057D02*
X0287284Y0553057D01*
X0287063Y0552259D02*
X0307006Y0552259D01*
X0306497Y0551460D02*
X0286842Y0551460D01*
X0286621Y0550662D02*
X0305988Y0550662D01*
X0305479Y0549863D02*
X0286400Y0549863D01*
X0286179Y0549065D02*
X0304969Y0549065D01*
X0304460Y0548266D02*
X0285958Y0548266D01*
X0285737Y0547468D02*
X0303951Y0547468D01*
X0303441Y0546669D02*
X0292042Y0546669D01*
X0294145Y0545870D02*
X0302932Y0545870D01*
X0302423Y0545072D02*
X0295408Y0545072D01*
X0296340Y0544273D02*
X0301913Y0544273D01*
X0301404Y0543475D02*
X0297084Y0543475D01*
X0297621Y0542676D02*
X0300895Y0542676D01*
X0300385Y0541878D02*
X0298074Y0541878D01*
X0298441Y0541079D02*
X0299876Y0541079D01*
X0299367Y0540281D02*
X0298688Y0540281D01*
X0308220Y0555453D02*
X0287947Y0555453D01*
X0288168Y0556251D02*
X0308342Y0556251D01*
X0308378Y0557050D02*
X0288389Y0557050D01*
X0288610Y0557848D02*
X0308369Y0557848D01*
X0308280Y0558647D02*
X0288831Y0558647D01*
X0289052Y0559445D02*
X0308138Y0559445D01*
X0307918Y0560244D02*
X0289273Y0560244D01*
X0289510Y0561042D02*
X0307628Y0561042D01*
X0307266Y0561841D02*
X0289924Y0561841D01*
X0290396Y0562639D02*
X0306788Y0562639D01*
X0306251Y0563438D02*
X0290984Y0563438D01*
X0291738Y0564236D02*
X0305523Y0564236D01*
X0304632Y0565035D02*
X0292657Y0565035D01*
X0293873Y0565833D02*
X0303485Y0565833D01*
X0301690Y0566632D02*
X0295767Y0566632D01*
X0287800Y0546669D02*
X0285516Y0546669D01*
X0285721Y0545870D02*
X0285295Y0545870D01*
X0239964Y0545625D02*
X0235716Y0560972D01*
X0234992Y0562371D01*
X0234057Y0563640D01*
X0232936Y0564746D01*
X0231655Y0565664D01*
X0230246Y0566370D01*
X0228744Y0566847D01*
X0227187Y0567083D01*
X0225611Y0567073D01*
X0224056Y0566817D01*
X0222561Y0566320D01*
X0221191Y0565541D01*
X0219961Y0564557D01*
X0218899Y0563393D01*
X0218032Y0562078D01*
X0217381Y0560642D01*
X0216964Y0559123D01*
X0216789Y0557557D01*
X0216861Y0555983D01*
X0217178Y0554440D01*
X0217733Y0552965D01*
X0226296Y0539540D01*
X0226687Y0540946D01*
X0227298Y0542272D01*
X0228112Y0543484D01*
X0229109Y0544550D01*
X0230263Y0545444D01*
X0231545Y0546143D01*
X0232921Y0546628D01*
X0234358Y0546888D01*
X0235817Y0546915D01*
X0237263Y0546709D01*
X0238657Y0546275D01*
X0239964Y0545625D01*
X0239895Y0545870D02*
X0239469Y0545870D01*
X0239674Y0546669D02*
X0237390Y0546669D01*
X0239454Y0547468D02*
X0221240Y0547468D01*
X0220730Y0548266D02*
X0239233Y0548266D01*
X0239012Y0549065D02*
X0220221Y0549065D01*
X0219712Y0549863D02*
X0238791Y0549863D01*
X0238570Y0550662D02*
X0219202Y0550662D01*
X0218693Y0551460D02*
X0238349Y0551460D01*
X0238128Y0552259D02*
X0218184Y0552259D01*
X0217698Y0553057D02*
X0237907Y0553057D01*
X0237686Y0553856D02*
X0217398Y0553856D01*
X0217134Y0554654D02*
X0237465Y0554654D01*
X0237244Y0555453D02*
X0216970Y0555453D01*
X0216848Y0556251D02*
X0237023Y0556251D01*
X0236802Y0557050D02*
X0216812Y0557050D01*
X0216821Y0557848D02*
X0236581Y0557848D01*
X0236360Y0558647D02*
X0216910Y0558647D01*
X0217052Y0559445D02*
X0236139Y0559445D01*
X0235918Y0560244D02*
X0217272Y0560244D01*
X0217563Y0561042D02*
X0235680Y0561042D01*
X0235266Y0561841D02*
X0217924Y0561841D01*
X0218402Y0562639D02*
X0234794Y0562639D01*
X0234206Y0563438D02*
X0218939Y0563438D01*
X0219667Y0564236D02*
X0233452Y0564236D01*
X0232533Y0565035D02*
X0220558Y0565035D01*
X0221705Y0565833D02*
X0231317Y0565833D01*
X0229423Y0566632D02*
X0223500Y0566632D01*
X0221749Y0546669D02*
X0233148Y0546669D01*
X0231045Y0545870D02*
X0222258Y0545870D01*
X0222768Y0545072D02*
X0229782Y0545072D01*
X0228850Y0544273D02*
X0223277Y0544273D01*
X0223786Y0543475D02*
X0228106Y0543475D01*
X0227569Y0542676D02*
X0224296Y0542676D01*
X0224805Y0541878D02*
X0227116Y0541878D01*
X0226749Y0541079D02*
X0225314Y0541079D01*
X0225823Y0540281D02*
X0226502Y0540281D01*
X0213763Y0530435D02*
X0203641Y0542728D01*
X0202410Y0543712D01*
X0201040Y0544490D01*
X0199565Y0545045D01*
X0198022Y0545363D01*
X0196448Y0545435D01*
X0194882Y0545260D01*
X0193363Y0544842D01*
X0191928Y0544192D01*
X0190612Y0543325D01*
X0189448Y0542263D01*
X0188513Y0540994D01*
X0187789Y0539595D01*
X0187292Y0538100D01*
X0187035Y0536545D01*
X0187025Y0534970D01*
X0187261Y0533412D01*
X0187738Y0531910D01*
X0188444Y0530502D01*
X0189362Y0529221D01*
X0190469Y0528099D01*
X0203753Y0519317D01*
X0203538Y0520761D01*
X0203556Y0522221D01*
X0203807Y0523659D01*
X0204284Y0525039D01*
X0204974Y0526325D01*
X0205861Y0527484D01*
X0206922Y0528488D01*
X0208129Y0529309D01*
X0209451Y0529927D01*
X0210855Y0530327D01*
X0212305Y0530498D01*
X0213763Y0530435D01*
X0213546Y0530699D02*
X0188346Y0530699D01*
X0187945Y0531497D02*
X0212889Y0531497D01*
X0212231Y0532296D02*
X0187616Y0532296D01*
X0187362Y0533094D02*
X0211574Y0533094D01*
X0210916Y0533893D02*
X0187188Y0533893D01*
X0187067Y0534691D02*
X0210259Y0534691D01*
X0209601Y0535490D02*
X0187029Y0535490D01*
X0187034Y0536288D02*
X0208944Y0536288D01*
X0208286Y0537087D02*
X0187125Y0537087D01*
X0187257Y0537885D02*
X0207628Y0537885D01*
X0206971Y0538684D02*
X0187486Y0538684D01*
X0187751Y0539482D02*
X0206313Y0539482D01*
X0205656Y0540281D02*
X0188144Y0540281D01*
X0188576Y0541079D02*
X0204998Y0541079D01*
X0204341Y0541878D02*
X0189164Y0541878D01*
X0189901Y0542676D02*
X0203683Y0542676D01*
X0202706Y0543475D02*
X0190839Y0543475D01*
X0192108Y0544273D02*
X0201421Y0544273D01*
X0199435Y0545072D02*
X0194199Y0545072D01*
X0188875Y0529900D02*
X0209393Y0529900D01*
X0207824Y0529102D02*
X0189480Y0529102D01*
X0190268Y0528303D02*
X0206727Y0528303D01*
X0205883Y0527505D02*
X0191368Y0527505D01*
X0192576Y0526706D02*
X0205266Y0526706D01*
X0204750Y0525908D02*
X0193784Y0525908D01*
X0194992Y0525109D02*
X0204322Y0525109D01*
X0204032Y0524311D02*
X0196200Y0524311D01*
X0197407Y0523512D02*
X0203781Y0523512D01*
X0203642Y0522714D02*
X0198615Y0522714D01*
X0199823Y0521915D02*
X0203552Y0521915D01*
X0203542Y0521117D02*
X0201031Y0521117D01*
X0202239Y0520318D02*
X0203604Y0520318D01*
X0203723Y0519520D02*
X0203447Y0519520D01*
X0196016Y0505904D02*
X0181769Y0513017D01*
X0180244Y0513415D01*
X0178676Y0513569D01*
X0177103Y0513477D01*
X0175564Y0513139D01*
X0174097Y0512564D01*
X0172738Y0511768D01*
X0171520Y0510768D01*
X0170473Y0509590D01*
X0169624Y0508263D01*
X0168992Y0506820D01*
X0168655Y0505281D01*
X0168562Y0503708D01*
X0168716Y0502140D01*
X0169114Y0500615D01*
X0169745Y0499172D01*
X0170595Y0497845D01*
X0171641Y0496667D01*
X0172859Y0495667D01*
X0174219Y0494870D01*
X0175686Y0494296D01*
X0191393Y0491676D01*
X0190610Y0492908D01*
X0190033Y0494249D01*
X0189677Y0495664D01*
X0189551Y0497119D01*
X0189659Y0498575D01*
X0189998Y0499995D01*
X0190558Y0501343D01*
X0191327Y0502584D01*
X0192283Y0503687D01*
X0193403Y0504623D01*
X0194658Y0505368D01*
X0196016Y0505904D01*
X0195935Y0505945D02*
X0168800Y0505945D01*
X0168647Y0505146D02*
X0194285Y0505146D01*
X0193075Y0504348D02*
X0168599Y0504348D01*
X0168577Y0503549D02*
X0192164Y0503549D01*
X0191472Y0502751D02*
X0168656Y0502751D01*
X0168765Y0501952D02*
X0190936Y0501952D01*
X0190480Y0501154D02*
X0168973Y0501154D01*
X0169228Y0500355D02*
X0190148Y0500355D01*
X0189893Y0499557D02*
X0169577Y0499557D01*
X0170010Y0498758D02*
X0189703Y0498758D01*
X0189614Y0497960D02*
X0170521Y0497960D01*
X0171202Y0497161D02*
X0189554Y0497161D01*
X0189616Y0496363D02*
X0172012Y0496363D01*
X0173035Y0495564D02*
X0189702Y0495564D01*
X0189903Y0494766D02*
X0174486Y0494766D01*
X0177656Y0493967D02*
X0190154Y0493967D01*
X0190497Y0493169D02*
X0182444Y0493169D01*
X0187231Y0492370D02*
X0190952Y0492370D01*
X0194336Y0506743D02*
X0168975Y0506743D01*
X0169308Y0507542D02*
X0192736Y0507542D01*
X0191137Y0508340D02*
X0169673Y0508340D01*
X0170184Y0509139D02*
X0189537Y0509139D01*
X0187938Y0509937D02*
X0170782Y0509937D01*
X0171491Y0510736D02*
X0186339Y0510736D01*
X0184739Y0511534D02*
X0172454Y0511534D01*
X0173702Y0512333D02*
X0183140Y0512333D01*
X0181332Y0513132D02*
X0175546Y0513132D01*
X0173860Y0476974D02*
X0189769Y0476271D01*
X0188746Y0475229D01*
X0187903Y0474037D01*
X0187261Y0472726D01*
X0186836Y0471330D01*
X0186638Y0469883D01*
X0186674Y0468424D01*
X0186943Y0466989D01*
X0187436Y0465615D01*
X0188142Y0464338D01*
X0189043Y0463189D01*
X0190116Y0462199D01*
X0191333Y0461392D01*
X0175918Y0457397D01*
X0174344Y0457325D01*
X0172778Y0457500D01*
X0171259Y0457918D01*
X0169823Y0458568D01*
X0168508Y0459435D01*
X0167344Y0460497D01*
X0166360Y0461728D01*
X0165581Y0463097D01*
X0165026Y0464572D01*
X0164709Y0466115D01*
X0164699Y0467691D01*
X0164935Y0469249D01*
X0165412Y0470750D01*
X0166118Y0472159D01*
X0167036Y0473440D01*
X0168143Y0474561D01*
X0169411Y0475496D01*
X0170810Y0476220D01*
X0172306Y0476717D01*
X0173860Y0476974D01*
X0171351Y0476400D02*
X0186847Y0476400D01*
X0188445Y0474803D02*
X0168471Y0474803D01*
X0167593Y0474004D02*
X0187887Y0474004D01*
X0187496Y0473206D02*
X0166868Y0473206D01*
X0166296Y0472407D02*
X0187164Y0472407D01*
X0186920Y0471609D02*
X0165842Y0471609D01*
X0165442Y0470810D02*
X0186765Y0470810D01*
X0186656Y0470012D02*
X0165177Y0470012D01*
X0164930Y0469213D02*
X0186655Y0469213D01*
X0186676Y0468415D02*
X0164808Y0468415D01*
X0164699Y0467616D02*
X0186825Y0467616D01*
X0187004Y0466818D02*
X0164704Y0466818D01*
X0164729Y0466019D02*
X0187291Y0466019D01*
X0187654Y0465221D02*
X0164893Y0465221D01*
X0165083Y0464422D02*
X0188096Y0464422D01*
X0188702Y0463624D02*
X0165383Y0463624D01*
X0165736Y0462825D02*
X0189437Y0462825D01*
X0190375Y0462027D02*
X0166190Y0462027D01*
X0166759Y0461228D02*
X0190700Y0461228D01*
X0187620Y0460430D02*
X0167417Y0460430D01*
X0168292Y0459631D02*
X0184539Y0459631D01*
X0181458Y0458833D02*
X0169422Y0458833D01*
X0171001Y0458034D02*
X0178377Y0458034D01*
X0184447Y0442064D02*
X0195311Y0442064D01*
X0195270Y0442397D02*
X0195449Y0440948D01*
X0195858Y0439546D01*
X0196484Y0438228D01*
X0197313Y0437026D01*
X0198322Y0435972D01*
X0199487Y0435092D01*
X0200777Y0434409D01*
X0202160Y0433940D01*
X0203600Y0433698D01*
X0191143Y0423779D01*
X0189734Y0423073D01*
X0188232Y0422596D01*
X0186674Y0422359D01*
X0185099Y0422370D01*
X0183544Y0422627D01*
X0182049Y0423123D01*
X0180650Y0423848D01*
X0179381Y0424782D01*
X0178274Y0425904D01*
X0177356Y0427184D01*
X0176706Y0428620D01*
X0176289Y0430139D01*
X0176114Y0431705D01*
X0176186Y0433279D01*
X0176503Y0434822D01*
X0177058Y0436297D01*
X0177837Y0437666D01*
X0178820Y0438898D01*
X0179984Y0439960D01*
X0181300Y0440826D01*
X0196119Y0446655D01*
X0195609Y0445287D01*
X0195323Y0443855D01*
X0195270Y0442397D01*
X0195287Y0442863D02*
X0186477Y0442863D01*
X0188507Y0443661D02*
X0195316Y0443661D01*
X0195444Y0444460D02*
X0190538Y0444460D01*
X0192568Y0445258D02*
X0195603Y0445258D01*
X0195896Y0446057D02*
X0194598Y0446057D01*
X0195410Y0441266D02*
X0182416Y0441266D01*
X0180754Y0440467D02*
X0195589Y0440467D01*
X0195822Y0439668D02*
X0179665Y0439668D01*
X0178798Y0438870D02*
X0196179Y0438870D01*
X0196592Y0438071D02*
X0178161Y0438071D01*
X0177613Y0437273D02*
X0197142Y0437273D01*
X0197841Y0436474D02*
X0177159Y0436474D01*
X0176825Y0435676D02*
X0198714Y0435676D01*
X0199892Y0434877D02*
X0176524Y0434877D01*
X0176350Y0434079D02*
X0201751Y0434079D01*
X0203075Y0433280D02*
X0176186Y0433280D01*
X0176149Y0432482D02*
X0202072Y0432482D01*
X0201069Y0431683D02*
X0176116Y0431683D01*
X0176205Y0430885D02*
X0200066Y0430885D01*
X0199064Y0430086D02*
X0176303Y0430086D01*
X0176523Y0429288D02*
X0198061Y0429288D01*
X0197058Y0428489D02*
X0176765Y0428489D01*
X0177127Y0427691D02*
X0196055Y0427691D01*
X0195053Y0426892D02*
X0177566Y0426892D01*
X0178138Y0426094D02*
X0194050Y0426094D01*
X0193047Y0425295D02*
X0178875Y0425295D01*
X0179769Y0424497D02*
X0192044Y0424497D01*
X0190982Y0423698D02*
X0180939Y0423698D01*
X0182722Y0422900D02*
X0189190Y0422900D01*
X0202797Y0410841D02*
X0213964Y0422193D01*
X0214054Y0420736D01*
X0214376Y0419312D01*
X0214920Y0417958D01*
X0215673Y0416707D01*
X0216616Y0415593D01*
X0217725Y0414643D01*
X0218971Y0413882D01*
X0220322Y0413330D01*
X0221744Y0413000D01*
X0223200Y0412901D01*
X0224654Y0413035D01*
X0226068Y0413400D01*
X0218722Y0399271D01*
X0217723Y0398053D01*
X0216545Y0397006D01*
X0215218Y0396157D01*
X0213774Y0395525D01*
X0212249Y0395128D01*
X0210681Y0394973D01*
X0209108Y0395066D01*
X0207569Y0395404D01*
X0206102Y0395978D01*
X0204743Y0396775D01*
X0203565Y0397821D01*
X0202565Y0399039D01*
X0201769Y0400399D01*
X0201195Y0401866D01*
X0200857Y0403405D01*
X0200764Y0404978D01*
X0200918Y0406546D01*
X0201316Y0408070D01*
X0201947Y0409514D01*
X0202797Y0410841D01*
X0202876Y0410922D02*
X0224780Y0410922D01*
X0225195Y0411721D02*
X0203662Y0411721D01*
X0204447Y0412519D02*
X0225610Y0412519D01*
X0225750Y0413318D02*
X0226025Y0413318D01*
X0224365Y0410124D02*
X0202337Y0410124D01*
X0201865Y0409325D02*
X0223949Y0409325D01*
X0223534Y0408527D02*
X0201515Y0408527D01*
X0201227Y0407728D02*
X0223119Y0407728D01*
X0222704Y0406930D02*
X0201018Y0406930D01*
X0200877Y0406131D02*
X0222289Y0406131D01*
X0221874Y0405332D02*
X0200799Y0405332D01*
X0200790Y0404534D02*
X0221459Y0404534D01*
X0221043Y0403735D02*
X0200837Y0403735D01*
X0200959Y0402937D02*
X0220628Y0402937D01*
X0220213Y0402138D02*
X0201135Y0402138D01*
X0201400Y0401340D02*
X0219798Y0401340D01*
X0219383Y0400541D02*
X0201713Y0400541D01*
X0202153Y0399743D02*
X0218968Y0399743D01*
X0218454Y0398944D02*
X0202643Y0398944D01*
X0203299Y0398146D02*
X0217799Y0398146D01*
X0216929Y0397347D02*
X0204098Y0397347D01*
X0205128Y0396549D02*
X0215830Y0396549D01*
X0214288Y0395750D02*
X0206684Y0395750D01*
X0205233Y0413318D02*
X0220374Y0413318D01*
X0218588Y0414116D02*
X0206018Y0414116D01*
X0206804Y0414915D02*
X0217408Y0414915D01*
X0216515Y0415713D02*
X0207589Y0415713D01*
X0208375Y0416512D02*
X0215839Y0416512D01*
X0215310Y0417310D02*
X0209161Y0417310D01*
X0209946Y0418109D02*
X0214859Y0418109D01*
X0214539Y0418907D02*
X0210732Y0418907D01*
X0211517Y0419706D02*
X0214287Y0419706D01*
X0214107Y0420504D02*
X0212303Y0420504D01*
X0213088Y0421303D02*
X0214019Y0421303D01*
X0213970Y0422101D02*
X0213874Y0422101D01*
X0189112Y0475601D02*
X0169615Y0475601D01*
X0133595Y0452378D02*
X0137595Y0431400D01*
X0133595Y0410422D01*
X0117514Y0419900D01*
X0118231Y0418424D01*
X0118730Y0416861D01*
X0119002Y0415243D01*
X0119041Y0413603D01*
X0118847Y0411974D01*
X0118422Y0410389D01*
X0117776Y0408880D01*
X0116922Y0407479D01*
X0115877Y0406214D01*
X0114663Y0405110D01*
X0113304Y0404191D01*
X0111829Y0403474D01*
X0110266Y0402974D01*
X0108648Y0402702D01*
X0107007Y0402663D01*
X0105378Y0402858D01*
X0103793Y0403282D01*
X0102285Y0403928D01*
X0100884Y0404782D01*
X0099619Y0405827D01*
X0098515Y0407041D01*
X0097595Y0408400D01*
X0097595Y0389444D01*
X0117595Y0396400D01*
X0133595Y0410422D01*
X0117514Y0419900D01*
X0119150Y0420017D01*
X0120754Y0420366D01*
X0122291Y0420939D01*
X0123731Y0421726D01*
X0125045Y0422709D01*
X0126205Y0423869D01*
X0127188Y0425183D01*
X0127975Y0426623D01*
X0128548Y0428160D01*
X0128897Y0429763D01*
X0129014Y0431400D01*
X0128897Y0433037D01*
X0128548Y0434640D01*
X0127975Y0436177D01*
X0127188Y0437617D01*
X0126205Y0438931D01*
X0125045Y0440091D01*
X0123731Y0441074D01*
X0122291Y0441861D01*
X0120754Y0442434D01*
X0119150Y0442783D01*
X0117514Y0442900D01*
X0133595Y0452378D01*
X0118845Y0466400D01*
X0097595Y0472106D01*
X0077595Y0466400D01*
X0061595Y0451128D01*
X0057595Y0431400D01*
X0061595Y0410422D01*
X0077595Y0396400D01*
X0097595Y0389444D01*
X0097595Y0408400D01*
X0096675Y0407041D01*
X0095572Y0405827D01*
X0094306Y0404782D01*
X0092905Y0403928D01*
X0091397Y0403282D01*
X0089812Y0402858D01*
X0088183Y0402663D01*
X0086543Y0402702D01*
X0084925Y0402974D01*
X0083362Y0403474D01*
X0081886Y0404191D01*
X0080527Y0405110D01*
X0079313Y0406214D01*
X0078268Y0407479D01*
X0077414Y0408880D01*
X0076768Y0410389D01*
X0076344Y0411974D01*
X0076149Y0413603D01*
X0076188Y0415243D01*
X0076460Y0416861D01*
X0076960Y0418424D01*
X0077677Y0419900D01*
X0061595Y0410422D01*
X0077677Y0419900D01*
X0076040Y0420017D01*
X0074437Y0420366D01*
X0072899Y0420939D01*
X0071459Y0421726D01*
X0070146Y0422709D01*
X0068985Y0423869D01*
X0068002Y0425183D01*
X0067216Y0426623D01*
X0066642Y0428160D01*
X0066294Y0429763D01*
X0066177Y0431400D01*
X0066294Y0433037D01*
X0066642Y0434640D01*
X0067216Y0436177D01*
X0068002Y0437617D01*
X0068985Y0438931D01*
X0070146Y0440091D01*
X0071459Y0441074D01*
X0072899Y0441861D01*
X0074437Y0442434D01*
X0076040Y0442783D01*
X0077677Y0442900D01*
X0061595Y0451128D01*
X0077677Y0442900D01*
X0076960Y0444376D01*
X0076460Y0445939D01*
X0076188Y0447557D01*
X0076149Y0449197D01*
X0076344Y0450826D01*
X0076768Y0452411D01*
X0077414Y0453920D01*
X0078268Y0455321D01*
X0079313Y0456586D01*
X0080527Y0457690D01*
X0081886Y0458609D01*
X0083362Y0459326D01*
X0084925Y0459826D01*
X0086543Y0460098D01*
X0088183Y0460137D01*
X0089812Y0459942D01*
X0091397Y0459518D01*
X0092905Y0458872D01*
X0094306Y0458018D01*
X0095572Y0456973D01*
X0096675Y0455759D01*
X0097595Y0454400D01*
X0097595Y0472106D01*
X0097595Y0454400D01*
X0098515Y0455759D01*
X0099619Y0456973D01*
X0100884Y0458018D01*
X0102285Y0458872D01*
X0103793Y0459518D01*
X0105378Y0459942D01*
X0107007Y0460137D01*
X0108648Y0460098D01*
X0110266Y0459826D01*
X0111829Y0459326D01*
X0113304Y0458609D01*
X0114663Y0457690D01*
X0115877Y0456586D01*
X0116922Y0455321D01*
X0117776Y0453920D01*
X0118422Y0452411D01*
X0118847Y0450826D01*
X0119041Y0449197D01*
X0119002Y0447557D01*
X0118730Y0445939D01*
X0118231Y0444376D01*
X0117514Y0442900D01*
X0133595Y0452378D01*
X0133525Y0452445D02*
X0118408Y0452445D01*
X0118829Y0452445D02*
X0120533Y0452445D01*
X0120648Y0452723D02*
X0120102Y0451403D01*
X0119361Y0450181D01*
X0119041Y0451834D01*
X0118489Y0453424D01*
X0117717Y0454920D01*
X0116740Y0456291D01*
X0115577Y0457509D01*
X0114254Y0458550D01*
X0112796Y0459392D01*
X0111233Y0460018D01*
X0109597Y0460415D01*
X0107921Y0460576D01*
X0106240Y0460497D01*
X0104586Y0460179D01*
X0102995Y0459630D01*
X0103682Y0460883D01*
X0104553Y0462016D01*
X0105586Y0463003D01*
X0106758Y0463820D01*
X0108042Y0464448D01*
X0109406Y0464873D01*
X0110819Y0465084D01*
X0112248Y0465076D01*
X0113659Y0464851D01*
X0115019Y0464412D01*
X0116296Y0463770D01*
X0117490Y0462985D01*
X0118550Y0462027D01*
X0119451Y0460918D01*
X0120172Y0459684D01*
X0120696Y0458355D01*
X0121010Y0456961D01*
X0121107Y0455535D01*
X0120986Y0454111D01*
X0120648Y0452723D01*
X0120775Y0453243D02*
X0118552Y0453243D01*
X0118066Y0453243D02*
X0132685Y0453243D01*
X0131845Y0454042D02*
X0117702Y0454042D01*
X0118170Y0454042D02*
X0120969Y0454042D01*
X0121048Y0454840D02*
X0117758Y0454840D01*
X0117215Y0454840D02*
X0131005Y0454840D01*
X0130165Y0455639D02*
X0116659Y0455639D01*
X0117205Y0455639D02*
X0121100Y0455639D01*
X0121046Y0456437D02*
X0116600Y0456437D01*
X0116000Y0456437D02*
X0129325Y0456437D01*
X0128485Y0457236D02*
X0115163Y0457236D01*
X0115839Y0457236D02*
X0120948Y0457236D01*
X0120768Y0458034D02*
X0114910Y0458034D01*
X0114154Y0458034D02*
X0127645Y0458034D01*
X0126805Y0458833D02*
X0112844Y0458833D01*
X0113764Y0458833D02*
X0120507Y0458833D01*
X0120193Y0459631D02*
X0112198Y0459631D01*
X0110874Y0459631D02*
X0125965Y0459631D01*
X0125125Y0460430D02*
X0097595Y0460430D01*
X0071340Y0460430D01*
X0070504Y0459631D02*
X0084316Y0459631D01*
X0083957Y0460057D02*
X0082394Y0459431D01*
X0080936Y0458589D01*
X0079613Y0457549D01*
X0078451Y0456331D01*
X0077474Y0454960D01*
X0076701Y0453464D01*
X0076150Y0451873D01*
X0075830Y0450220D01*
X0075088Y0451442D01*
X0074542Y0452762D01*
X0074204Y0454151D01*
X0074083Y0455575D01*
X0074180Y0457000D01*
X0074495Y0458394D01*
X0075019Y0459724D01*
X0075739Y0460957D01*
X0076640Y0462066D01*
X0077700Y0463025D01*
X0078894Y0463810D01*
X0080171Y0464451D01*
X0081531Y0464890D01*
X0082942Y0465116D01*
X0084371Y0465123D01*
X0085784Y0464912D01*
X0087149Y0464487D01*
X0088432Y0463859D01*
X0089604Y0463042D01*
X0090638Y0462055D01*
X0091508Y0460922D01*
X0092195Y0459669D01*
X0090604Y0460219D01*
X0088951Y0460536D01*
X0087269Y0460615D01*
X0085593Y0460454D01*
X0083957Y0460057D01*
X0082894Y0459631D02*
X0074982Y0459631D01*
X0074668Y0458833D02*
X0081358Y0458833D01*
X0081036Y0458034D02*
X0068831Y0458034D01*
X0069667Y0458833D02*
X0082346Y0458833D01*
X0080230Y0458034D02*
X0074414Y0458034D01*
X0074233Y0457236D02*
X0079314Y0457236D01*
X0080028Y0457236D02*
X0067994Y0457236D01*
X0067157Y0456437D02*
X0079190Y0456437D01*
X0078552Y0456437D02*
X0074142Y0456437D01*
X0074087Y0455639D02*
X0077957Y0455639D01*
X0078531Y0455639D02*
X0066321Y0455639D01*
X0065484Y0454840D02*
X0077975Y0454840D01*
X0077412Y0454840D02*
X0074145Y0454840D01*
X0074231Y0454042D02*
X0077000Y0454042D01*
X0077489Y0454042D02*
X0064648Y0454042D01*
X0063811Y0453243D02*
X0077125Y0453243D01*
X0076625Y0453243D02*
X0074425Y0453243D01*
X0074673Y0452445D02*
X0076348Y0452445D01*
X0076783Y0452445D02*
X0062975Y0452445D01*
X0062138Y0451646D02*
X0076563Y0451646D01*
X0076106Y0451646D02*
X0075004Y0451646D01*
X0075449Y0450848D02*
X0075951Y0450848D01*
X0076349Y0450848D02*
X0062143Y0450848D01*
X0061538Y0450848D01*
X0061376Y0450049D02*
X0063704Y0450049D01*
X0076251Y0450049D01*
X0076155Y0449251D02*
X0065264Y0449251D01*
X0061214Y0449251D01*
X0061053Y0448452D02*
X0066825Y0448452D01*
X0076167Y0448452D01*
X0076186Y0447654D02*
X0068386Y0447654D01*
X0060891Y0447654D01*
X0060729Y0446855D02*
X0069946Y0446855D01*
X0076306Y0446855D01*
X0076440Y0446057D02*
X0071507Y0446057D01*
X0060567Y0446057D01*
X0060405Y0445258D02*
X0073068Y0445258D01*
X0076678Y0445258D01*
X0076933Y0444460D02*
X0074628Y0444460D01*
X0060243Y0444460D01*
X0060081Y0443661D02*
X0076189Y0443661D01*
X0077307Y0443661D01*
X0077153Y0442863D02*
X0059919Y0442863D01*
X0059757Y0442064D02*
X0073444Y0442064D01*
X0071809Y0441266D02*
X0059595Y0441266D01*
X0059434Y0440467D02*
X0070648Y0440467D01*
X0070430Y0440849D02*
X0069158Y0439745D01*
X0068057Y0438472D01*
X0067147Y0437055D01*
X0066449Y0435524D01*
X0065975Y0433908D01*
X0065735Y0432242D01*
X0065735Y0430558D01*
X0065975Y0428892D01*
X0066449Y0427276D01*
X0067147Y0425745D01*
X0068057Y0424328D01*
X0069158Y0423055D01*
X0070430Y0421951D01*
X0069001Y0421920D01*
X0067585Y0422107D01*
X0066213Y0422509D01*
X0064920Y0423116D01*
X0063734Y0423913D01*
X0062684Y0424882D01*
X0061794Y0426000D01*
X0061086Y0427242D01*
X0060576Y0428576D01*
X0060276Y0429973D01*
X0060194Y0431400D01*
X0060276Y0432827D01*
X0060576Y0434224D01*
X0061086Y0435558D01*
X0061794Y0436800D01*
X0062684Y0437918D01*
X0063734Y0438887D01*
X0064920Y0439684D01*
X0066213Y0440291D01*
X0067585Y0440693D01*
X0069001Y0440880D01*
X0070430Y0440849D01*
X0069990Y0440467D02*
X0066814Y0440467D01*
X0064896Y0439668D02*
X0069092Y0439668D01*
X0069723Y0439668D02*
X0059272Y0439668D01*
X0059110Y0438870D02*
X0068940Y0438870D01*
X0068401Y0438870D02*
X0063715Y0438870D01*
X0062850Y0438071D02*
X0067800Y0438071D01*
X0068342Y0438071D02*
X0058948Y0438071D01*
X0058786Y0437273D02*
X0067814Y0437273D01*
X0067287Y0437273D02*
X0062171Y0437273D01*
X0061609Y0436474D02*
X0066882Y0436474D01*
X0067378Y0436474D02*
X0058624Y0436474D01*
X0058462Y0435676D02*
X0067029Y0435676D01*
X0066518Y0435676D02*
X0061153Y0435676D01*
X0060826Y0434877D02*
X0066259Y0434877D01*
X0066731Y0434877D02*
X0058300Y0434877D01*
X0058138Y0434079D02*
X0066520Y0434079D01*
X0066025Y0434079D02*
X0060545Y0434079D01*
X0060374Y0433280D02*
X0065885Y0433280D01*
X0066347Y0433280D02*
X0057976Y0433280D01*
X0057815Y0432482D02*
X0066254Y0432482D01*
X0065770Y0432482D02*
X0060256Y0432482D01*
X0060210Y0431683D02*
X0065735Y0431683D01*
X0066197Y0431683D02*
X0057653Y0431683D01*
X0057693Y0430885D02*
X0066213Y0430885D01*
X0065735Y0430885D02*
X0060223Y0430885D01*
X0060270Y0430086D02*
X0065803Y0430086D01*
X0066270Y0430086D02*
X0057846Y0430086D01*
X0057998Y0429288D02*
X0066397Y0429288D01*
X0065918Y0429288D02*
X0060424Y0429288D01*
X0060610Y0428489D02*
X0066093Y0428489D01*
X0066571Y0428489D02*
X0058150Y0428489D01*
X0058302Y0427691D02*
X0066817Y0427691D01*
X0066327Y0427691D02*
X0060915Y0427691D01*
X0061285Y0426892D02*
X0066624Y0426892D01*
X0067115Y0426892D02*
X0058455Y0426892D01*
X0058607Y0426094D02*
X0067505Y0426094D01*
X0066988Y0426094D02*
X0061741Y0426094D01*
X0062355Y0425295D02*
X0067436Y0425295D01*
X0067941Y0425295D02*
X0058759Y0425295D01*
X0058911Y0424497D02*
X0068516Y0424497D01*
X0067948Y0424497D02*
X0063101Y0424497D01*
X0064053Y0423698D02*
X0068602Y0423698D01*
X0069156Y0423698D02*
X0059064Y0423698D01*
X0059216Y0422900D02*
X0069955Y0422900D01*
X0069337Y0422900D02*
X0065380Y0422900D01*
X0067629Y0422101D02*
X0070257Y0422101D01*
X0070957Y0422101D02*
X0059368Y0422101D01*
X0059520Y0421303D02*
X0072234Y0421303D01*
X0074066Y0420504D02*
X0059673Y0420504D01*
X0059825Y0419706D02*
X0077347Y0419706D01*
X0077582Y0419706D01*
X0077194Y0418907D02*
X0075992Y0418907D01*
X0059977Y0418907D01*
X0060129Y0418109D02*
X0074637Y0418109D01*
X0076859Y0418109D01*
X0076604Y0417310D02*
X0073282Y0417310D01*
X0060282Y0417310D01*
X0060434Y0416512D02*
X0071927Y0416512D01*
X0071928Y0416512D02*
X0076401Y0416512D01*
X0076267Y0415713D02*
X0070573Y0415713D01*
X0060586Y0415713D01*
X0060738Y0414915D02*
X0069218Y0414915D01*
X0076180Y0414915D01*
X0076161Y0414116D02*
X0067863Y0414116D01*
X0060891Y0414116D01*
X0061043Y0413318D02*
X0066508Y0413318D01*
X0076183Y0413318D01*
X0076278Y0412519D02*
X0065153Y0412519D01*
X0061195Y0412519D01*
X0061348Y0411721D02*
X0063798Y0411721D01*
X0076411Y0411721D01*
X0075996Y0411721D02*
X0075308Y0411721D01*
X0075088Y0411358D02*
X0075830Y0412580D01*
X0076150Y0410927D01*
X0076701Y0409336D01*
X0077474Y0407840D01*
X0078451Y0406469D01*
X0079613Y0405251D01*
X0080936Y0404211D01*
X0082394Y0403369D01*
X0083957Y0402743D01*
X0085593Y0402346D01*
X0087269Y0402185D01*
X0088951Y0402264D01*
X0090604Y0402581D01*
X0092195Y0403131D01*
X0091508Y0401878D01*
X0090638Y0400745D01*
X0089604Y0399758D01*
X0088432Y0398941D01*
X0087149Y0398313D01*
X0085784Y0397888D01*
X0084371Y0397677D01*
X0082942Y0397684D01*
X0081531Y0397910D01*
X0080171Y0398349D01*
X0078894Y0398990D01*
X0077700Y0399775D01*
X0076640Y0400734D01*
X0075739Y0401843D01*
X0075019Y0403076D01*
X0074495Y0404406D01*
X0074180Y0405800D01*
X0074083Y0407225D01*
X0074204Y0408649D01*
X0074542Y0410038D01*
X0075088Y0411358D01*
X0074908Y0410922D02*
X0076151Y0410922D01*
X0076625Y0410922D02*
X0062444Y0410922D01*
X0061500Y0410922D01*
X0061936Y0410124D02*
X0076882Y0410124D01*
X0076428Y0410124D02*
X0074578Y0410124D01*
X0074369Y0409325D02*
X0076707Y0409325D01*
X0077224Y0409325D02*
X0062847Y0409325D01*
X0063758Y0408527D02*
X0077630Y0408527D01*
X0077119Y0408527D02*
X0074194Y0408527D01*
X0074126Y0407728D02*
X0077553Y0407728D01*
X0078117Y0407728D02*
X0064669Y0407728D01*
X0065580Y0406930D02*
X0078722Y0406930D01*
X0078123Y0406930D02*
X0074103Y0406930D01*
X0074158Y0406131D02*
X0078773Y0406131D01*
X0079404Y0406131D02*
X0066491Y0406131D01*
X0067403Y0405332D02*
X0080283Y0405332D01*
X0079535Y0405332D02*
X0074286Y0405332D01*
X0074466Y0404534D02*
X0080525Y0404534D01*
X0081379Y0404534D02*
X0068314Y0404534D01*
X0069225Y0403735D02*
X0082823Y0403735D01*
X0083473Y0402937D02*
X0075100Y0402937D01*
X0074759Y0403735D02*
X0081759Y0403735D01*
X0085146Y0402937D02*
X0070136Y0402937D01*
X0071047Y0402138D02*
X0097595Y0402138D01*
X0124143Y0402138D01*
X0123232Y0401340D02*
X0097595Y0401340D01*
X0071958Y0401340D01*
X0072870Y0400541D02*
X0097595Y0400541D01*
X0122321Y0400541D01*
X0121410Y0399743D02*
X0097595Y0399743D01*
X0073781Y0399743D01*
X0074692Y0398944D02*
X0097595Y0398944D01*
X0120498Y0398944D01*
X0119587Y0398146D02*
X0097595Y0398146D01*
X0075603Y0398146D01*
X0076514Y0397347D02*
X0097595Y0397347D01*
X0118676Y0397347D01*
X0117765Y0396549D02*
X0097595Y0396549D01*
X0077425Y0396549D01*
X0079463Y0395750D02*
X0097595Y0395750D01*
X0115727Y0395750D01*
X0113431Y0394952D02*
X0097595Y0394952D01*
X0081759Y0394952D01*
X0084055Y0394153D02*
X0097595Y0394153D01*
X0111135Y0394153D01*
X0108840Y0393355D02*
X0097595Y0393355D01*
X0086351Y0393355D01*
X0088647Y0392556D02*
X0097595Y0392556D01*
X0106544Y0392556D01*
X0104248Y0391758D02*
X0097595Y0391758D01*
X0090942Y0391758D01*
X0093238Y0390959D02*
X0097595Y0390959D01*
X0101952Y0390959D01*
X0099656Y0390161D02*
X0097595Y0390161D01*
X0095534Y0390161D01*
X0090425Y0400541D02*
X0076853Y0400541D01*
X0076148Y0401340D02*
X0091095Y0401340D01*
X0091651Y0402138D02*
X0075567Y0402138D01*
X0077750Y0399743D02*
X0089582Y0399743D01*
X0088437Y0398944D02*
X0078986Y0398944D01*
X0080800Y0398146D02*
X0086613Y0398146D01*
X0090108Y0402937D02*
X0097595Y0402937D01*
X0105083Y0402937D01*
X0104586Y0402581D02*
X0106240Y0402264D01*
X0107921Y0402185D01*
X0109597Y0402346D01*
X0111233Y0402743D01*
X0112796Y0403369D01*
X0114254Y0404211D01*
X0115577Y0405251D01*
X0116740Y0406469D01*
X0117717Y0407840D01*
X0118489Y0409336D01*
X0119041Y0410927D01*
X0119361Y0412580D01*
X0120102Y0411358D01*
X0120648Y0410038D01*
X0120986Y0408649D01*
X0121107Y0407225D01*
X0121010Y0405800D01*
X0120696Y0404406D01*
X0120172Y0403076D01*
X0119451Y0401843D01*
X0118550Y0400734D01*
X0117490Y0399775D01*
X0116296Y0398990D01*
X0115019Y0398349D01*
X0113659Y0397910D01*
X0112248Y0397684D01*
X0110819Y0397677D01*
X0109406Y0397888D01*
X0108042Y0398313D01*
X0106758Y0398941D01*
X0105586Y0399758D01*
X0104553Y0400745D01*
X0103682Y0401878D01*
X0102995Y0403131D01*
X0104586Y0402581D01*
X0103556Y0402937D02*
X0103101Y0402937D01*
X0102735Y0403735D02*
X0097595Y0403735D01*
X0092455Y0403735D01*
X0092089Y0402937D02*
X0091634Y0402937D01*
X0093899Y0404534D02*
X0097595Y0404534D01*
X0101291Y0404534D01*
X0100218Y0405332D02*
X0097595Y0405332D01*
X0094973Y0405332D01*
X0095848Y0406131D02*
X0097595Y0406131D01*
X0099342Y0406131D01*
X0098616Y0406930D02*
X0097595Y0406930D01*
X0096574Y0406930D01*
X0097140Y0407728D02*
X0097595Y0407728D01*
X0098050Y0407728D01*
X0103539Y0402138D02*
X0119624Y0402138D01*
X0120090Y0402937D02*
X0111718Y0402937D01*
X0112367Y0403735D02*
X0125965Y0403735D01*
X0125054Y0402937D02*
X0110044Y0402937D01*
X0113431Y0403735D02*
X0120431Y0403735D01*
X0120724Y0404534D02*
X0114665Y0404534D01*
X0114908Y0405332D02*
X0127788Y0405332D01*
X0126877Y0404534D02*
X0113812Y0404534D01*
X0115655Y0405332D02*
X0120905Y0405332D01*
X0121033Y0406131D02*
X0116417Y0406131D01*
X0115786Y0406131D02*
X0128699Y0406131D01*
X0129610Y0406930D02*
X0116468Y0406930D01*
X0117068Y0406930D02*
X0121087Y0406930D01*
X0121065Y0407728D02*
X0117637Y0407728D01*
X0117074Y0407728D02*
X0130521Y0407728D01*
X0131432Y0408527D02*
X0117560Y0408527D01*
X0118071Y0408527D02*
X0120996Y0408527D01*
X0120822Y0409325D02*
X0118483Y0409325D01*
X0117966Y0409325D02*
X0132343Y0409325D01*
X0133255Y0410124D02*
X0118308Y0410124D01*
X0118762Y0410124D02*
X0120613Y0410124D01*
X0120283Y0410922D02*
X0119039Y0410922D01*
X0118565Y0410922D02*
X0132747Y0410922D01*
X0133690Y0410922D01*
X0133843Y0411721D02*
X0131392Y0411721D01*
X0118779Y0411721D01*
X0119194Y0411721D02*
X0119882Y0411721D01*
X0119397Y0412519D02*
X0119349Y0412519D01*
X0118912Y0412519D02*
X0130037Y0412519D01*
X0133995Y0412519D01*
X0134147Y0413318D02*
X0128682Y0413318D01*
X0119007Y0413318D01*
X0119029Y0414116D02*
X0127327Y0414116D01*
X0134300Y0414116D01*
X0134452Y0414915D02*
X0125972Y0414915D01*
X0119010Y0414915D01*
X0118923Y0415713D02*
X0124618Y0415713D01*
X0134604Y0415713D01*
X0134756Y0416512D02*
X0123263Y0416512D01*
X0118789Y0416512D01*
X0118587Y0417310D02*
X0121908Y0417310D01*
X0134909Y0417310D01*
X0135061Y0418109D02*
X0120553Y0418109D01*
X0118332Y0418109D01*
X0117996Y0418907D02*
X0119198Y0418907D01*
X0135213Y0418907D01*
X0135365Y0419706D02*
X0117843Y0419706D01*
X0117608Y0419706D01*
X0121125Y0420504D02*
X0135518Y0420504D01*
X0135670Y0421303D02*
X0122957Y0421303D01*
X0124233Y0422101D02*
X0135822Y0422101D01*
X0135974Y0422900D02*
X0125235Y0422900D01*
X0125853Y0422900D02*
X0129811Y0422900D01*
X0130271Y0423116D02*
X0128977Y0422509D01*
X0127606Y0422107D01*
X0126189Y0421920D01*
X0124760Y0421951D01*
X0126032Y0423055D01*
X0127134Y0424328D01*
X0128043Y0425745D01*
X0128742Y0427276D01*
X0129216Y0428892D01*
X0129455Y0430558D01*
X0129455Y0432242D01*
X0129216Y0433908D01*
X0128742Y0435524D01*
X0128043Y0437055D01*
X0127134Y0438472D01*
X0126032Y0439745D01*
X0124760Y0440849D01*
X0126189Y0440880D01*
X0127606Y0440693D01*
X0128977Y0440291D01*
X0130271Y0439684D01*
X0131457Y0438887D01*
X0132507Y0437918D01*
X0133396Y0436800D01*
X0134104Y0435558D01*
X0134614Y0434224D01*
X0134914Y0432827D01*
X0134997Y0431400D01*
X0134914Y0429973D01*
X0134614Y0428576D01*
X0134104Y0427242D01*
X0133396Y0426000D01*
X0132507Y0424882D01*
X0131457Y0423913D01*
X0130271Y0423116D01*
X0131137Y0423698D02*
X0126589Y0423698D01*
X0126034Y0423698D02*
X0136127Y0423698D01*
X0136279Y0424497D02*
X0126675Y0424497D01*
X0127242Y0424497D02*
X0132089Y0424497D01*
X0132835Y0425295D02*
X0127754Y0425295D01*
X0127250Y0425295D02*
X0136431Y0425295D01*
X0136583Y0426094D02*
X0127686Y0426094D01*
X0128202Y0426094D02*
X0133449Y0426094D01*
X0133905Y0426892D02*
X0128566Y0426892D01*
X0128075Y0426892D02*
X0136736Y0426892D01*
X0136888Y0427691D02*
X0128373Y0427691D01*
X0128863Y0427691D02*
X0134276Y0427691D01*
X0134581Y0428489D02*
X0129097Y0428489D01*
X0128620Y0428489D02*
X0137040Y0428489D01*
X0137192Y0429288D02*
X0128793Y0429288D01*
X0129272Y0429288D02*
X0134767Y0429288D01*
X0134920Y0430086D02*
X0129387Y0430086D01*
X0128920Y0430086D02*
X0137345Y0430086D01*
X0137497Y0430885D02*
X0128977Y0430885D01*
X0129455Y0430885D02*
X0134967Y0430885D01*
X0134980Y0431683D02*
X0129455Y0431683D01*
X0128993Y0431683D02*
X0137541Y0431683D01*
X0137389Y0432482D02*
X0128936Y0432482D01*
X0129420Y0432482D02*
X0134934Y0432482D01*
X0134816Y0433280D02*
X0129306Y0433280D01*
X0128844Y0433280D02*
X0137237Y0433280D01*
X0137084Y0434079D02*
X0128670Y0434079D01*
X0129165Y0434079D02*
X0134645Y0434079D01*
X0134364Y0434877D02*
X0128931Y0434877D01*
X0128459Y0434877D02*
X0136932Y0434877D01*
X0136780Y0435676D02*
X0128161Y0435676D01*
X0128672Y0435676D02*
X0134037Y0435676D01*
X0133581Y0436474D02*
X0128308Y0436474D01*
X0127812Y0436474D02*
X0136628Y0436474D01*
X0136475Y0437273D02*
X0127376Y0437273D01*
X0127903Y0437273D02*
X0133020Y0437273D01*
X0132340Y0438071D02*
X0127391Y0438071D01*
X0126848Y0438071D02*
X0136323Y0438071D01*
X0136171Y0438870D02*
X0126250Y0438870D01*
X0126789Y0438870D02*
X0131475Y0438870D01*
X0130295Y0439668D02*
X0126098Y0439668D01*
X0125467Y0439668D02*
X0136019Y0439668D01*
X0135866Y0440467D02*
X0124543Y0440467D01*
X0125200Y0440467D02*
X0128377Y0440467D01*
X0123381Y0441266D02*
X0135714Y0441266D01*
X0135562Y0442064D02*
X0121746Y0442064D01*
X0120160Y0444460D02*
X0118257Y0444460D01*
X0118513Y0445258D02*
X0121515Y0445258D01*
X0134953Y0445258D01*
X0135105Y0444460D02*
X0120160Y0444460D01*
X0118805Y0443661D02*
X0135257Y0443661D01*
X0135410Y0442863D02*
X0118038Y0442863D01*
X0117883Y0443661D02*
X0118805Y0443661D01*
X0118750Y0446057D02*
X0122870Y0446057D01*
X0134800Y0446057D01*
X0134648Y0446855D02*
X0124224Y0446855D01*
X0118884Y0446855D01*
X0119005Y0447654D02*
X0125579Y0447654D01*
X0134496Y0447654D01*
X0134344Y0448452D02*
X0126934Y0448452D01*
X0119024Y0448452D01*
X0119035Y0449251D02*
X0128289Y0449251D01*
X0134191Y0449251D01*
X0134039Y0450049D02*
X0129644Y0450049D01*
X0118940Y0450049D01*
X0118841Y0450848D02*
X0130999Y0450848D01*
X0133887Y0450848D01*
X0133735Y0451646D02*
X0132353Y0451646D01*
X0118627Y0451646D01*
X0119077Y0451646D02*
X0120203Y0451646D01*
X0119765Y0450848D02*
X0119232Y0450848D01*
X0119736Y0460430D02*
X0109444Y0460430D01*
X0105891Y0460430D02*
X0103434Y0460430D01*
X0102999Y0459631D02*
X0102996Y0459631D01*
X0102221Y0458833D02*
X0097595Y0458833D01*
X0092969Y0458833D01*
X0094279Y0458034D02*
X0097595Y0458034D01*
X0100911Y0458034D01*
X0099937Y0457236D02*
X0097595Y0457236D01*
X0095253Y0457236D01*
X0096059Y0456437D02*
X0097595Y0456437D01*
X0099132Y0456437D01*
X0098434Y0455639D02*
X0097595Y0455639D01*
X0096757Y0455639D01*
X0097297Y0454840D02*
X0097595Y0454840D01*
X0097893Y0454840D01*
X0097595Y0459631D02*
X0090973Y0459631D01*
X0091778Y0460430D02*
X0089504Y0460430D01*
X0091273Y0461228D02*
X0075959Y0461228D01*
X0075431Y0460430D02*
X0085492Y0460430D01*
X0087281Y0464422D02*
X0080114Y0464422D01*
X0078612Y0463624D02*
X0088769Y0463624D01*
X0089831Y0462825D02*
X0077480Y0462825D01*
X0076608Y0462027D02*
X0090660Y0462027D01*
X0097595Y0462027D02*
X0073013Y0462027D01*
X0072177Y0461228D02*
X0097595Y0461228D01*
X0124285Y0461228D01*
X0123445Y0462027D02*
X0097595Y0462027D01*
X0097595Y0462825D02*
X0073850Y0462825D01*
X0074687Y0463624D02*
X0097595Y0463624D01*
X0121765Y0463624D01*
X0120925Y0464422D02*
X0097595Y0464422D01*
X0075523Y0464422D01*
X0076360Y0465221D02*
X0097595Y0465221D01*
X0120086Y0465221D01*
X0119246Y0466019D02*
X0097595Y0466019D01*
X0077196Y0466019D01*
X0079060Y0466818D02*
X0097595Y0466818D01*
X0117289Y0466818D01*
X0114315Y0467616D02*
X0097595Y0467616D01*
X0081859Y0467616D01*
X0084657Y0468415D02*
X0097595Y0468415D01*
X0111341Y0468415D01*
X0108368Y0469213D02*
X0097595Y0469213D01*
X0087456Y0469213D01*
X0090255Y0470012D02*
X0097595Y0470012D01*
X0105394Y0470012D01*
X0102420Y0470810D02*
X0097595Y0470810D01*
X0093054Y0470810D01*
X0095853Y0471609D02*
X0097595Y0471609D01*
X0099446Y0471609D01*
X0097595Y0462825D02*
X0122605Y0462825D01*
X0119199Y0461228D02*
X0103947Y0461228D01*
X0104564Y0462027D02*
X0118550Y0462027D01*
X0117667Y0462825D02*
X0105400Y0462825D01*
X0106477Y0463624D02*
X0116519Y0463624D01*
X0114987Y0464422D02*
X0107989Y0464422D01*
X0104218Y0459631D02*
X0097595Y0459631D01*
X0097595Y0489444D02*
X0117595Y0496400D01*
X0133595Y0510422D01*
X0117514Y0519900D01*
X0118231Y0518424D01*
X0118730Y0516861D01*
X0119002Y0515243D01*
X0119041Y0513603D01*
X0118847Y0511974D01*
X0118422Y0510389D01*
X0117776Y0508880D01*
X0116922Y0507479D01*
X0115877Y0506214D01*
X0114663Y0505110D01*
X0113304Y0504191D01*
X0111829Y0503474D01*
X0110266Y0502974D01*
X0108648Y0502702D01*
X0107007Y0502663D01*
X0105378Y0502858D01*
X0103793Y0503282D01*
X0102285Y0503928D01*
X0100884Y0504782D01*
X0099619Y0505827D01*
X0098515Y0507041D01*
X0097595Y0508400D01*
X0097595Y0489444D01*
X0097595Y0508400D01*
X0096675Y0507041D01*
X0095572Y0505827D01*
X0094306Y0504782D01*
X0092905Y0503928D01*
X0091397Y0503282D01*
X0089812Y0502858D01*
X0088183Y0502663D01*
X0086543Y0502702D01*
X0084925Y0502974D01*
X0083362Y0503474D01*
X0081886Y0504191D01*
X0080527Y0505110D01*
X0079313Y0506214D01*
X0078268Y0507479D01*
X0077414Y0508880D01*
X0076768Y0510389D01*
X0076344Y0511974D01*
X0076149Y0513603D01*
X0076188Y0515243D01*
X0076460Y0516861D01*
X0076960Y0518424D01*
X0077677Y0519900D01*
X0061595Y0510422D01*
X0077595Y0496400D01*
X0097595Y0489444D01*
X0097595Y0489975D02*
X0099121Y0489975D01*
X0097595Y0489975D02*
X0096069Y0489975D01*
X0097595Y0490773D02*
X0101417Y0490773D01*
X0103713Y0491572D02*
X0097595Y0491572D01*
X0091477Y0491572D01*
X0089182Y0492370D02*
X0097595Y0492370D01*
X0106009Y0492370D01*
X0108305Y0493169D02*
X0097595Y0493169D01*
X0086886Y0493169D01*
X0084590Y0493967D02*
X0097595Y0493967D01*
X0110600Y0493967D01*
X0112896Y0494766D02*
X0097595Y0494766D01*
X0082294Y0494766D01*
X0079998Y0495564D02*
X0097595Y0495564D01*
X0115192Y0495564D01*
X0113895Y0497520D02*
X0112484Y0497294D01*
X0111056Y0497287D01*
X0109642Y0497498D01*
X0108278Y0497922D01*
X0106995Y0498551D01*
X0105822Y0499368D01*
X0104789Y0500355D01*
X0103918Y0501488D01*
X0103231Y0502741D01*
X0104823Y0502191D01*
X0106476Y0501874D01*
X0108158Y0501795D01*
X0109833Y0501955D01*
X0111469Y0502353D01*
X0113032Y0502979D01*
X0114490Y0503820D01*
X0115814Y0504861D01*
X0116976Y0506079D01*
X0117953Y0507450D01*
X0118725Y0508946D01*
X0119277Y0510536D01*
X0119597Y0512189D01*
X0120338Y0510968D01*
X0120884Y0509647D01*
X0121222Y0508259D01*
X0121344Y0506835D01*
X0121246Y0505410D01*
X0120932Y0504016D01*
X0120408Y0502686D01*
X0119687Y0501452D01*
X0118786Y0500343D01*
X0117726Y0499385D01*
X0116532Y0498600D01*
X0115255Y0497959D01*
X0113895Y0497520D01*
X0115258Y0497960D02*
X0108202Y0497960D01*
X0106697Y0498758D02*
X0116773Y0498758D01*
X0117916Y0499557D02*
X0105624Y0499557D01*
X0104788Y0500355D02*
X0118796Y0500355D01*
X0119445Y0501154D02*
X0104175Y0501154D01*
X0103663Y0501952D02*
X0106066Y0501952D01*
X0106272Y0502751D02*
X0097595Y0502751D01*
X0088918Y0502751D01*
X0089124Y0501952D02*
X0091527Y0501952D01*
X0091272Y0501488D02*
X0090401Y0500355D01*
X0089368Y0499368D01*
X0088196Y0498551D01*
X0086912Y0497922D01*
X0085548Y0497498D01*
X0084135Y0497287D01*
X0082706Y0497294D01*
X0081295Y0497520D01*
X0079935Y0497959D01*
X0078658Y0498600D01*
X0077464Y0499385D01*
X0076404Y0500343D01*
X0075503Y0501452D01*
X0074782Y0502686D01*
X0074259Y0504016D01*
X0073944Y0505410D01*
X0073847Y0506835D01*
X0073968Y0508259D01*
X0074306Y0509647D01*
X0074852Y0510968D01*
X0075593Y0512189D01*
X0075913Y0510536D01*
X0076465Y0508946D01*
X0077237Y0507450D01*
X0078214Y0506079D01*
X0079377Y0504861D01*
X0080700Y0503820D01*
X0082158Y0502979D01*
X0083721Y0502353D01*
X0085357Y0501955D01*
X0087033Y0501795D01*
X0088714Y0501874D01*
X0090368Y0502191D01*
X0091959Y0502741D01*
X0091272Y0501488D01*
X0091016Y0501154D02*
X0075746Y0501154D01*
X0075211Y0501952D02*
X0085388Y0501952D01*
X0086252Y0502751D02*
X0070348Y0502751D01*
X0069437Y0503549D02*
X0083206Y0503549D01*
X0082727Y0502751D02*
X0074757Y0502751D01*
X0074442Y0503549D02*
X0081169Y0503549D01*
X0081654Y0504348D02*
X0068526Y0504348D01*
X0067615Y0505146D02*
X0080487Y0505146D01*
X0080029Y0504348D02*
X0074184Y0504348D01*
X0074004Y0505146D02*
X0079104Y0505146D01*
X0079609Y0505945D02*
X0066704Y0505945D01*
X0065793Y0506743D02*
X0078876Y0506743D01*
X0078342Y0505945D02*
X0073908Y0505945D01*
X0073853Y0506743D02*
X0077741Y0506743D01*
X0078230Y0507542D02*
X0064881Y0507542D01*
X0063970Y0508340D02*
X0077743Y0508340D01*
X0077303Y0509139D02*
X0063059Y0509139D01*
X0062148Y0509937D02*
X0076962Y0509937D01*
X0076121Y0509937D02*
X0074426Y0509937D01*
X0074182Y0509139D02*
X0076398Y0509139D01*
X0076778Y0508340D02*
X0073988Y0508340D01*
X0073907Y0507542D02*
X0077190Y0507542D01*
X0076675Y0510736D02*
X0062128Y0510736D01*
X0061535Y0510736D01*
X0061595Y0510422D02*
X0077677Y0519900D01*
X0076040Y0520017D01*
X0074437Y0520366D01*
X0072899Y0520939D01*
X0071459Y0521726D01*
X0070146Y0522709D01*
X0068985Y0523869D01*
X0068002Y0525183D01*
X0067216Y0526623D01*
X0066642Y0528160D01*
X0066294Y0529763D01*
X0066177Y0531400D01*
X0066294Y0533037D01*
X0066642Y0534640D01*
X0067216Y0536177D01*
X0068002Y0537617D01*
X0068985Y0538931D01*
X0070146Y0540091D01*
X0071459Y0541074D01*
X0072899Y0541861D01*
X0074437Y0542434D01*
X0076040Y0542783D01*
X0077677Y0542900D01*
X0061595Y0551128D01*
X0057595Y0531400D01*
X0061595Y0510422D01*
X0061383Y0511534D02*
X0063483Y0511534D01*
X0076461Y0511534D01*
X0075720Y0511534D02*
X0075196Y0511534D01*
X0074756Y0510736D02*
X0075875Y0510736D01*
X0076301Y0512333D02*
X0064838Y0512333D01*
X0061231Y0512333D01*
X0061078Y0513132D02*
X0066192Y0513132D01*
X0076205Y0513132D01*
X0076157Y0513930D02*
X0067547Y0513930D01*
X0060926Y0513930D01*
X0060774Y0514729D02*
X0068902Y0514729D01*
X0076176Y0514729D01*
X0076236Y0515527D02*
X0070257Y0515527D01*
X0060622Y0515527D01*
X0060469Y0516326D02*
X0071612Y0516326D01*
X0076370Y0516326D01*
X0076544Y0517124D02*
X0072967Y0517124D01*
X0060317Y0517124D01*
X0060165Y0517923D02*
X0074321Y0517923D01*
X0076799Y0517923D01*
X0077104Y0518721D02*
X0075676Y0518721D01*
X0060013Y0518721D01*
X0059860Y0519520D02*
X0077031Y0519520D01*
X0077492Y0519520D01*
X0074656Y0520318D02*
X0059708Y0520318D01*
X0059556Y0521117D02*
X0072574Y0521117D01*
X0071206Y0521915D02*
X0059404Y0521915D01*
X0059251Y0522714D02*
X0070141Y0522714D01*
X0069957Y0521951D02*
X0068686Y0523055D01*
X0067584Y0524328D01*
X0066675Y0525745D01*
X0065976Y0527276D01*
X0065502Y0528892D01*
X0065263Y0530558D01*
X0065263Y0532242D01*
X0065502Y0533908D01*
X0065976Y0535524D01*
X0066675Y0537055D01*
X0067584Y0538472D01*
X0068686Y0539745D01*
X0069957Y0540849D01*
X0068529Y0540880D01*
X0067112Y0540693D01*
X0065741Y0540291D01*
X0064447Y0539684D01*
X0063261Y0538887D01*
X0062211Y0537918D01*
X0061322Y0536800D01*
X0060614Y0535558D01*
X0060104Y0534224D01*
X0059804Y0532827D01*
X0059721Y0531400D01*
X0059804Y0529973D01*
X0060104Y0528576D01*
X0060614Y0527242D01*
X0061322Y0526000D01*
X0062211Y0524882D01*
X0063261Y0523913D01*
X0064447Y0523116D01*
X0065741Y0522509D01*
X0067112Y0522107D01*
X0068529Y0521920D01*
X0069957Y0521951D01*
X0069079Y0522714D02*
X0065304Y0522714D01*
X0063857Y0523512D02*
X0068290Y0523512D01*
X0068655Y0524311D02*
X0058947Y0524311D01*
X0058795Y0525109D02*
X0068057Y0525109D01*
X0067606Y0525908D02*
X0058642Y0525908D01*
X0058490Y0526706D02*
X0067185Y0526706D01*
X0066887Y0527505D02*
X0058338Y0527505D01*
X0058186Y0528303D02*
X0066611Y0528303D01*
X0066438Y0529102D02*
X0058033Y0529102D01*
X0057881Y0529900D02*
X0066284Y0529900D01*
X0066227Y0530699D02*
X0057729Y0530699D01*
X0057615Y0531497D02*
X0066183Y0531497D01*
X0066241Y0532296D02*
X0057777Y0532296D01*
X0057939Y0533094D02*
X0066306Y0533094D01*
X0066480Y0533893D02*
X0058101Y0533893D01*
X0058262Y0534691D02*
X0066662Y0534691D01*
X0066959Y0535490D02*
X0058424Y0535490D01*
X0058586Y0536288D02*
X0067276Y0536288D01*
X0067712Y0537087D02*
X0058748Y0537087D01*
X0058910Y0537885D02*
X0068203Y0537885D01*
X0067768Y0538684D02*
X0063041Y0538684D01*
X0062185Y0537885D02*
X0067208Y0537885D01*
X0066695Y0537087D02*
X0061550Y0537087D01*
X0061030Y0536288D02*
X0066325Y0536288D01*
X0065966Y0535490D02*
X0060588Y0535490D01*
X0060283Y0534691D02*
X0065732Y0534691D01*
X0065500Y0533893D02*
X0060033Y0533893D01*
X0059861Y0533094D02*
X0065385Y0533094D01*
X0065271Y0532296D02*
X0059773Y0532296D01*
X0059727Y0531497D02*
X0065263Y0531497D01*
X0065263Y0530699D02*
X0059762Y0530699D01*
X0059820Y0529900D02*
X0065357Y0529900D01*
X0065472Y0529102D02*
X0059991Y0529102D01*
X0060208Y0528303D02*
X0065675Y0528303D01*
X0065909Y0527505D02*
X0060513Y0527505D01*
X0060919Y0526706D02*
X0066236Y0526706D01*
X0066601Y0525908D02*
X0061396Y0525908D01*
X0062031Y0525109D02*
X0067083Y0525109D01*
X0067599Y0524311D02*
X0062830Y0524311D01*
X0059099Y0523512D02*
X0069342Y0523512D01*
X0068801Y0538684D02*
X0059072Y0538684D01*
X0059234Y0539482D02*
X0069537Y0539482D01*
X0069303Y0540281D02*
X0065719Y0540281D01*
X0064147Y0539482D02*
X0068458Y0539482D01*
X0070399Y0540281D02*
X0059396Y0540281D01*
X0059558Y0541079D02*
X0071468Y0541079D01*
X0072945Y0541878D02*
X0059720Y0541878D01*
X0059882Y0542676D02*
X0075550Y0542676D01*
X0076553Y0543475D02*
X0077397Y0543475D01*
X0077677Y0542900D02*
X0076960Y0544376D01*
X0076460Y0545939D01*
X0076188Y0547557D01*
X0076149Y0549197D01*
X0076344Y0550826D01*
X0076768Y0552411D01*
X0077414Y0553920D01*
X0078268Y0555321D01*
X0079313Y0556586D01*
X0080527Y0557690D01*
X0081886Y0558609D01*
X0083362Y0559326D01*
X0084925Y0559826D01*
X0086543Y0560098D01*
X0088183Y0560137D01*
X0089812Y0559942D01*
X0091397Y0559518D01*
X0092905Y0558872D01*
X0094306Y0558018D01*
X0095572Y0556973D01*
X0096675Y0555759D01*
X0097595Y0554400D01*
X0097595Y0572106D01*
X0077595Y0566400D01*
X0061595Y0551128D01*
X0077677Y0542900D01*
X0076553Y0543475D02*
X0060043Y0543475D01*
X0060205Y0544273D02*
X0074992Y0544273D01*
X0077009Y0544273D01*
X0076737Y0545072D02*
X0073431Y0545072D01*
X0060367Y0545072D01*
X0060529Y0545870D02*
X0071871Y0545870D01*
X0076482Y0545870D01*
X0076337Y0546669D02*
X0070310Y0546669D01*
X0060691Y0546669D01*
X0060853Y0547468D02*
X0068749Y0547468D01*
X0076203Y0547468D01*
X0076171Y0548266D02*
X0067189Y0548266D01*
X0061015Y0548266D01*
X0061177Y0549065D02*
X0065628Y0549065D01*
X0076152Y0549065D01*
X0076228Y0549863D02*
X0064067Y0549863D01*
X0061339Y0549863D01*
X0061501Y0550662D02*
X0062507Y0550662D01*
X0076324Y0550662D01*
X0075603Y0550662D02*
X0075562Y0550662D01*
X0075593Y0550611D02*
X0075913Y0552264D01*
X0076465Y0553854D01*
X0077237Y0555350D01*
X0078214Y0556721D01*
X0079377Y0557939D01*
X0080700Y0558980D01*
X0082158Y0559821D01*
X0083721Y0560447D01*
X0085357Y0560845D01*
X0087033Y0561005D01*
X0088714Y0560926D01*
X0090368Y0560609D01*
X0091959Y0560059D01*
X0091272Y0561312D01*
X0090401Y0562445D01*
X0089368Y0563432D01*
X0088196Y0564249D01*
X0086912Y0564878D01*
X0085548Y0565302D01*
X0084135Y0565513D01*
X0082706Y0565506D01*
X0081295Y0565280D01*
X0079935Y0564841D01*
X0078658Y0564200D01*
X0077464Y0563415D01*
X0076404Y0562457D01*
X0075503Y0561348D01*
X0074782Y0560114D01*
X0074259Y0558784D01*
X0073944Y0557390D01*
X0073847Y0555965D01*
X0073968Y0554541D01*
X0074306Y0553153D01*
X0074852Y0551832D01*
X0075593Y0550611D01*
X0075758Y0551460D02*
X0075078Y0551460D01*
X0074676Y0552259D02*
X0075912Y0552259D01*
X0076727Y0552259D02*
X0062780Y0552259D01*
X0063616Y0553057D02*
X0077045Y0553057D01*
X0076189Y0553057D02*
X0074345Y0553057D01*
X0074135Y0553856D02*
X0076466Y0553856D01*
X0076878Y0554654D02*
X0073958Y0554654D01*
X0073890Y0555453D02*
X0077310Y0555453D01*
X0077862Y0554654D02*
X0065289Y0554654D01*
X0064453Y0553856D02*
X0077387Y0553856D01*
X0078377Y0555453D02*
X0066126Y0555453D01*
X0066962Y0556251D02*
X0079036Y0556251D01*
X0078528Y0557050D02*
X0073921Y0557050D01*
X0073866Y0556251D02*
X0077880Y0556251D01*
X0079823Y0557050D02*
X0067799Y0557050D01*
X0068636Y0557848D02*
X0080761Y0557848D01*
X0080277Y0558647D02*
X0074227Y0558647D01*
X0074047Y0557848D02*
X0079290Y0557848D01*
X0081506Y0559445D02*
X0074519Y0559445D01*
X0074858Y0560244D02*
X0083212Y0560244D01*
X0083734Y0559445D02*
X0070309Y0559445D01*
X0071145Y0560244D02*
X0097595Y0560244D01*
X0125321Y0560244D01*
X0124481Y0561042D02*
X0097595Y0561042D01*
X0071982Y0561042D01*
X0072819Y0561841D02*
X0097595Y0561841D01*
X0123641Y0561841D01*
X0122801Y0562639D02*
X0097595Y0562639D01*
X0073655Y0562639D01*
X0074492Y0563438D02*
X0097595Y0563438D01*
X0121961Y0563438D01*
X0121121Y0564236D02*
X0097595Y0564236D01*
X0075328Y0564236D01*
X0076165Y0565035D02*
X0097595Y0565035D01*
X0120281Y0565035D01*
X0119441Y0565833D02*
X0097595Y0565833D01*
X0077001Y0565833D01*
X0078408Y0566632D02*
X0097595Y0566632D01*
X0117982Y0566632D01*
X0118845Y0566400D02*
X0097595Y0572106D01*
X0097595Y0554400D01*
X0098515Y0555759D01*
X0099619Y0556973D01*
X0100884Y0558018D01*
X0102285Y0558872D01*
X0103793Y0559518D01*
X0105378Y0559942D01*
X0107007Y0560137D01*
X0108648Y0560098D01*
X0110266Y0559826D01*
X0111829Y0559326D01*
X0113304Y0558609D01*
X0114663Y0557690D01*
X0115877Y0556586D01*
X0116922Y0555321D01*
X0117776Y0553920D01*
X0118422Y0552411D01*
X0118847Y0550826D01*
X0119041Y0549197D01*
X0119002Y0547557D01*
X0118730Y0545939D01*
X0118231Y0544376D01*
X0117514Y0542900D01*
X0133595Y0552378D01*
X0118845Y0566400D01*
X0117691Y0563438D02*
X0105830Y0563438D01*
X0105822Y0563432D02*
X0106995Y0564249D01*
X0108278Y0564878D01*
X0109642Y0565302D01*
X0111056Y0565513D01*
X0112484Y0565506D01*
X0113895Y0565280D01*
X0115255Y0564841D01*
X0116532Y0564200D01*
X0117726Y0563415D01*
X0118786Y0562457D01*
X0119687Y0561348D01*
X0120408Y0560114D01*
X0120932Y0558784D01*
X0121246Y0557390D01*
X0121344Y0555965D01*
X0121222Y0554541D01*
X0120884Y0553153D01*
X0120338Y0551832D01*
X0119597Y0550611D01*
X0119277Y0552264D01*
X0118725Y0553854D01*
X0117953Y0555350D01*
X0116976Y0556721D01*
X0115814Y0557939D01*
X0114490Y0558980D01*
X0113032Y0559821D01*
X0111469Y0560447D01*
X0109833Y0560845D01*
X0108158Y0561005D01*
X0106476Y0560926D01*
X0104823Y0560609D01*
X0103231Y0560059D01*
X0103918Y0561312D01*
X0104789Y0562445D01*
X0105822Y0563432D01*
X0104992Y0562639D02*
X0118584Y0562639D01*
X0119286Y0561841D02*
X0104324Y0561841D01*
X0103770Y0561042D02*
X0119866Y0561042D01*
X0120332Y0560244D02*
X0111978Y0560244D01*
X0111456Y0559445D02*
X0126161Y0559445D01*
X0127001Y0558647D02*
X0113228Y0558647D01*
X0113684Y0559445D02*
X0120671Y0559445D01*
X0120963Y0558647D02*
X0114914Y0558647D01*
X0114429Y0557848D02*
X0127841Y0557848D01*
X0128681Y0557050D02*
X0115367Y0557050D01*
X0115900Y0557848D02*
X0121143Y0557848D01*
X0121269Y0557050D02*
X0116662Y0557050D01*
X0116154Y0556251D02*
X0129521Y0556251D01*
X0130361Y0555453D02*
X0116813Y0555453D01*
X0117311Y0556251D02*
X0121324Y0556251D01*
X0121300Y0555453D02*
X0117880Y0555453D01*
X0118312Y0554654D02*
X0121232Y0554654D01*
X0121055Y0553856D02*
X0118724Y0553856D01*
X0119002Y0553057D02*
X0120845Y0553057D01*
X0120515Y0552259D02*
X0119278Y0552259D01*
X0119433Y0551460D02*
X0120113Y0551460D01*
X0119628Y0550662D02*
X0119587Y0550662D01*
X0118866Y0550662D02*
X0130683Y0550662D01*
X0133922Y0550662D01*
X0133770Y0551460D02*
X0132038Y0551460D01*
X0118677Y0551460D01*
X0118463Y0552259D02*
X0133393Y0552259D01*
X0133618Y0552259D01*
X0133595Y0552378D02*
X0117514Y0542900D01*
X0119150Y0542783D01*
X0120754Y0542434D01*
X0122291Y0541861D01*
X0123731Y0541074D01*
X0125045Y0540091D01*
X0126205Y0538931D01*
X0127188Y0537617D01*
X0127975Y0536177D01*
X0128548Y0534640D01*
X0128897Y0533037D01*
X0129014Y0531400D01*
X0128897Y0529763D01*
X0128548Y0528160D01*
X0127975Y0526623D01*
X0127188Y0525183D01*
X0126205Y0523869D01*
X0125045Y0522709D01*
X0123731Y0521726D01*
X0122291Y0520939D01*
X0120754Y0520366D01*
X0119150Y0520017D01*
X0117514Y0519900D01*
X0133595Y0510422D01*
X0137595Y0531400D01*
X0133595Y0552378D01*
X0132881Y0553057D02*
X0118145Y0553057D01*
X0117803Y0553856D02*
X0132041Y0553856D01*
X0131201Y0554654D02*
X0117328Y0554654D01*
X0118962Y0549863D02*
X0129328Y0549863D01*
X0134075Y0549863D01*
X0134227Y0549065D02*
X0127973Y0549065D01*
X0119038Y0549065D01*
X0119019Y0548266D02*
X0126618Y0548266D01*
X0134379Y0548266D01*
X0134531Y0547468D02*
X0125263Y0547468D01*
X0118987Y0547468D01*
X0118853Y0546669D02*
X0123909Y0546669D01*
X0134684Y0546669D01*
X0134836Y0545870D02*
X0122554Y0545870D01*
X0118708Y0545870D01*
X0118453Y0545072D02*
X0121199Y0545072D01*
X0134988Y0545072D01*
X0135140Y0544273D02*
X0119844Y0544273D01*
X0118181Y0544273D01*
X0118489Y0543475D02*
X0117793Y0543475D01*
X0118489Y0543475D02*
X0135293Y0543475D01*
X0135445Y0542676D02*
X0119640Y0542676D01*
X0122245Y0541878D02*
X0135597Y0541878D01*
X0135750Y0541079D02*
X0123722Y0541079D01*
X0124791Y0540281D02*
X0135902Y0540281D01*
X0136054Y0539482D02*
X0125653Y0539482D01*
X0125887Y0540281D02*
X0129471Y0540281D01*
X0129449Y0540291D02*
X0130743Y0539684D01*
X0131929Y0538887D01*
X0132979Y0537918D01*
X0133868Y0536800D01*
X0134576Y0535558D01*
X0135086Y0534224D01*
X0135386Y0532827D01*
X0135469Y0531400D01*
X0135386Y0529973D01*
X0135086Y0528576D01*
X0134576Y0527242D01*
X0133868Y0526000D01*
X0132979Y0524882D01*
X0131929Y0523913D01*
X0130743Y0523116D01*
X0129449Y0522509D01*
X0128078Y0522107D01*
X0126662Y0521920D01*
X0125233Y0521951D01*
X0126504Y0523055D01*
X0127606Y0524328D01*
X0128515Y0525745D01*
X0129214Y0527276D01*
X0129688Y0528892D01*
X0129927Y0530558D01*
X0129927Y0532242D01*
X0129688Y0533908D01*
X0129214Y0535524D01*
X0128515Y0537055D01*
X0127606Y0538472D01*
X0126504Y0539745D01*
X0125233Y0540849D01*
X0126662Y0540880D01*
X0128078Y0540693D01*
X0129449Y0540291D01*
X0131044Y0539482D02*
X0126732Y0539482D01*
X0126390Y0538684D02*
X0136206Y0538684D01*
X0136359Y0537885D02*
X0126988Y0537885D01*
X0127423Y0538684D02*
X0132149Y0538684D01*
X0133005Y0537885D02*
X0127983Y0537885D01*
X0127478Y0537087D02*
X0136511Y0537087D01*
X0136663Y0536288D02*
X0127914Y0536288D01*
X0128231Y0535490D02*
X0136815Y0535490D01*
X0136968Y0534691D02*
X0128529Y0534691D01*
X0128710Y0533893D02*
X0137120Y0533893D01*
X0137272Y0533094D02*
X0128884Y0533094D01*
X0128950Y0532296D02*
X0137424Y0532296D01*
X0137577Y0531497D02*
X0129007Y0531497D01*
X0128964Y0530699D02*
X0137461Y0530699D01*
X0137309Y0529900D02*
X0128906Y0529900D01*
X0128753Y0529102D02*
X0137157Y0529102D01*
X0137005Y0528303D02*
X0128579Y0528303D01*
X0128303Y0527505D02*
X0136852Y0527505D01*
X0136700Y0526706D02*
X0128006Y0526706D01*
X0127584Y0525908D02*
X0136548Y0525908D01*
X0136396Y0525109D02*
X0127133Y0525109D01*
X0127591Y0524311D02*
X0132360Y0524311D01*
X0133160Y0525109D02*
X0128107Y0525109D01*
X0128590Y0525908D02*
X0133795Y0525908D01*
X0134271Y0526706D02*
X0128954Y0526706D01*
X0129281Y0527505D02*
X0134677Y0527505D01*
X0134982Y0528303D02*
X0129515Y0528303D01*
X0129718Y0529102D02*
X0135199Y0529102D01*
X0135371Y0529900D02*
X0129833Y0529900D01*
X0129927Y0530699D02*
X0135428Y0530699D01*
X0135464Y0531497D02*
X0129927Y0531497D01*
X0129920Y0532296D02*
X0135417Y0532296D01*
X0135329Y0533094D02*
X0129805Y0533094D01*
X0129690Y0533893D02*
X0135157Y0533893D01*
X0134908Y0534691D02*
X0129458Y0534691D01*
X0129224Y0535490D02*
X0134603Y0535490D01*
X0134160Y0536288D02*
X0128865Y0536288D01*
X0128495Y0537087D02*
X0133640Y0537087D01*
X0136243Y0524311D02*
X0126535Y0524311D01*
X0126900Y0523512D02*
X0131333Y0523512D01*
X0129886Y0522714D02*
X0126111Y0522714D01*
X0125848Y0523512D02*
X0136091Y0523512D01*
X0135939Y0522714D02*
X0125049Y0522714D01*
X0123984Y0521915D02*
X0135787Y0521915D01*
X0135634Y0521117D02*
X0122616Y0521117D01*
X0120534Y0520318D02*
X0135482Y0520318D01*
X0135330Y0519520D02*
X0118159Y0519520D01*
X0117699Y0519520D01*
X0118086Y0518721D02*
X0119514Y0518721D01*
X0135178Y0518721D01*
X0135025Y0517923D02*
X0120869Y0517923D01*
X0118391Y0517923D01*
X0118646Y0517124D02*
X0122224Y0517124D01*
X0134873Y0517124D01*
X0134721Y0516326D02*
X0123579Y0516326D01*
X0118820Y0516326D01*
X0118955Y0515527D02*
X0124933Y0515527D01*
X0134569Y0515527D01*
X0134416Y0514729D02*
X0126288Y0514729D01*
X0119015Y0514729D01*
X0119034Y0513930D02*
X0127643Y0513930D01*
X0134264Y0513930D01*
X0134112Y0513132D02*
X0128998Y0513132D01*
X0118985Y0513132D01*
X0118890Y0512333D02*
X0130353Y0512333D01*
X0133960Y0512333D01*
X0133807Y0511534D02*
X0131708Y0511534D01*
X0118729Y0511534D01*
X0119470Y0511534D02*
X0119994Y0511534D01*
X0120434Y0510736D02*
X0119316Y0510736D01*
X0118515Y0510736D02*
X0133062Y0510736D01*
X0133655Y0510736D01*
X0133042Y0509937D02*
X0118229Y0509937D01*
X0119069Y0509937D02*
X0120764Y0509937D01*
X0121008Y0509139D02*
X0118792Y0509139D01*
X0118413Y0508340D02*
X0121202Y0508340D01*
X0121283Y0507542D02*
X0118000Y0507542D01*
X0117449Y0506743D02*
X0121337Y0506743D01*
X0121283Y0505945D02*
X0116848Y0505945D01*
X0116314Y0506743D02*
X0129398Y0506743D01*
X0128487Y0505945D02*
X0115581Y0505945D01*
X0116086Y0505146D02*
X0121187Y0505146D01*
X0121007Y0504348D02*
X0115161Y0504348D01*
X0114703Y0505146D02*
X0127575Y0505146D01*
X0126664Y0504348D02*
X0113537Y0504348D01*
X0114021Y0503549D02*
X0120748Y0503549D01*
X0120433Y0502751D02*
X0112464Y0502751D01*
X0111984Y0503549D02*
X0125753Y0503549D01*
X0124842Y0502751D02*
X0108938Y0502751D01*
X0109803Y0501952D02*
X0119979Y0501952D01*
X0122108Y0500355D02*
X0097595Y0500355D01*
X0073082Y0500355D01*
X0073993Y0499557D02*
X0097595Y0499557D01*
X0121197Y0499557D01*
X0120286Y0498758D02*
X0097595Y0498758D01*
X0074904Y0498758D01*
X0075815Y0497960D02*
X0097595Y0497960D01*
X0119375Y0497960D01*
X0118464Y0497161D02*
X0097595Y0497161D01*
X0076726Y0497161D01*
X0077702Y0496363D02*
X0097595Y0496363D01*
X0117488Y0496363D01*
X0123020Y0501154D02*
X0097595Y0501154D01*
X0072171Y0501154D01*
X0071260Y0501952D02*
X0097595Y0501952D01*
X0123931Y0501952D01*
X0130309Y0507542D02*
X0116960Y0507542D01*
X0117447Y0508340D02*
X0131220Y0508340D01*
X0132131Y0509139D02*
X0117887Y0509139D01*
X0103170Y0503549D02*
X0097595Y0503549D01*
X0092020Y0503549D01*
X0093594Y0504348D02*
X0097595Y0504348D01*
X0101597Y0504348D01*
X0100443Y0505146D02*
X0097595Y0505146D01*
X0094747Y0505146D01*
X0095679Y0505945D02*
X0097595Y0505945D01*
X0099511Y0505945D01*
X0098785Y0506743D02*
X0097595Y0506743D01*
X0096405Y0506743D01*
X0097014Y0507542D02*
X0097595Y0507542D01*
X0098176Y0507542D01*
X0097635Y0508340D02*
X0097595Y0508340D01*
X0097555Y0508340D01*
X0090402Y0500355D02*
X0076394Y0500355D01*
X0077274Y0499557D02*
X0089566Y0499557D01*
X0088494Y0498758D02*
X0078417Y0498758D01*
X0079932Y0497960D02*
X0086989Y0497960D01*
X0093773Y0490773D02*
X0097595Y0490773D01*
X0097423Y0554654D02*
X0097595Y0554654D01*
X0097767Y0554654D01*
X0097595Y0555453D02*
X0096883Y0555453D01*
X0097595Y0555453D02*
X0098308Y0555453D01*
X0098962Y0556251D02*
X0097595Y0556251D01*
X0096228Y0556251D01*
X0095479Y0557050D02*
X0097595Y0557050D01*
X0099711Y0557050D01*
X0100679Y0557848D02*
X0097595Y0557848D01*
X0094512Y0557848D01*
X0093274Y0558647D02*
X0097595Y0558647D01*
X0101916Y0558647D01*
X0103624Y0559445D02*
X0097595Y0559445D01*
X0091566Y0559445D01*
X0091425Y0560244D02*
X0091858Y0560244D01*
X0091420Y0561042D02*
X0075325Y0561042D01*
X0075904Y0561841D02*
X0090866Y0561841D01*
X0090199Y0562639D02*
X0076606Y0562639D01*
X0077499Y0563438D02*
X0089360Y0563438D01*
X0088214Y0564236D02*
X0078730Y0564236D01*
X0080534Y0565035D02*
X0086407Y0565035D01*
X0084005Y0568229D02*
X0097595Y0568229D01*
X0112034Y0568229D01*
X0109061Y0569027D02*
X0097595Y0569027D01*
X0086804Y0569027D01*
X0089603Y0569826D02*
X0097595Y0569826D01*
X0106087Y0569826D01*
X0103113Y0570624D02*
X0097595Y0570624D01*
X0092402Y0570624D01*
X0095201Y0571423D02*
X0097595Y0571423D01*
X0100139Y0571423D01*
X0097595Y0567430D02*
X0081206Y0567430D01*
X0081963Y0558647D02*
X0069472Y0558647D01*
X0076513Y0551460D02*
X0061943Y0551460D01*
X0097595Y0567430D02*
X0115008Y0567430D01*
X0114656Y0565035D02*
X0108783Y0565035D01*
X0106976Y0564236D02*
X0116460Y0564236D01*
X0103765Y0560244D02*
X0103332Y0560244D01*
X0124933Y0422101D02*
X0127561Y0422101D01*
X0119042Y0401340D02*
X0104095Y0401340D01*
X0104766Y0400541D02*
X0118337Y0400541D01*
X0117441Y0399743D02*
X0105608Y0399743D01*
X0106753Y0398944D02*
X0116205Y0398944D01*
X0114390Y0398146D02*
X0108577Y0398146D01*
X0075841Y0412519D02*
X0075793Y0412519D01*
X0208146Y0308762D02*
X0209250Y0307491D01*
X0210523Y0306389D01*
X0211940Y0305480D01*
X0213471Y0304781D01*
X0215087Y0304307D01*
X0216753Y0304068D01*
X0218437Y0304068D01*
X0220103Y0304307D01*
X0221719Y0304781D01*
X0223251Y0305480D01*
X0224667Y0306389D01*
X0225940Y0307491D01*
X0227044Y0308762D01*
X0227075Y0307334D01*
X0226888Y0305917D01*
X0226486Y0304546D01*
X0225880Y0303252D01*
X0225082Y0302066D01*
X0224113Y0301016D01*
X0222995Y0300127D01*
X0221754Y0299419D01*
X0220419Y0298909D01*
X0219022Y0298609D01*
X0217595Y0298526D01*
X0216169Y0298609D01*
X0214772Y0298909D01*
X0213437Y0299419D01*
X0212196Y0300127D01*
X0211077Y0301016D01*
X0210108Y0302066D01*
X0209311Y0303252D01*
X0208704Y0304546D01*
X0208302Y0305917D01*
X0208115Y0307334D01*
X0208146Y0308762D01*
X0208145Y0308713D02*
X0208189Y0308713D01*
X0208128Y0307914D02*
X0208882Y0307914D01*
X0208144Y0307116D02*
X0209683Y0307116D01*
X0210635Y0306317D02*
X0208249Y0306317D01*
X0208419Y0305519D02*
X0211879Y0305519D01*
X0213679Y0304720D02*
X0208653Y0304720D01*
X0208997Y0303922D02*
X0226194Y0303922D01*
X0226537Y0304720D02*
X0221511Y0304720D01*
X0223311Y0305519D02*
X0226771Y0305519D01*
X0226941Y0306317D02*
X0224555Y0306317D01*
X0225507Y0307116D02*
X0227047Y0307116D01*
X0227063Y0307914D02*
X0226308Y0307914D01*
X0227001Y0308713D02*
X0227045Y0308713D01*
X0225793Y0303123D02*
X0209397Y0303123D01*
X0209934Y0302325D02*
X0225256Y0302325D01*
X0224584Y0301526D02*
X0210607Y0301526D01*
X0211440Y0300728D02*
X0223750Y0300728D01*
X0222648Y0299929D02*
X0212542Y0299929D01*
X0214191Y0299130D02*
X0220999Y0299130D01*
X0233704Y0304546D02*
X0233302Y0305917D01*
X0233115Y0307334D01*
X0233146Y0308762D01*
X0234250Y0307491D01*
X0235523Y0306389D01*
X0236940Y0305480D01*
X0238471Y0304781D01*
X0240087Y0304307D01*
X0241753Y0304068D01*
X0243437Y0304068D01*
X0245103Y0304307D01*
X0246719Y0304781D01*
X0248251Y0305480D01*
X0249667Y0306389D01*
X0250940Y0307491D01*
X0252044Y0308762D01*
X0252075Y0307334D01*
X0251888Y0305917D01*
X0251486Y0304546D01*
X0250880Y0303252D01*
X0250082Y0302066D01*
X0249113Y0301016D01*
X0247995Y0300127D01*
X0246754Y0299419D01*
X0245419Y0298909D01*
X0244022Y0298609D01*
X0242595Y0298526D01*
X0241169Y0298609D01*
X0239772Y0298909D01*
X0238437Y0299419D01*
X0237196Y0300127D01*
X0236077Y0301016D01*
X0235108Y0302066D01*
X0234311Y0303252D01*
X0233704Y0304546D01*
X0233653Y0304720D02*
X0238679Y0304720D01*
X0236879Y0305519D02*
X0233419Y0305519D01*
X0233249Y0306317D02*
X0235635Y0306317D01*
X0234683Y0307116D02*
X0233144Y0307116D01*
X0233128Y0307914D02*
X0233882Y0307914D01*
X0233189Y0308713D02*
X0233145Y0308713D01*
X0233997Y0303922D02*
X0251194Y0303922D01*
X0251537Y0304720D02*
X0246511Y0304720D01*
X0248311Y0305519D02*
X0251771Y0305519D01*
X0251941Y0306317D02*
X0249555Y0306317D01*
X0250507Y0307116D02*
X0252047Y0307116D01*
X0252063Y0307914D02*
X0251308Y0307914D01*
X0252001Y0308713D02*
X0252045Y0308713D01*
X0250793Y0303123D02*
X0234397Y0303123D01*
X0234934Y0302325D02*
X0250256Y0302325D01*
X0249584Y0301526D02*
X0235607Y0301526D01*
X0236440Y0300728D02*
X0248750Y0300728D01*
X0247648Y0299929D02*
X0237542Y0299929D01*
X0239191Y0299130D02*
X0245999Y0299130D01*
X0273302Y0305917D02*
X0273115Y0307334D01*
X0273146Y0308762D01*
X0274250Y0307491D01*
X0275523Y0306389D01*
X0276940Y0305480D01*
X0278471Y0304781D01*
X0280087Y0304307D01*
X0281753Y0304068D01*
X0283437Y0304068D01*
X0285103Y0304307D01*
X0286719Y0304781D01*
X0288251Y0305480D01*
X0289667Y0306389D01*
X0290940Y0307491D01*
X0292044Y0308762D01*
X0292075Y0307334D01*
X0291888Y0305917D01*
X0291486Y0304546D01*
X0290880Y0303252D01*
X0290082Y0302066D01*
X0289113Y0301016D01*
X0287995Y0300127D01*
X0286754Y0299419D01*
X0285419Y0298909D01*
X0284022Y0298609D01*
X0282595Y0298526D01*
X0281169Y0298609D01*
X0279772Y0298909D01*
X0278437Y0299419D01*
X0277196Y0300127D01*
X0276077Y0301016D01*
X0275108Y0302066D01*
X0274311Y0303252D01*
X0273704Y0304546D01*
X0273302Y0305917D01*
X0273249Y0306317D02*
X0275635Y0306317D01*
X0274683Y0307116D02*
X0273144Y0307116D01*
X0273128Y0307914D02*
X0273882Y0307914D01*
X0273189Y0308713D02*
X0273145Y0308713D01*
X0273419Y0305519D02*
X0276879Y0305519D01*
X0278679Y0304720D02*
X0273653Y0304720D01*
X0273997Y0303922D02*
X0291194Y0303922D01*
X0291537Y0304720D02*
X0286511Y0304720D01*
X0288311Y0305519D02*
X0291771Y0305519D01*
X0291941Y0306317D02*
X0289555Y0306317D01*
X0290507Y0307116D02*
X0292047Y0307116D01*
X0292063Y0307914D02*
X0291308Y0307914D01*
X0292001Y0308713D02*
X0292045Y0308713D01*
X0290793Y0303123D02*
X0274397Y0303123D01*
X0274934Y0302325D02*
X0290256Y0302325D01*
X0289584Y0301526D02*
X0275607Y0301526D01*
X0276440Y0300728D02*
X0288750Y0300728D01*
X0287648Y0299929D02*
X0277542Y0299929D01*
X0279191Y0299130D02*
X0285999Y0299130D01*
X0298704Y0304546D02*
X0298302Y0305917D01*
X0298115Y0307334D01*
X0298146Y0308762D01*
X0299250Y0307491D01*
X0300523Y0306389D01*
X0301940Y0305480D01*
X0303471Y0304781D01*
X0305087Y0304307D01*
X0306753Y0304068D01*
X0308437Y0304068D01*
X0310103Y0304307D01*
X0311719Y0304781D01*
X0313251Y0305480D01*
X0314667Y0306389D01*
X0315940Y0307491D01*
X0317044Y0308762D01*
X0317075Y0307334D01*
X0316888Y0305917D01*
X0316486Y0304546D01*
X0315880Y0303252D01*
X0315082Y0302066D01*
X0314113Y0301016D01*
X0312995Y0300127D01*
X0311754Y0299419D01*
X0310419Y0298909D01*
X0309022Y0298609D01*
X0307595Y0298526D01*
X0306169Y0298609D01*
X0304772Y0298909D01*
X0303437Y0299419D01*
X0302196Y0300127D01*
X0301077Y0301016D01*
X0300108Y0302066D01*
X0299311Y0303252D01*
X0298704Y0304546D01*
X0298653Y0304720D02*
X0303679Y0304720D01*
X0301879Y0305519D02*
X0298419Y0305519D01*
X0298249Y0306317D02*
X0300635Y0306317D01*
X0299683Y0307116D02*
X0298144Y0307116D01*
X0298128Y0307914D02*
X0298882Y0307914D01*
X0298189Y0308713D02*
X0298145Y0308713D01*
X0298997Y0303922D02*
X0316194Y0303922D01*
X0316537Y0304720D02*
X0311511Y0304720D01*
X0313311Y0305519D02*
X0316771Y0305519D01*
X0316941Y0306317D02*
X0314555Y0306317D01*
X0315507Y0307116D02*
X0317047Y0307116D01*
X0317063Y0307914D02*
X0316308Y0307914D01*
X0317001Y0308713D02*
X0317045Y0308713D01*
X0315793Y0303123D02*
X0299397Y0303123D01*
X0299934Y0302325D02*
X0315256Y0302325D01*
X0314584Y0301526D02*
X0300607Y0301526D01*
X0301440Y0300728D02*
X0313750Y0300728D01*
X0312648Y0299929D02*
X0302542Y0299929D01*
X0304191Y0299130D02*
X0310999Y0299130D01*
X0338302Y0305917D02*
X0338115Y0307334D01*
X0338146Y0308762D01*
X0339250Y0307491D01*
X0340523Y0306389D01*
X0341940Y0305480D01*
X0343471Y0304781D01*
X0345087Y0304307D01*
X0346753Y0304068D01*
X0348437Y0304068D01*
X0350103Y0304307D01*
X0351719Y0304781D01*
X0353251Y0305480D01*
X0354667Y0306389D01*
X0355940Y0307491D01*
X0357044Y0308762D01*
X0357075Y0307334D01*
X0356888Y0305917D01*
X0356486Y0304546D01*
X0355880Y0303252D01*
X0355082Y0302066D01*
X0354113Y0301016D01*
X0352995Y0300127D01*
X0351754Y0299419D01*
X0350419Y0298909D01*
X0349022Y0298609D01*
X0347595Y0298526D01*
X0346169Y0298609D01*
X0344772Y0298909D01*
X0343437Y0299419D01*
X0342196Y0300127D01*
X0341077Y0301016D01*
X0340108Y0302066D01*
X0339311Y0303252D01*
X0338704Y0304546D01*
X0338302Y0305917D01*
X0338249Y0306317D02*
X0340635Y0306317D01*
X0339683Y0307116D02*
X0338144Y0307116D01*
X0338128Y0307914D02*
X0338882Y0307914D01*
X0338189Y0308713D02*
X0338145Y0308713D01*
X0338419Y0305519D02*
X0341879Y0305519D01*
X0343679Y0304720D02*
X0338653Y0304720D01*
X0338997Y0303922D02*
X0356194Y0303922D01*
X0356537Y0304720D02*
X0351511Y0304720D01*
X0353311Y0305519D02*
X0356771Y0305519D01*
X0356941Y0306317D02*
X0354555Y0306317D01*
X0355507Y0307116D02*
X0357047Y0307116D01*
X0357063Y0307914D02*
X0356308Y0307914D01*
X0357001Y0308713D02*
X0357045Y0308713D01*
X0355793Y0303123D02*
X0339397Y0303123D01*
X0339934Y0302325D02*
X0355256Y0302325D01*
X0354584Y0301526D02*
X0340607Y0301526D01*
X0341440Y0300728D02*
X0353750Y0300728D01*
X0352648Y0299929D02*
X0342542Y0299929D01*
X0344191Y0299130D02*
X0350999Y0299130D01*
X0363704Y0304546D02*
X0363302Y0305917D01*
X0363115Y0307334D01*
X0363146Y0308762D01*
X0364250Y0307491D01*
X0365523Y0306389D01*
X0366940Y0305480D01*
X0368471Y0304781D01*
X0370087Y0304307D01*
X0371753Y0304068D01*
X0373437Y0304068D01*
X0375103Y0304307D01*
X0376719Y0304781D01*
X0378251Y0305480D01*
X0379667Y0306389D01*
X0380940Y0307491D01*
X0382044Y0308762D01*
X0382075Y0307334D01*
X0381888Y0305917D01*
X0381486Y0304546D01*
X0380880Y0303252D01*
X0380082Y0302066D01*
X0379113Y0301016D01*
X0377995Y0300127D01*
X0376754Y0299419D01*
X0375419Y0298909D01*
X0374022Y0298609D01*
X0372595Y0298526D01*
X0371169Y0298609D01*
X0369772Y0298909D01*
X0368437Y0299419D01*
X0367196Y0300127D01*
X0366077Y0301016D01*
X0365108Y0302066D01*
X0364311Y0303252D01*
X0363704Y0304546D01*
X0363653Y0304720D02*
X0368679Y0304720D01*
X0366879Y0305519D02*
X0363419Y0305519D01*
X0363249Y0306317D02*
X0365635Y0306317D01*
X0364683Y0307116D02*
X0363144Y0307116D01*
X0363128Y0307914D02*
X0363882Y0307914D01*
X0363189Y0308713D02*
X0363145Y0308713D01*
X0363997Y0303922D02*
X0381194Y0303922D01*
X0381537Y0304720D02*
X0376511Y0304720D01*
X0378311Y0305519D02*
X0381771Y0305519D01*
X0381941Y0306317D02*
X0379555Y0306317D01*
X0380507Y0307116D02*
X0382047Y0307116D01*
X0382063Y0307914D02*
X0381308Y0307914D01*
X0382001Y0308713D02*
X0382045Y0308713D01*
X0380793Y0303123D02*
X0364397Y0303123D01*
X0364934Y0302325D02*
X0380256Y0302325D01*
X0379584Y0301526D02*
X0365607Y0301526D01*
X0366440Y0300728D02*
X0378750Y0300728D01*
X0377648Y0299929D02*
X0367542Y0299929D01*
X0369191Y0299130D02*
X0375999Y0299130D01*
X0386801Y0286400D02*
X0386803Y0286461D01*
X0386809Y0286523D01*
X0386819Y0286583D01*
X0386833Y0286643D01*
X0386850Y0286702D01*
X0386872Y0286760D01*
X0386897Y0286816D01*
X0386926Y0286871D01*
X0386958Y0286923D01*
X0386993Y0286973D01*
X0387032Y0287021D01*
X0387074Y0287066D01*
X0387118Y0287109D01*
X0387166Y0287148D01*
X0387215Y0287185D01*
X0387267Y0287218D01*
X0387321Y0287247D01*
X0387377Y0287273D01*
X0387434Y0287296D01*
X0387493Y0287314D01*
X0387552Y0287329D01*
X0387613Y0287340D01*
X0387674Y0287347D01*
X0387736Y0287350D01*
X0387797Y0287349D01*
X0387858Y0287344D01*
X0387919Y0287335D01*
X0387979Y0287322D01*
X0388039Y0287305D01*
X0388097Y0287285D01*
X0388153Y0287261D01*
X0388208Y0287233D01*
X0388261Y0287201D01*
X0388312Y0287167D01*
X0388360Y0287129D01*
X0388406Y0287088D01*
X0388449Y0287044D01*
X0388490Y0286997D01*
X0388527Y0286948D01*
X0388561Y0286897D01*
X0388591Y0286844D01*
X0388618Y0286788D01*
X0388641Y0286731D01*
X0388661Y0286673D01*
X0388677Y0286614D01*
X0388689Y0286553D01*
X0388697Y0286492D01*
X0388701Y0286431D01*
X0388701Y0286369D01*
X0388697Y0286308D01*
X0388689Y0286247D01*
X0388677Y0286186D01*
X0388661Y0286127D01*
X0388641Y0286069D01*
X0388618Y0286012D01*
X0388591Y0285956D01*
X0388561Y0285903D01*
X0388527Y0285852D01*
X0388490Y0285803D01*
X0388449Y0285756D01*
X0388406Y0285712D01*
X0388360Y0285671D01*
X0388312Y0285633D01*
X0388261Y0285599D01*
X0388208Y0285567D01*
X0388153Y0285539D01*
X0388097Y0285515D01*
X0388039Y0285495D01*
X0387979Y0285478D01*
X0387919Y0285465D01*
X0387858Y0285456D01*
X0387797Y0285451D01*
X0387736Y0285450D01*
X0387674Y0285453D01*
X0387613Y0285460D01*
X0387552Y0285471D01*
X0387493Y0285486D01*
X0387434Y0285504D01*
X0387377Y0285527D01*
X0387321Y0285553D01*
X0387267Y0285582D01*
X0387215Y0285615D01*
X0387166Y0285652D01*
X0387118Y0285691D01*
X0387074Y0285734D01*
X0387032Y0285779D01*
X0386993Y0285827D01*
X0386958Y0285877D01*
X0386926Y0285929D01*
X0386897Y0285984D01*
X0386872Y0286040D01*
X0386850Y0286098D01*
X0386833Y0286157D01*
X0386819Y0286217D01*
X0386809Y0286277D01*
X0386803Y0286339D01*
X0386801Y0286400D01*
X0401489Y0286400D02*
X0401491Y0286461D01*
X0401497Y0286523D01*
X0401507Y0286583D01*
X0401521Y0286643D01*
X0401538Y0286702D01*
X0401560Y0286760D01*
X0401585Y0286816D01*
X0401614Y0286871D01*
X0401646Y0286923D01*
X0401681Y0286973D01*
X0401720Y0287021D01*
X0401762Y0287066D01*
X0401806Y0287109D01*
X0401854Y0287148D01*
X0401903Y0287185D01*
X0401955Y0287218D01*
X0402009Y0287247D01*
X0402065Y0287273D01*
X0402122Y0287296D01*
X0402181Y0287314D01*
X0402240Y0287329D01*
X0402301Y0287340D01*
X0402362Y0287347D01*
X0402424Y0287350D01*
X0402485Y0287349D01*
X0402546Y0287344D01*
X0402607Y0287335D01*
X0402667Y0287322D01*
X0402727Y0287305D01*
X0402785Y0287285D01*
X0402841Y0287261D01*
X0402896Y0287233D01*
X0402949Y0287201D01*
X0403000Y0287167D01*
X0403048Y0287129D01*
X0403094Y0287088D01*
X0403137Y0287044D01*
X0403178Y0286997D01*
X0403215Y0286948D01*
X0403249Y0286897D01*
X0403279Y0286844D01*
X0403306Y0286788D01*
X0403329Y0286731D01*
X0403349Y0286673D01*
X0403365Y0286614D01*
X0403377Y0286553D01*
X0403385Y0286492D01*
X0403389Y0286431D01*
X0403389Y0286369D01*
X0403385Y0286308D01*
X0403377Y0286247D01*
X0403365Y0286186D01*
X0403349Y0286127D01*
X0403329Y0286069D01*
X0403306Y0286012D01*
X0403279Y0285956D01*
X0403249Y0285903D01*
X0403215Y0285852D01*
X0403178Y0285803D01*
X0403137Y0285756D01*
X0403094Y0285712D01*
X0403048Y0285671D01*
X0403000Y0285633D01*
X0402949Y0285599D01*
X0402896Y0285567D01*
X0402841Y0285539D01*
X0402785Y0285515D01*
X0402727Y0285495D01*
X0402667Y0285478D01*
X0402607Y0285465D01*
X0402546Y0285456D01*
X0402485Y0285451D01*
X0402424Y0285450D01*
X0402362Y0285453D01*
X0402301Y0285460D01*
X0402240Y0285471D01*
X0402181Y0285486D01*
X0402122Y0285504D01*
X0402065Y0285527D01*
X0402009Y0285553D01*
X0401955Y0285582D01*
X0401903Y0285615D01*
X0401854Y0285652D01*
X0401806Y0285691D01*
X0401762Y0285734D01*
X0401720Y0285779D01*
X0401681Y0285827D01*
X0401646Y0285877D01*
X0401614Y0285929D01*
X0401585Y0285984D01*
X0401560Y0286040D01*
X0401538Y0286098D01*
X0401521Y0286157D01*
X0401507Y0286217D01*
X0401497Y0286277D01*
X0401491Y0286339D01*
X0401489Y0286400D01*
X0382044Y0339038D02*
X0380940Y0340309D01*
X0379667Y0341411D01*
X0378251Y0342320D01*
X0376719Y0343019D01*
X0375103Y0343493D01*
X0373437Y0343732D01*
X0371753Y0343732D01*
X0370087Y0343493D01*
X0368471Y0343019D01*
X0366940Y0342320D01*
X0365523Y0341411D01*
X0364250Y0340309D01*
X0363146Y0339038D01*
X0363115Y0340466D01*
X0363302Y0341883D01*
X0363704Y0343254D01*
X0364311Y0344548D01*
X0365108Y0345734D01*
X0366077Y0346784D01*
X0367196Y0347673D01*
X0368437Y0348381D01*
X0369772Y0348891D01*
X0371169Y0349191D01*
X0372595Y0349274D01*
X0374022Y0349191D01*
X0375419Y0348891D01*
X0376754Y0348381D01*
X0377995Y0347673D01*
X0379113Y0346784D01*
X0380082Y0345734D01*
X0380880Y0344548D01*
X0381486Y0343254D01*
X0381888Y0341883D01*
X0382075Y0340466D01*
X0382044Y0339038D01*
X0382044Y0339056D02*
X0382028Y0339056D01*
X0382062Y0339855D02*
X0381335Y0339855D01*
X0382051Y0340653D02*
X0380543Y0340653D01*
X0379604Y0341452D02*
X0381945Y0341452D01*
X0381780Y0342250D02*
X0378360Y0342250D01*
X0376618Y0343049D02*
X0381546Y0343049D01*
X0381208Y0343847D02*
X0363982Y0343847D01*
X0363644Y0343049D02*
X0368573Y0343049D01*
X0366831Y0342250D02*
X0363410Y0342250D01*
X0363245Y0341452D02*
X0365587Y0341452D01*
X0364647Y0340653D02*
X0363140Y0340653D01*
X0363128Y0339855D02*
X0363855Y0339855D01*
X0363162Y0339056D02*
X0363146Y0339056D01*
X0364376Y0344646D02*
X0380814Y0344646D01*
X0380277Y0345444D02*
X0364913Y0345444D01*
X0365578Y0346243D02*
X0379613Y0346243D01*
X0378790Y0347041D02*
X0366401Y0347041D01*
X0367487Y0347840D02*
X0377703Y0347840D01*
X0376081Y0348638D02*
X0369109Y0348638D01*
X0356486Y0343254D02*
X0356888Y0341883D01*
X0357075Y0340466D01*
X0357044Y0339038D01*
X0355940Y0340309D01*
X0354667Y0341411D01*
X0353251Y0342320D01*
X0351719Y0343019D01*
X0350103Y0343493D01*
X0348437Y0343732D01*
X0346753Y0343732D01*
X0345087Y0343493D01*
X0343471Y0343019D01*
X0341940Y0342320D01*
X0340523Y0341411D01*
X0339250Y0340309D01*
X0338146Y0339038D01*
X0338115Y0340466D01*
X0338302Y0341883D01*
X0338704Y0343254D01*
X0339311Y0344548D01*
X0340108Y0345734D01*
X0341077Y0346784D01*
X0342196Y0347673D01*
X0343437Y0348381D01*
X0344772Y0348891D01*
X0346169Y0349191D01*
X0347595Y0349274D01*
X0349022Y0349191D01*
X0350419Y0348891D01*
X0351754Y0348381D01*
X0352995Y0347673D01*
X0354113Y0346784D01*
X0355082Y0345734D01*
X0355880Y0344548D01*
X0356486Y0343254D01*
X0356546Y0343049D02*
X0351618Y0343049D01*
X0353360Y0342250D02*
X0356780Y0342250D01*
X0356945Y0341452D02*
X0354604Y0341452D01*
X0355543Y0340653D02*
X0357051Y0340653D01*
X0357062Y0339855D02*
X0356335Y0339855D01*
X0357028Y0339056D02*
X0357044Y0339056D01*
X0356208Y0343847D02*
X0338982Y0343847D01*
X0338644Y0343049D02*
X0343573Y0343049D01*
X0341831Y0342250D02*
X0338410Y0342250D01*
X0338245Y0341452D02*
X0340587Y0341452D01*
X0339647Y0340653D02*
X0338140Y0340653D01*
X0338128Y0339855D02*
X0338855Y0339855D01*
X0338162Y0339056D02*
X0338146Y0339056D01*
X0339376Y0344646D02*
X0355814Y0344646D01*
X0355277Y0345444D02*
X0339913Y0345444D01*
X0340578Y0346243D02*
X0354613Y0346243D01*
X0353790Y0347041D02*
X0341401Y0347041D01*
X0342487Y0347840D02*
X0352703Y0347840D01*
X0351081Y0348638D02*
X0344109Y0348638D01*
X0316888Y0341883D02*
X0317075Y0340466D01*
X0317044Y0339038D01*
X0315940Y0340309D01*
X0314667Y0341411D01*
X0313251Y0342320D01*
X0311719Y0343019D01*
X0310103Y0343493D01*
X0308437Y0343732D01*
X0306753Y0343732D01*
X0305087Y0343493D01*
X0303471Y0343019D01*
X0301940Y0342320D01*
X0300523Y0341411D01*
X0299250Y0340309D01*
X0298146Y0339038D01*
X0298115Y0340466D01*
X0298302Y0341883D01*
X0298704Y0343254D01*
X0299311Y0344548D01*
X0300108Y0345734D01*
X0301077Y0346784D01*
X0302196Y0347673D01*
X0303437Y0348381D01*
X0304772Y0348891D01*
X0306169Y0349191D01*
X0307595Y0349274D01*
X0309022Y0349191D01*
X0310419Y0348891D01*
X0311754Y0348381D01*
X0312995Y0347673D01*
X0314113Y0346784D01*
X0315082Y0345734D01*
X0315880Y0344548D01*
X0316486Y0343254D01*
X0316888Y0341883D01*
X0316780Y0342250D02*
X0313360Y0342250D01*
X0314604Y0341452D02*
X0316945Y0341452D01*
X0317051Y0340653D02*
X0315543Y0340653D01*
X0316335Y0339855D02*
X0317062Y0339855D01*
X0317028Y0339056D02*
X0317044Y0339056D01*
X0316546Y0343049D02*
X0311618Y0343049D01*
X0315277Y0345444D02*
X0299913Y0345444D01*
X0299376Y0344646D02*
X0315814Y0344646D01*
X0316208Y0343847D02*
X0298982Y0343847D01*
X0298644Y0343049D02*
X0303573Y0343049D01*
X0301831Y0342250D02*
X0298410Y0342250D01*
X0298245Y0341452D02*
X0300587Y0341452D01*
X0299647Y0340653D02*
X0298140Y0340653D01*
X0298128Y0339855D02*
X0298855Y0339855D01*
X0298162Y0339056D02*
X0298146Y0339056D01*
X0292044Y0339056D02*
X0292028Y0339056D01*
X0292044Y0339038D02*
X0290940Y0340309D01*
X0289667Y0341411D01*
X0288251Y0342320D01*
X0286719Y0343019D01*
X0285103Y0343493D01*
X0283437Y0343732D01*
X0281753Y0343732D01*
X0280087Y0343493D01*
X0278471Y0343019D01*
X0276940Y0342320D01*
X0275523Y0341411D01*
X0274250Y0340309D01*
X0273146Y0339038D01*
X0273115Y0340466D01*
X0273302Y0341883D01*
X0273704Y0343254D01*
X0274311Y0344548D01*
X0275108Y0345734D01*
X0276077Y0346784D01*
X0277196Y0347673D01*
X0278437Y0348381D01*
X0279772Y0348891D01*
X0281169Y0349191D01*
X0282595Y0349274D01*
X0284022Y0349191D01*
X0285419Y0348891D01*
X0286754Y0348381D01*
X0287995Y0347673D01*
X0289113Y0346784D01*
X0290082Y0345734D01*
X0290880Y0344548D01*
X0291486Y0343254D01*
X0291888Y0341883D01*
X0292075Y0340466D01*
X0292044Y0339038D01*
X0292062Y0339855D02*
X0291335Y0339855D01*
X0292051Y0340653D02*
X0290543Y0340653D01*
X0289604Y0341452D02*
X0291945Y0341452D01*
X0291780Y0342250D02*
X0288360Y0342250D01*
X0286618Y0343049D02*
X0291546Y0343049D01*
X0291208Y0343847D02*
X0273982Y0343847D01*
X0273644Y0343049D02*
X0278573Y0343049D01*
X0276831Y0342250D02*
X0273410Y0342250D01*
X0273245Y0341452D02*
X0275587Y0341452D01*
X0274647Y0340653D02*
X0273140Y0340653D01*
X0273128Y0339855D02*
X0273855Y0339855D01*
X0273162Y0339056D02*
X0273146Y0339056D01*
X0274376Y0344646D02*
X0290814Y0344646D01*
X0290277Y0345444D02*
X0274913Y0345444D01*
X0275578Y0346243D02*
X0289613Y0346243D01*
X0288790Y0347041D02*
X0276401Y0347041D01*
X0277487Y0347840D02*
X0287703Y0347840D01*
X0286081Y0348638D02*
X0279109Y0348638D01*
X0300578Y0346243D02*
X0314613Y0346243D01*
X0313790Y0347041D02*
X0301401Y0347041D01*
X0302487Y0347840D02*
X0312703Y0347840D01*
X0311081Y0348638D02*
X0304109Y0348638D01*
X0310902Y0395750D02*
X0318506Y0395750D01*
X0320062Y0396549D02*
X0309360Y0396549D01*
X0308262Y0397347D02*
X0321092Y0397347D01*
X0321892Y0398146D02*
X0307391Y0398146D01*
D11*
X0320305Y0394344D03*
X0322835Y0396124D03*
X0348745Y0424874D03*
X0350335Y0427604D03*
X0362285Y0464384D03*
X0362505Y0467474D03*
X0358395Y0505954D03*
X0357505Y0508874D03*
X0338155Y0542334D03*
X0336055Y0544614D03*
X0304775Y0567364D03*
X0301945Y0568584D03*
X0300385Y0569314D03*
X0298835Y0569884D03*
X0297225Y0570484D03*
X0295555Y0571084D03*
X0293895Y0571674D03*
X0292285Y0572204D03*
X0290635Y0572714D03*
X0234565Y0572694D03*
X0232965Y0572154D03*
X0231365Y0571644D03*
X0229765Y0571084D03*
X0228155Y0570544D03*
X0226565Y0569944D03*
X0224995Y0569354D03*
X0223375Y0568674D03*
X0220405Y0567354D03*
X0189155Y0544644D03*
X0187075Y0542344D03*
X0167605Y0508904D03*
X0166705Y0505934D03*
X0162635Y0467454D03*
X0162955Y0464354D03*
X0174855Y0427544D03*
X0176475Y0424904D03*
X0202375Y0396174D03*
X0204855Y0394364D03*
X0240235Y0378544D03*
X0243245Y0377914D03*
X0244195Y0350306D03*
X0240995Y0350306D03*
X0219195Y0350306D03*
X0215995Y0350306D03*
X0179195Y0350306D03*
X0175995Y0350306D03*
X0154195Y0350306D03*
X0150995Y0350306D03*
X0150995Y0297494D03*
X0154195Y0297494D03*
X0175995Y0297494D03*
X0179195Y0297494D03*
X0215995Y0297494D03*
X0219195Y0297494D03*
X0240995Y0297494D03*
X0244195Y0297494D03*
X0280995Y0297494D03*
X0284195Y0297494D03*
X0305995Y0297494D03*
X0309195Y0297494D03*
X0345995Y0297494D03*
X0349195Y0297494D03*
X0370995Y0297494D03*
X0374195Y0297494D03*
X0374195Y0350306D03*
X0370995Y0350306D03*
X0349195Y0350306D03*
X0345995Y0350306D03*
X0309195Y0350306D03*
X0305995Y0350306D03*
X0284195Y0350306D03*
X0280995Y0350306D03*
X0281965Y0377994D03*
X0284975Y0378594D03*
X0133495Y0412574D03*
X0132755Y0411214D03*
X0131945Y0409894D03*
X0119135Y0465724D03*
X0116425Y0467294D03*
X0079308Y0496388D03*
X0076417Y0498057D03*
X0076417Y0564743D03*
X0079308Y0566412D03*
X0137060Y0533069D03*
X0137060Y0529731D03*
X0075995Y0397104D03*
X0078675Y0395544D03*
X0095995Y0357173D03*
X0099195Y0357173D03*
X0099195Y0295627D03*
X0095995Y0295627D03*
D12*
X0097595Y0286400D02*
X0063845Y0286400D01*
X0063846Y0286400D02*
X0063469Y0286386D01*
X0063092Y0286382D01*
X0062716Y0286387D01*
X0062339Y0286401D01*
X0061963Y0286424D01*
X0061588Y0286456D01*
X0061214Y0286497D01*
X0060840Y0286547D01*
X0060468Y0286607D01*
X0060098Y0286675D01*
X0059729Y0286753D01*
X0059362Y0286839D01*
X0058998Y0286934D01*
X0058636Y0287038D01*
X0058277Y0287151D01*
X0057920Y0287273D01*
X0057567Y0287403D01*
X0057216Y0287541D01*
X0056870Y0287689D01*
X0056526Y0287844D01*
X0056187Y0288008D01*
X0055852Y0288180D01*
X0055521Y0288360D01*
X0055195Y0288548D01*
X0054873Y0288744D01*
X0054556Y0288948D01*
X0054244Y0289159D01*
X0053938Y0289378D01*
X0053637Y0289604D01*
X0053341Y0289838D01*
X0053051Y0290078D01*
X0052767Y0290326D01*
X0052490Y0290580D01*
X0052218Y0290842D01*
X0051953Y0291109D01*
X0051694Y0291383D01*
X0051443Y0291663D01*
X0051198Y0291950D01*
X0050960Y0292242D01*
X0050729Y0292539D01*
X0050506Y0292843D01*
X0050290Y0293151D01*
X0050081Y0293465D01*
X0049880Y0293784D01*
X0049688Y0294107D01*
X0049503Y0294435D01*
X0049326Y0294768D01*
X0049157Y0295105D01*
X0048996Y0295445D01*
X0048844Y0295790D01*
X0048700Y0296138D01*
X0048564Y0296490D01*
X0048438Y0296844D01*
X0048319Y0297202D01*
X0048210Y0297563D01*
X0048109Y0297926D01*
X0048018Y0298291D01*
X0047935Y0298658D01*
X0047861Y0299028D01*
X0047796Y0299399D01*
X0047740Y0299771D01*
X0047693Y0300145D01*
X0047655Y0300520D01*
X0047627Y0300895D01*
X0047607Y0301272D01*
X0047597Y0301648D01*
X0047596Y0302025D01*
X0047595Y0302025D02*
X0047595Y0360775D01*
X0047595Y0422361D01*
X0240096Y0371400D02*
X0239323Y0368052D01*
X0238489Y0364718D01*
X0237596Y0361400D01*
X0237761Y0361345D01*
X0237926Y0361285D01*
X0238088Y0361221D01*
X0238249Y0361153D01*
X0238409Y0361082D01*
X0238566Y0361006D01*
X0238722Y0360927D01*
X0238876Y0360844D01*
X0239028Y0360757D01*
X0239178Y0360667D01*
X0239325Y0360573D01*
X0239470Y0360476D01*
X0239613Y0360375D01*
X0239753Y0360270D01*
X0239891Y0360163D01*
X0240026Y0360052D01*
X0240158Y0359938D01*
X0240287Y0359820D01*
X0240414Y0359700D01*
X0240538Y0359576D01*
X0240658Y0359450D01*
X0240776Y0359320D01*
X0240890Y0359188D01*
X0241001Y0359053D01*
X0241109Y0358916D01*
X0241214Y0358776D01*
X0241315Y0358633D01*
X0241412Y0358488D01*
X0241506Y0358341D01*
X0241597Y0358191D01*
X0241684Y0358040D01*
X0241767Y0357886D01*
X0241846Y0357730D01*
X0241922Y0357573D01*
X0241994Y0357413D01*
X0242062Y0357252D01*
X0242126Y0357090D01*
X0242186Y0356925D01*
X0242242Y0356760D01*
X0242294Y0356593D01*
X0242342Y0356425D01*
X0242386Y0356256D01*
X0242425Y0356086D01*
X0242461Y0355915D01*
X0242493Y0355743D01*
X0242520Y0355570D01*
X0242543Y0355397D01*
X0242562Y0355223D01*
X0242577Y0355049D01*
X0242588Y0354874D01*
X0242594Y0354700D01*
X0242596Y0354525D01*
X0242595Y0354525D02*
X0242595Y0341400D01*
X0237595Y0361400D02*
X0237035Y0361574D01*
X0236471Y0361734D01*
X0235903Y0361881D01*
X0235332Y0362014D01*
X0234758Y0362133D01*
X0234181Y0362239D01*
X0233602Y0362330D01*
X0233020Y0362408D01*
X0232437Y0362471D01*
X0231853Y0362520D01*
X0231267Y0362556D01*
X0230681Y0362577D01*
X0230095Y0362584D01*
X0229509Y0362577D01*
X0228923Y0362556D01*
X0228337Y0362520D01*
X0227753Y0362471D01*
X0227170Y0362408D01*
X0226588Y0362330D01*
X0226009Y0362239D01*
X0225432Y0362133D01*
X0224858Y0362014D01*
X0224287Y0361881D01*
X0223719Y0361734D01*
X0223155Y0361574D01*
X0222595Y0361400D01*
X0222430Y0361345D01*
X0222265Y0361285D01*
X0222103Y0361221D01*
X0221942Y0361153D01*
X0221782Y0361082D01*
X0221625Y0361006D01*
X0221469Y0360927D01*
X0221315Y0360844D01*
X0221163Y0360757D01*
X0221013Y0360667D01*
X0220866Y0360573D01*
X0220721Y0360476D01*
X0220578Y0360375D01*
X0220438Y0360270D01*
X0220300Y0360163D01*
X0220165Y0360052D01*
X0220033Y0359938D01*
X0219904Y0359820D01*
X0219777Y0359700D01*
X0219653Y0359576D01*
X0219533Y0359450D01*
X0219415Y0359320D01*
X0219301Y0359188D01*
X0219190Y0359053D01*
X0219082Y0358916D01*
X0218977Y0358776D01*
X0218876Y0358633D01*
X0218779Y0358488D01*
X0218685Y0358341D01*
X0218594Y0358191D01*
X0218507Y0358040D01*
X0218424Y0357886D01*
X0218345Y0357730D01*
X0218269Y0357573D01*
X0218197Y0357413D01*
X0218129Y0357252D01*
X0218065Y0357090D01*
X0218005Y0356925D01*
X0217949Y0356760D01*
X0217897Y0356593D01*
X0217849Y0356425D01*
X0217805Y0356256D01*
X0217766Y0356086D01*
X0217730Y0355915D01*
X0217698Y0355743D01*
X0217671Y0355570D01*
X0217648Y0355397D01*
X0217629Y0355223D01*
X0217614Y0355049D01*
X0217603Y0354874D01*
X0217597Y0354700D01*
X0217595Y0354525D01*
X0217595Y0341400D01*
X0187595Y0379525D02*
X0186979Y0379210D01*
X0186370Y0378881D01*
X0185769Y0378537D01*
X0185176Y0378179D01*
X0184593Y0377807D01*
X0184018Y0377420D01*
X0183453Y0377021D01*
X0182897Y0376607D01*
X0182352Y0376181D01*
X0181817Y0375741D01*
X0181293Y0375289D01*
X0180779Y0374825D01*
X0180277Y0374348D01*
X0179787Y0373859D01*
X0179308Y0373359D01*
X0178842Y0372847D01*
X0178388Y0372325D01*
X0177946Y0371791D01*
X0177518Y0371248D01*
X0177102Y0370694D01*
X0176701Y0370130D01*
X0176312Y0369557D01*
X0175938Y0368975D01*
X0175577Y0368383D01*
X0175231Y0367784D01*
X0174900Y0367176D01*
X0174583Y0366560D01*
X0174281Y0365938D01*
X0173994Y0365308D01*
X0173722Y0364671D01*
X0173465Y0364028D01*
X0173224Y0363379D01*
X0172999Y0362724D01*
X0172789Y0362064D01*
X0172595Y0361400D01*
X0172596Y0361400D02*
X0172761Y0361345D01*
X0172926Y0361285D01*
X0173088Y0361221D01*
X0173249Y0361153D01*
X0173409Y0361082D01*
X0173566Y0361006D01*
X0173722Y0360927D01*
X0173876Y0360844D01*
X0174028Y0360757D01*
X0174178Y0360667D01*
X0174325Y0360573D01*
X0174470Y0360476D01*
X0174613Y0360375D01*
X0174753Y0360270D01*
X0174891Y0360163D01*
X0175026Y0360052D01*
X0175158Y0359938D01*
X0175287Y0359820D01*
X0175414Y0359700D01*
X0175538Y0359576D01*
X0175658Y0359450D01*
X0175776Y0359320D01*
X0175890Y0359188D01*
X0176001Y0359053D01*
X0176109Y0358916D01*
X0176214Y0358776D01*
X0176315Y0358633D01*
X0176412Y0358488D01*
X0176506Y0358341D01*
X0176597Y0358191D01*
X0176684Y0358040D01*
X0176767Y0357886D01*
X0176846Y0357730D01*
X0176922Y0357573D01*
X0176994Y0357413D01*
X0177062Y0357252D01*
X0177126Y0357090D01*
X0177186Y0356925D01*
X0177242Y0356760D01*
X0177294Y0356593D01*
X0177342Y0356425D01*
X0177386Y0356256D01*
X0177425Y0356086D01*
X0177461Y0355915D01*
X0177493Y0355743D01*
X0177520Y0355570D01*
X0177543Y0355397D01*
X0177562Y0355223D01*
X0177577Y0355049D01*
X0177588Y0354874D01*
X0177594Y0354700D01*
X0177596Y0354525D01*
X0177595Y0354525D02*
X0177595Y0341400D01*
X0172595Y0350150D02*
X0172595Y0351833D01*
X0157595Y0361400D02*
X0157430Y0361345D01*
X0157265Y0361285D01*
X0157103Y0361221D01*
X0156942Y0361153D01*
X0156782Y0361082D01*
X0156625Y0361006D01*
X0156469Y0360927D01*
X0156315Y0360844D01*
X0156163Y0360757D01*
X0156013Y0360667D01*
X0155866Y0360573D01*
X0155721Y0360476D01*
X0155578Y0360375D01*
X0155438Y0360270D01*
X0155300Y0360163D01*
X0155165Y0360052D01*
X0155033Y0359938D01*
X0154904Y0359820D01*
X0154777Y0359700D01*
X0154653Y0359576D01*
X0154533Y0359450D01*
X0154415Y0359320D01*
X0154301Y0359188D01*
X0154190Y0359053D01*
X0154082Y0358916D01*
X0153977Y0358776D01*
X0153876Y0358633D01*
X0153779Y0358488D01*
X0153685Y0358341D01*
X0153594Y0358191D01*
X0153507Y0358040D01*
X0153424Y0357886D01*
X0153345Y0357730D01*
X0153269Y0357573D01*
X0153197Y0357413D01*
X0153129Y0357252D01*
X0153065Y0357090D01*
X0153005Y0356925D01*
X0152949Y0356760D01*
X0152897Y0356593D01*
X0152849Y0356425D01*
X0152805Y0356256D01*
X0152766Y0356086D01*
X0152730Y0355915D01*
X0152698Y0355743D01*
X0152671Y0355570D01*
X0152648Y0355397D01*
X0152629Y0355223D01*
X0152614Y0355049D01*
X0152603Y0354874D01*
X0152597Y0354700D01*
X0152595Y0354525D01*
X0152595Y0341400D01*
X0157595Y0361400D02*
X0158155Y0361574D01*
X0158719Y0361734D01*
X0159287Y0361881D01*
X0159858Y0362014D01*
X0160432Y0362133D01*
X0161009Y0362239D01*
X0161588Y0362330D01*
X0162170Y0362408D01*
X0162753Y0362471D01*
X0163337Y0362520D01*
X0163923Y0362556D01*
X0164509Y0362577D01*
X0165095Y0362584D01*
X0165681Y0362577D01*
X0166267Y0362556D01*
X0166853Y0362520D01*
X0167437Y0362471D01*
X0168020Y0362408D01*
X0168602Y0362330D01*
X0169181Y0362239D01*
X0169758Y0362133D01*
X0170332Y0362014D01*
X0170903Y0361881D01*
X0171471Y0361734D01*
X0172035Y0361574D01*
X0172595Y0361400D01*
X0154471Y0405150D02*
X0154860Y0406026D01*
X0155270Y0406893D01*
X0155701Y0407749D01*
X0156153Y0408594D01*
X0156625Y0409429D01*
X0157117Y0410252D01*
X0157629Y0411062D01*
X0158160Y0411860D01*
X0158710Y0412645D01*
X0159279Y0413417D01*
X0159866Y0414175D01*
X0160472Y0414918D01*
X0161095Y0415646D01*
X0161736Y0416359D01*
X0162394Y0417057D01*
X0163068Y0417738D01*
X0163759Y0418403D01*
X0164465Y0419051D01*
X0165187Y0419682D01*
X0165924Y0420295D01*
X0166676Y0420890D01*
X0167441Y0421467D01*
X0168221Y0422025D01*
X0168220Y0422025D02*
X0187687Y0433149D01*
X0200095Y0390149D02*
X0199605Y0389482D01*
X0199098Y0388827D01*
X0198575Y0388184D01*
X0198037Y0387554D01*
X0197483Y0386938D01*
X0196914Y0386335D01*
X0196331Y0385746D01*
X0195734Y0385172D01*
X0195123Y0384613D01*
X0194498Y0384068D01*
X0193861Y0383540D01*
X0193210Y0383027D01*
X0192547Y0382530D01*
X0191872Y0382049D01*
X0191186Y0381585D01*
X0190488Y0381138D01*
X0189780Y0380708D01*
X0189061Y0380296D01*
X0188333Y0379901D01*
X0187595Y0379524D01*
X0200095Y0390150D02*
X0211755Y0406426D01*
X0244610Y0391796D02*
X0240095Y0371400D01*
X0284470Y0373275D02*
X0280581Y0391796D01*
X0282595Y0354525D02*
X0282595Y0341400D01*
X0282595Y0354525D02*
X0282597Y0354700D01*
X0282603Y0354874D01*
X0282614Y0355049D01*
X0282629Y0355223D01*
X0282648Y0355397D01*
X0282671Y0355570D01*
X0282698Y0355743D01*
X0282730Y0355915D01*
X0282766Y0356086D01*
X0282805Y0356256D01*
X0282849Y0356425D01*
X0282897Y0356593D01*
X0282949Y0356760D01*
X0283005Y0356925D01*
X0283065Y0357090D01*
X0283129Y0357252D01*
X0283197Y0357413D01*
X0283269Y0357573D01*
X0283345Y0357730D01*
X0283424Y0357886D01*
X0283507Y0358040D01*
X0283594Y0358191D01*
X0283685Y0358341D01*
X0283779Y0358488D01*
X0283876Y0358633D01*
X0283977Y0358776D01*
X0284082Y0358916D01*
X0284190Y0359053D01*
X0284301Y0359188D01*
X0284415Y0359320D01*
X0284533Y0359450D01*
X0284653Y0359576D01*
X0284777Y0359700D01*
X0284904Y0359820D01*
X0285033Y0359938D01*
X0285165Y0360052D01*
X0285300Y0360163D01*
X0285438Y0360270D01*
X0285578Y0360375D01*
X0285721Y0360476D01*
X0285866Y0360573D01*
X0286013Y0360667D01*
X0286163Y0360757D01*
X0286315Y0360844D01*
X0286469Y0360927D01*
X0286625Y0361006D01*
X0286782Y0361082D01*
X0286942Y0361153D01*
X0287103Y0361221D01*
X0287265Y0361285D01*
X0287430Y0361345D01*
X0287595Y0361400D01*
X0302596Y0361400D02*
X0302761Y0361345D01*
X0302926Y0361285D01*
X0303088Y0361221D01*
X0303249Y0361153D01*
X0303409Y0361082D01*
X0303566Y0361006D01*
X0303722Y0360927D01*
X0303876Y0360844D01*
X0304028Y0360757D01*
X0304178Y0360667D01*
X0304325Y0360573D01*
X0304470Y0360476D01*
X0304613Y0360375D01*
X0304753Y0360270D01*
X0304891Y0360163D01*
X0305026Y0360052D01*
X0305158Y0359938D01*
X0305287Y0359820D01*
X0305414Y0359700D01*
X0305538Y0359576D01*
X0305658Y0359450D01*
X0305776Y0359320D01*
X0305890Y0359188D01*
X0306001Y0359053D01*
X0306109Y0358916D01*
X0306214Y0358776D01*
X0306315Y0358633D01*
X0306412Y0358488D01*
X0306506Y0358341D01*
X0306597Y0358191D01*
X0306684Y0358040D01*
X0306767Y0357886D01*
X0306846Y0357730D01*
X0306922Y0357573D01*
X0306994Y0357413D01*
X0307062Y0357252D01*
X0307126Y0357090D01*
X0307186Y0356925D01*
X0307242Y0356760D01*
X0307294Y0356593D01*
X0307342Y0356425D01*
X0307386Y0356256D01*
X0307425Y0356086D01*
X0307461Y0355915D01*
X0307493Y0355743D01*
X0307520Y0355570D01*
X0307543Y0355397D01*
X0307562Y0355223D01*
X0307577Y0355049D01*
X0307588Y0354874D01*
X0307594Y0354700D01*
X0307596Y0354525D01*
X0307595Y0354525D02*
X0307595Y0341400D01*
X0302595Y0361400D02*
X0302035Y0361574D01*
X0301471Y0361734D01*
X0300903Y0361881D01*
X0300332Y0362014D01*
X0299758Y0362133D01*
X0299181Y0362239D01*
X0298602Y0362330D01*
X0298020Y0362408D01*
X0297437Y0362471D01*
X0296853Y0362520D01*
X0296267Y0362556D01*
X0295681Y0362577D01*
X0295095Y0362584D01*
X0294509Y0362577D01*
X0293923Y0362556D01*
X0293337Y0362520D01*
X0292753Y0362471D01*
X0292170Y0362408D01*
X0291588Y0362330D01*
X0291009Y0362239D01*
X0290432Y0362133D01*
X0289858Y0362014D01*
X0289287Y0361881D01*
X0288719Y0361734D01*
X0288155Y0361574D01*
X0287595Y0361400D01*
X0356970Y0422025D02*
X0358490Y0421037D01*
X0359987Y0420014D01*
X0361458Y0418954D01*
X0362904Y0417860D01*
X0364323Y0416732D01*
X0365715Y0415570D01*
X0367078Y0414376D01*
X0368413Y0413149D01*
X0369718Y0411890D01*
X0370992Y0410600D01*
X0372235Y0409281D01*
X0373447Y0407932D01*
X0374625Y0406555D01*
X0375771Y0405149D01*
X0376882Y0403717D01*
X0377959Y0402259D01*
X0379001Y0400775D01*
X0395720Y0456400D02*
X0394380Y0457177D01*
X0393022Y0457922D01*
X0391646Y0458635D01*
X0390254Y0459314D01*
X0388845Y0459959D01*
X0387422Y0460571D01*
X0385984Y0461148D01*
X0384533Y0461691D01*
X0383069Y0462198D01*
X0381594Y0462670D01*
X0380108Y0463107D01*
X0378611Y0463508D01*
X0377105Y0463873D01*
X0375591Y0464201D01*
X0374070Y0464494D01*
X0372542Y0464749D01*
X0371008Y0464968D01*
X0369470Y0465150D01*
X0348618Y0467362D01*
X0349158Y0550150D02*
X0350444Y0550236D01*
X0351732Y0550292D01*
X0353021Y0550317D01*
X0354310Y0550312D01*
X0355599Y0550275D01*
X0356886Y0550208D01*
X0358172Y0550109D01*
X0359454Y0549980D01*
X0360733Y0549821D01*
X0362008Y0549631D01*
X0363278Y0549410D01*
X0364543Y0549159D01*
X0365801Y0548878D01*
X0367052Y0548566D01*
X0368295Y0548225D01*
X0369530Y0547854D01*
X0370755Y0547454D01*
X0371971Y0547025D01*
X0349157Y0550150D02*
X0348800Y0550117D01*
X0348443Y0550076D01*
X0348088Y0550026D01*
X0347734Y0549968D01*
X0347381Y0549901D01*
X0347031Y0549825D01*
X0346682Y0549741D01*
X0346335Y0549649D01*
X0345990Y0549548D01*
X0345648Y0549439D01*
X0345309Y0549322D01*
X0344973Y0549197D01*
X0344640Y0549063D01*
X0344310Y0548922D01*
X0343983Y0548773D01*
X0343661Y0548616D01*
X0343342Y0548451D01*
X0343027Y0548278D01*
X0342717Y0548098D01*
X0342411Y0547911D01*
X0342109Y0547716D01*
X0341813Y0547514D01*
X0341521Y0547305D01*
X0341234Y0547089D01*
X0340953Y0546866D01*
X0340677Y0546636D01*
X0340407Y0546400D01*
X0340408Y0546400D02*
X0326877Y0534281D01*
X0305605Y0572710D02*
X0305795Y0573055D01*
X0305993Y0573396D01*
X0306199Y0573733D01*
X0306413Y0574064D01*
X0306635Y0574389D01*
X0306865Y0574710D01*
X0307103Y0575025D01*
X0307348Y0575334D01*
X0307600Y0575637D01*
X0307860Y0575934D01*
X0308126Y0576224D01*
X0308400Y0576508D01*
X0308680Y0576786D01*
X0308967Y0577056D01*
X0309260Y0577320D01*
X0309560Y0577577D01*
X0309865Y0577826D01*
X0310177Y0578068D01*
X0310494Y0578302D01*
X0310817Y0578529D01*
X0311145Y0578748D01*
X0311478Y0578958D01*
X0311816Y0579161D01*
X0312159Y0579356D01*
X0312507Y0579542D01*
X0312859Y0579720D01*
X0313215Y0579890D01*
X0313575Y0580051D01*
X0313939Y0580203D01*
X0314306Y0580346D01*
X0314677Y0580481D01*
X0315051Y0580606D01*
X0315428Y0580723D01*
X0315807Y0580830D01*
X0316189Y0580929D01*
X0316573Y0581018D01*
X0316959Y0581098D01*
X0317347Y0581169D01*
X0317737Y0581230D01*
X0318128Y0581282D01*
X0318520Y0581324D01*
X0318913Y0581357D01*
X0319307Y0581381D01*
X0319701Y0581395D01*
X0320095Y0581400D01*
X0362595Y0581400D01*
X0405408Y0541400D02*
X0457595Y0541400D01*
X0432595Y0446400D02*
X0430913Y0446407D01*
X0429231Y0446453D01*
X0427552Y0446539D01*
X0425874Y0446665D01*
X0424201Y0446830D01*
X0422531Y0447036D01*
X0420867Y0447281D01*
X0419210Y0447565D01*
X0417559Y0447889D01*
X0415917Y0448251D01*
X0414283Y0448653D01*
X0412660Y0449093D01*
X0411048Y0449572D01*
X0409447Y0450088D01*
X0407859Y0450643D01*
X0406285Y0451235D01*
X0404725Y0451864D01*
X0403181Y0452531D01*
X0401653Y0453233D01*
X0400142Y0453972D01*
X0398649Y0454746D01*
X0397174Y0455556D01*
X0395720Y0456400D01*
X0379002Y0400775D02*
X0379532Y0400019D01*
X0380081Y0399276D01*
X0380648Y0398547D01*
X0381233Y0397832D01*
X0381834Y0397132D01*
X0382452Y0396446D01*
X0383087Y0395775D01*
X0383738Y0395120D01*
X0384405Y0394481D01*
X0385087Y0393858D01*
X0385783Y0393252D01*
X0386495Y0392663D01*
X0387220Y0392092D01*
X0387959Y0391538D01*
X0388711Y0391002D01*
X0389476Y0390485D01*
X0390254Y0389987D01*
X0391043Y0389507D01*
X0391843Y0389047D01*
X0392655Y0388606D01*
X0393477Y0388186D01*
X0394309Y0387785D01*
X0395150Y0387404D01*
X0396001Y0387044D01*
X0396860Y0386705D01*
X0397727Y0386387D01*
X0398601Y0386090D01*
X0399482Y0385814D01*
X0400370Y0385560D01*
X0401264Y0385327D01*
X0402163Y0385116D01*
X0403067Y0384927D01*
X0403975Y0384760D01*
X0404887Y0384615D01*
X0405802Y0384492D01*
X0406720Y0384391D01*
X0407640Y0384313D01*
X0408562Y0384257D01*
X0409485Y0384223D01*
X0410408Y0384212D01*
X0417751Y0384212D01*
X0425408Y0384212D01*
X0432595Y0391400D01*
X0417751Y0384212D02*
X0417759Y0383785D01*
X0417776Y0383359D01*
X0417804Y0382933D01*
X0417843Y0382508D01*
X0417892Y0382083D01*
X0417951Y0381660D01*
X0418021Y0381239D01*
X0418100Y0380820D01*
X0418190Y0380402D01*
X0418290Y0379987D01*
X0418401Y0379575D01*
X0418521Y0379165D01*
X0418651Y0378758D01*
X0418791Y0378355D01*
X0418941Y0377955D01*
X0419101Y0377559D01*
X0419270Y0377167D01*
X0419449Y0376780D01*
X0419637Y0376396D01*
X0419835Y0376018D01*
X0420042Y0375644D01*
X0420257Y0375276D01*
X0420482Y0374913D01*
X0420715Y0374555D01*
X0420958Y0374203D01*
X0421208Y0373858D01*
X0421467Y0373518D01*
X0421734Y0373185D01*
X0422010Y0372859D01*
X0422293Y0372539D01*
X0422584Y0372227D01*
X0422882Y0371921D01*
X0423188Y0371623D01*
X0423501Y0371333D01*
X0423821Y0371050D01*
X0424147Y0370775D01*
X0424481Y0370508D01*
X0424821Y0370250D01*
X0425167Y0369999D01*
X0425519Y0369758D01*
X0425876Y0369525D01*
X0427595Y0366400D02*
X0427595Y0345400D01*
X0427595Y0366400D02*
X0427593Y0366520D01*
X0427587Y0366640D01*
X0427577Y0366760D01*
X0427564Y0366879D01*
X0427546Y0366998D01*
X0427525Y0367116D01*
X0427500Y0367233D01*
X0427471Y0367350D01*
X0427438Y0367465D01*
X0427402Y0367579D01*
X0427362Y0367693D01*
X0427318Y0367804D01*
X0427271Y0367915D01*
X0427220Y0368023D01*
X0427165Y0368130D01*
X0427108Y0368235D01*
X0427046Y0368339D01*
X0426982Y0368440D01*
X0426914Y0368539D01*
X0426843Y0368636D01*
X0426769Y0368730D01*
X0426692Y0368822D01*
X0426612Y0368912D01*
X0426529Y0368998D01*
X0426443Y0369083D01*
X0426355Y0369164D01*
X0426264Y0369242D01*
X0426171Y0369317D01*
X0426075Y0369390D01*
X0425977Y0369459D01*
X0425876Y0369525D01*
X0287595Y0361400D02*
X0286875Y0363749D01*
X0286202Y0366112D01*
X0285576Y0368488D01*
X0284999Y0370876D01*
X0284470Y0373275D01*
X0323845Y0392025D02*
X0313436Y0406426D01*
X0337503Y0433149D02*
X0356970Y0422025D01*
X0323845Y0392025D02*
X0324365Y0391324D01*
X0324901Y0390636D01*
X0325452Y0389960D01*
X0326020Y0389298D01*
X0326603Y0388649D01*
X0327202Y0388014D01*
X0327815Y0387393D01*
X0328443Y0386788D01*
X0329085Y0386197D01*
X0329740Y0385621D01*
X0330409Y0385061D01*
X0331091Y0384517D01*
X0331786Y0383990D01*
X0332493Y0383479D01*
X0333212Y0382984D01*
X0333942Y0382507D01*
X0334684Y0382048D01*
X0335436Y0381605D01*
X0336198Y0381181D01*
X0336970Y0380775D01*
X0347595Y0354525D02*
X0347595Y0341400D01*
X0352595Y0361400D02*
X0353155Y0361574D01*
X0353719Y0361734D01*
X0354287Y0361881D01*
X0354858Y0362014D01*
X0355432Y0362133D01*
X0356009Y0362239D01*
X0356588Y0362330D01*
X0357170Y0362408D01*
X0357753Y0362471D01*
X0358337Y0362520D01*
X0358923Y0362556D01*
X0359509Y0362577D01*
X0360095Y0362584D01*
X0360681Y0362577D01*
X0361267Y0362556D01*
X0361853Y0362520D01*
X0362437Y0362471D01*
X0363020Y0362408D01*
X0363602Y0362330D01*
X0364181Y0362239D01*
X0364758Y0362133D01*
X0365332Y0362014D01*
X0365903Y0361881D01*
X0366471Y0361734D01*
X0367035Y0361574D01*
X0367595Y0361400D01*
X0367596Y0361400D02*
X0367761Y0361345D01*
X0367926Y0361285D01*
X0368088Y0361221D01*
X0368249Y0361153D01*
X0368409Y0361082D01*
X0368566Y0361006D01*
X0368722Y0360927D01*
X0368876Y0360844D01*
X0369028Y0360757D01*
X0369178Y0360667D01*
X0369325Y0360573D01*
X0369470Y0360476D01*
X0369613Y0360375D01*
X0369753Y0360270D01*
X0369891Y0360163D01*
X0370026Y0360052D01*
X0370158Y0359938D01*
X0370287Y0359820D01*
X0370414Y0359700D01*
X0370538Y0359576D01*
X0370658Y0359450D01*
X0370776Y0359320D01*
X0370890Y0359188D01*
X0371001Y0359053D01*
X0371109Y0358916D01*
X0371214Y0358776D01*
X0371315Y0358633D01*
X0371412Y0358488D01*
X0371506Y0358341D01*
X0371597Y0358191D01*
X0371684Y0358040D01*
X0371767Y0357886D01*
X0371846Y0357730D01*
X0371922Y0357573D01*
X0371994Y0357413D01*
X0372062Y0357252D01*
X0372126Y0357090D01*
X0372186Y0356925D01*
X0372242Y0356760D01*
X0372294Y0356593D01*
X0372342Y0356425D01*
X0372386Y0356256D01*
X0372425Y0356086D01*
X0372461Y0355915D01*
X0372493Y0355743D01*
X0372520Y0355570D01*
X0372543Y0355397D01*
X0372562Y0355223D01*
X0372577Y0355049D01*
X0372588Y0354874D01*
X0372594Y0354700D01*
X0372596Y0354525D01*
X0372595Y0354525D02*
X0372595Y0341400D01*
X0347595Y0354525D02*
X0347597Y0354700D01*
X0347603Y0354874D01*
X0347614Y0355049D01*
X0347629Y0355223D01*
X0347648Y0355397D01*
X0347671Y0355570D01*
X0347698Y0355743D01*
X0347730Y0355915D01*
X0347766Y0356086D01*
X0347805Y0356256D01*
X0347849Y0356425D01*
X0347897Y0356593D01*
X0347949Y0356760D01*
X0348005Y0356925D01*
X0348065Y0357090D01*
X0348129Y0357252D01*
X0348197Y0357413D01*
X0348269Y0357573D01*
X0348345Y0357730D01*
X0348424Y0357886D01*
X0348507Y0358040D01*
X0348594Y0358191D01*
X0348685Y0358341D01*
X0348779Y0358488D01*
X0348876Y0358633D01*
X0348977Y0358776D01*
X0349082Y0358916D01*
X0349190Y0359053D01*
X0349301Y0359188D01*
X0349415Y0359320D01*
X0349533Y0359450D01*
X0349653Y0359576D01*
X0349777Y0359700D01*
X0349904Y0359820D01*
X0350033Y0359938D01*
X0350165Y0360052D01*
X0350300Y0360163D01*
X0350438Y0360270D01*
X0350578Y0360375D01*
X0350721Y0360476D01*
X0350866Y0360573D01*
X0351013Y0360667D01*
X0351163Y0360757D01*
X0351315Y0360844D01*
X0351469Y0360927D01*
X0351625Y0361006D01*
X0351782Y0361082D01*
X0351942Y0361153D01*
X0352103Y0361221D01*
X0352265Y0361285D01*
X0352430Y0361345D01*
X0352595Y0361400D01*
X0352399Y0362106D01*
X0352187Y0362807D01*
X0351957Y0363502D01*
X0351711Y0364192D01*
X0351448Y0364876D01*
X0351169Y0365553D01*
X0350874Y0366224D01*
X0350563Y0366887D01*
X0350236Y0367542D01*
X0349893Y0368189D01*
X0349535Y0368828D01*
X0349162Y0369459D01*
X0348773Y0370080D01*
X0348370Y0370691D01*
X0347953Y0371293D01*
X0347521Y0371885D01*
X0347075Y0372466D01*
X0346615Y0373036D01*
X0346142Y0373595D01*
X0345655Y0374142D01*
X0345155Y0374678D01*
X0344643Y0375201D01*
X0344118Y0375712D01*
X0343582Y0376211D01*
X0343033Y0376696D01*
X0342473Y0377168D01*
X0341902Y0377626D01*
X0341319Y0378071D01*
X0340727Y0378501D01*
X0340124Y0378918D01*
X0339512Y0379319D01*
X0338890Y0379706D01*
X0338258Y0380078D01*
X0337619Y0380434D01*
X0336970Y0380775D01*
X0347595Y0306400D02*
X0347595Y0286400D01*
X0307595Y0286400D01*
X0282595Y0286400D01*
X0242595Y0286400D01*
X0217595Y0286400D01*
X0177595Y0286400D01*
X0152595Y0286400D01*
X0097595Y0286400D01*
X0097595Y0310400D01*
X0097595Y0342400D02*
X0097595Y0359525D01*
X0097596Y0359525D02*
X0097598Y0359651D01*
X0097604Y0359776D01*
X0097613Y0359902D01*
X0097627Y0360027D01*
X0097645Y0360151D01*
X0097666Y0360275D01*
X0097691Y0360398D01*
X0097720Y0360520D01*
X0097753Y0360642D01*
X0097789Y0360762D01*
X0097829Y0360881D01*
X0097873Y0360999D01*
X0097920Y0361115D01*
X0097971Y0361230D01*
X0098026Y0361344D01*
X0098084Y0361455D01*
X0098145Y0361565D01*
X0098210Y0361673D01*
X0098278Y0361778D01*
X0098350Y0361882D01*
X0098424Y0361983D01*
X0098502Y0362082D01*
X0098582Y0362178D01*
X0098666Y0362272D01*
X0098752Y0362363D01*
X0098842Y0362452D01*
X0098933Y0362538D01*
X0099028Y0362621D01*
X0099125Y0362700D01*
X0099224Y0362777D01*
X0099326Y0362851D01*
X0099430Y0362922D01*
X0099536Y0362989D01*
X0099645Y0363053D01*
X0099755Y0363114D01*
X0099867Y0363171D01*
X0099980Y0363224D01*
X0100096Y0363275D01*
X0073220Y0384525D02*
X0073220Y0384897D01*
X0073230Y0385269D01*
X0073249Y0385641D01*
X0073276Y0386012D01*
X0073313Y0386382D01*
X0073359Y0386751D01*
X0073414Y0387120D01*
X0073477Y0387486D01*
X0073550Y0387851D01*
X0073631Y0388214D01*
X0073721Y0388575D01*
X0073821Y0388934D01*
X0073928Y0389290D01*
X0074045Y0389644D01*
X0074170Y0389995D01*
X0074303Y0390342D01*
X0074445Y0390686D01*
X0074595Y0391027D01*
X0074754Y0391363D01*
X0074920Y0391696D01*
X0075095Y0392025D01*
X0079295Y0399700D01*
X0078220Y0397650D02*
X0076970Y0395775D01*
X0133845Y0392650D02*
X0134750Y0393740D01*
X0135628Y0394852D01*
X0136478Y0395985D01*
X0137301Y0397138D01*
X0138095Y0398312D01*
X0138860Y0399504D01*
X0139595Y0400715D01*
X0140301Y0401943D01*
X0140976Y0403188D01*
X0141621Y0404449D01*
X0142234Y0405726D01*
X0142816Y0407018D01*
X0143366Y0408323D01*
X0143885Y0409641D01*
X0144370Y0410972D01*
X0144823Y0412314D01*
X0145243Y0413667D01*
X0145630Y0415030D01*
X0145983Y0416402D01*
X0146303Y0417782D01*
X0146588Y0419169D01*
X0146840Y0420563D01*
X0147057Y0421963D01*
X0147240Y0423367D01*
X0147389Y0424776D01*
X0147503Y0426188D01*
X0147582Y0427602D01*
X0147627Y0429018D01*
X0147637Y0430435D01*
X0147613Y0431851D01*
X0147553Y0433266D01*
X0147459Y0434680D01*
X0147331Y0436091D01*
X0147168Y0437498D01*
X0146970Y0438900D01*
X0138109Y0431457D02*
X0136630Y0431486D01*
X0059898Y0467051D02*
X0058829Y0465206D01*
X0057805Y0463335D01*
X0056828Y0461440D01*
X0055897Y0459522D01*
X0055013Y0457581D01*
X0054177Y0455619D01*
X0053389Y0453638D01*
X0052649Y0451638D01*
X0051959Y0449620D01*
X0051318Y0447586D01*
X0050727Y0445537D01*
X0050186Y0443475D01*
X0049696Y0441399D01*
X0049256Y0439313D01*
X0048868Y0437216D01*
X0048531Y0435110D01*
X0048245Y0432997D01*
X0048011Y0430877D01*
X0047829Y0428753D01*
X0047699Y0426624D01*
X0047621Y0424493D01*
X0047595Y0422361D01*
X0059898Y0467052D02*
X0076736Y0495317D01*
X0082595Y0505419D01*
X0078220Y0497650D02*
X0076970Y0495775D01*
X0123845Y0480150D02*
X0123477Y0478912D01*
X0123079Y0477683D01*
X0122651Y0476464D01*
X0122193Y0475256D01*
X0121707Y0474060D01*
X0121191Y0472876D01*
X0120647Y0471704D01*
X0120074Y0470547D01*
X0119473Y0469403D01*
X0118845Y0468275D01*
X0112359Y0456951D01*
X0154471Y0405150D02*
X0153789Y0403732D01*
X0153072Y0402331D01*
X0152321Y0400948D01*
X0151537Y0399583D01*
X0150721Y0398238D01*
X0149871Y0396913D01*
X0148990Y0395610D01*
X0148077Y0394328D01*
X0147134Y0393068D01*
X0146160Y0391832D01*
X0145156Y0390620D01*
X0144123Y0389433D01*
X0143062Y0388271D01*
X0141972Y0387135D01*
X0140856Y0386027D01*
X0139712Y0384945D01*
X0138543Y0383892D01*
X0137349Y0382867D01*
X0136130Y0381872D01*
X0134887Y0380907D01*
X0133621Y0379972D01*
X0132332Y0379069D01*
X0131022Y0378197D01*
X0129692Y0377357D01*
X0128341Y0376549D01*
X0126971Y0375775D01*
X0078846Y0364526D02*
X0078306Y0365557D01*
X0077792Y0366600D01*
X0077303Y0367656D01*
X0076841Y0368724D01*
X0076405Y0369803D01*
X0075995Y0370892D01*
X0075612Y0371990D01*
X0075256Y0373098D01*
X0074927Y0374214D01*
X0074626Y0375338D01*
X0074352Y0376469D01*
X0074106Y0377607D01*
X0073888Y0378750D01*
X0073698Y0379897D01*
X0073536Y0381050D01*
X0073403Y0382206D01*
X0073298Y0383364D01*
X0073221Y0384525D01*
X0115720Y0378276D02*
X0117005Y0378957D01*
X0118274Y0379670D01*
X0119524Y0380413D01*
X0120757Y0381187D01*
X0121970Y0381991D01*
X0123163Y0382824D01*
X0124335Y0383686D01*
X0125486Y0384576D01*
X0126615Y0385494D01*
X0127721Y0386439D01*
X0128804Y0387411D01*
X0129862Y0388409D01*
X0130897Y0389433D01*
X0131905Y0390481D01*
X0132888Y0391554D01*
X0133845Y0392651D01*
X0145876Y0452650D02*
X0145878Y0452955D01*
X0145887Y0453260D01*
X0145904Y0453564D01*
X0145928Y0453868D01*
X0145959Y0454172D01*
X0145998Y0454474D01*
X0146044Y0454776D01*
X0146098Y0455076D01*
X0146159Y0455375D01*
X0146227Y0455673D01*
X0146302Y0455968D01*
X0146385Y0456262D01*
X0146474Y0456554D01*
X0146571Y0456843D01*
X0146675Y0457130D01*
X0146786Y0457414D01*
X0146904Y0457696D01*
X0147028Y0457974D01*
X0147160Y0458250D01*
X0147298Y0458522D01*
X0147442Y0458790D01*
X0147594Y0459055D01*
X0147751Y0459317D01*
X0147915Y0459574D01*
X0148085Y0459827D01*
X0148261Y0460076D01*
X0148444Y0460321D01*
X0148632Y0460561D01*
X0148826Y0460796D01*
X0149026Y0461027D01*
X0149231Y0461253D01*
X0149442Y0461473D01*
X0149658Y0461689D01*
X0149879Y0461899D01*
X0150105Y0462103D01*
X0150337Y0462302D01*
X0150573Y0462496D01*
X0150813Y0462683D01*
X0151059Y0462865D01*
X0151308Y0463040D01*
X0151562Y0463210D01*
X0151820Y0463373D01*
X0152081Y0463530D01*
X0152347Y0463680D01*
X0152616Y0463824D01*
X0152888Y0463961D01*
X0153164Y0464091D01*
X0153443Y0464215D01*
X0153725Y0464332D01*
X0154010Y0464442D01*
X0154297Y0464545D01*
X0154586Y0464641D01*
X0154878Y0464730D01*
X0155172Y0464812D01*
X0155468Y0464886D01*
X0155766Y0464953D01*
X0156065Y0465013D01*
X0156365Y0465066D01*
X0156667Y0465111D01*
X0156970Y0465149D01*
X0156970Y0465150D02*
X0176573Y0467362D01*
X0123845Y0480150D02*
X0124296Y0481669D01*
X0124782Y0483178D01*
X0125302Y0484674D01*
X0125856Y0486159D01*
X0126445Y0487630D01*
X0127068Y0489087D01*
X0127724Y0490529D01*
X0128413Y0491956D01*
X0129135Y0493367D01*
X0129889Y0494761D01*
X0130675Y0496136D01*
X0131492Y0497494D01*
X0132341Y0498832D01*
X0133220Y0500150D01*
X0133560Y0500634D01*
X0133912Y0501111D01*
X0134275Y0501578D01*
X0134649Y0502037D01*
X0135035Y0502486D01*
X0135432Y0502926D01*
X0135839Y0503356D01*
X0136256Y0503776D01*
X0136684Y0504185D01*
X0137121Y0504584D01*
X0137568Y0504973D01*
X0138024Y0505350D01*
X0138489Y0505716D01*
X0138963Y0506071D01*
X0139446Y0506414D01*
X0139937Y0506746D01*
X0140435Y0507065D01*
X0140942Y0507372D01*
X0141455Y0507666D01*
X0141976Y0507948D01*
X0142503Y0508218D01*
X0143037Y0508474D01*
X0143577Y0508717D01*
X0144122Y0508947D01*
X0144674Y0509164D01*
X0145230Y0509367D01*
X0145791Y0509557D01*
X0146356Y0509733D01*
X0146925Y0509895D01*
X0147499Y0510043D01*
X0148075Y0510177D01*
X0148655Y0510297D01*
X0149238Y0510403D01*
X0149823Y0510495D01*
X0150410Y0510573D01*
X0150998Y0510636D01*
X0151588Y0510685D01*
X0152180Y0510719D01*
X0152771Y0510739D01*
X0153363Y0510745D01*
X0153955Y0510736D01*
X0154547Y0510713D01*
X0155138Y0510676D01*
X0155728Y0510624D01*
X0156316Y0510557D01*
X0156903Y0510477D01*
X0157487Y0510382D01*
X0158069Y0510273D01*
X0158648Y0510150D01*
X0159224Y0510013D01*
X0159797Y0509862D01*
X0160366Y0509697D01*
X0160930Y0509518D01*
X0161490Y0509325D01*
X0162045Y0509119D01*
X0162595Y0508900D01*
X0180337Y0503134D01*
X0145720Y0536400D02*
X0146156Y0537239D01*
X0146611Y0538067D01*
X0147087Y0538885D01*
X0147581Y0539690D01*
X0148094Y0540484D01*
X0148626Y0541265D01*
X0149176Y0542034D01*
X0149745Y0542789D01*
X0150331Y0543531D01*
X0150934Y0544259D01*
X0151555Y0544972D01*
X0152192Y0545670D01*
X0152845Y0546353D01*
X0153515Y0547020D01*
X0154200Y0547672D01*
X0154900Y0548306D01*
X0155615Y0548925D01*
X0156345Y0549526D01*
X0156345Y0549525D02*
X0156708Y0549810D01*
X0157078Y0550085D01*
X0157454Y0550352D01*
X0157837Y0550609D01*
X0158226Y0550856D01*
X0158621Y0551094D01*
X0159022Y0551323D01*
X0159428Y0551541D01*
X0159840Y0551749D01*
X0160256Y0551947D01*
X0160677Y0552135D01*
X0161103Y0552313D01*
X0161533Y0552480D01*
X0161967Y0552636D01*
X0162404Y0552782D01*
X0162845Y0552917D01*
X0163290Y0553041D01*
X0163737Y0553154D01*
X0164186Y0553256D01*
X0164639Y0553347D01*
X0165093Y0553427D01*
X0165549Y0553496D01*
X0166006Y0553553D01*
X0166465Y0553600D01*
X0166925Y0553635D01*
X0167386Y0553659D01*
X0167847Y0553671D01*
X0168308Y0553672D01*
X0168769Y0553662D01*
X0169230Y0553640D01*
X0169690Y0553608D01*
X0170149Y0553564D01*
X0170607Y0553508D01*
X0171063Y0553442D01*
X0171518Y0553364D01*
X0171970Y0553275D01*
X0183220Y0547650D02*
X0198313Y0534281D01*
X0218846Y0576401D02*
X0218620Y0576877D01*
X0218382Y0577347D01*
X0218133Y0577812D01*
X0217872Y0578270D01*
X0217600Y0578722D01*
X0217318Y0579166D01*
X0217024Y0579604D01*
X0216720Y0580035D01*
X0216406Y0580458D01*
X0216081Y0580873D01*
X0215746Y0581280D01*
X0215401Y0581678D01*
X0215046Y0582069D01*
X0214683Y0582450D01*
X0214309Y0582822D01*
X0213927Y0583185D01*
X0213536Y0583539D01*
X0213137Y0583882D01*
X0212729Y0584216D01*
X0212313Y0584540D01*
X0211889Y0584854D01*
X0211458Y0585157D01*
X0211019Y0585449D01*
X0210574Y0585731D01*
X0210121Y0586001D01*
X0209662Y0586261D01*
X0209197Y0586509D01*
X0208726Y0586745D01*
X0208250Y0586970D01*
X0207768Y0587183D01*
X0207280Y0587385D01*
X0206788Y0587574D01*
X0206292Y0587751D01*
X0205791Y0587916D01*
X0205287Y0588069D01*
X0204779Y0588209D01*
X0204267Y0588337D01*
X0203753Y0588452D01*
X0203236Y0588554D01*
X0202717Y0588644D01*
X0202195Y0588721D01*
X0201672Y0588785D01*
X0201147Y0588837D01*
X0200622Y0588875D01*
X0200095Y0588901D01*
X0200095Y0588900D02*
X0085720Y0588900D01*
X0085720Y0588901D02*
X0085427Y0588914D01*
X0085133Y0588920D01*
X0084839Y0588918D01*
X0084546Y0588910D01*
X0084253Y0588894D01*
X0083960Y0588872D01*
X0083667Y0588842D01*
X0083376Y0588805D01*
X0083086Y0588761D01*
X0082796Y0588709D01*
X0082508Y0588651D01*
X0082222Y0588586D01*
X0081937Y0588513D01*
X0081655Y0588434D01*
X0081374Y0588348D01*
X0081095Y0588255D01*
X0080819Y0588155D01*
X0080545Y0588049D01*
X0080274Y0587936D01*
X0080006Y0587816D01*
X0079740Y0587690D01*
X0079478Y0587557D01*
X0079220Y0587418D01*
X0078964Y0587273D01*
X0078713Y0587121D01*
X0078465Y0586964D01*
X0078221Y0586800D01*
X0077981Y0586631D01*
X0077745Y0586455D01*
X0077514Y0586274D01*
X0077287Y0586087D01*
X0077065Y0585895D01*
X0076848Y0585698D01*
X0076635Y0585495D01*
X0076428Y0585287D01*
X0076225Y0585074D01*
X0076028Y0584856D01*
X0075836Y0584634D01*
X0075650Y0584407D01*
X0075470Y0584175D01*
X0075295Y0583939D01*
X0075126Y0583699D01*
X0074962Y0583454D01*
X0074805Y0583206D01*
X0074654Y0582954D01*
X0074509Y0582699D01*
X0074371Y0582440D01*
X0074239Y0582177D01*
X0074113Y0581912D01*
X0073994Y0581643D01*
X0073881Y0581372D01*
X0073775Y0581098D01*
X0073676Y0580822D01*
X0073584Y0580543D01*
X0073498Y0580262D01*
X0073420Y0579979D01*
X0073348Y0579694D01*
X0073283Y0579407D01*
X0073225Y0579119D01*
X0073175Y0578830D01*
X0073131Y0578540D01*
X0073095Y0578248D01*
X0073065Y0577956D01*
X0073043Y0577663D01*
X0073028Y0577370D01*
X0073020Y0577076D01*
X0073020Y0576782D01*
X0073026Y0576489D01*
X0073040Y0576195D01*
X0073061Y0575902D01*
X0073089Y0575610D01*
X0073124Y0575318D01*
X0073166Y0575027D01*
X0073215Y0574738D01*
X0073272Y0574450D01*
X0073335Y0574163D01*
X0073406Y0573878D01*
X0073483Y0573594D01*
X0073567Y0573313D01*
X0073659Y0573034D01*
X0073757Y0572757D01*
X0073861Y0572482D01*
X0073973Y0572210D01*
X0074091Y0571941D01*
X0074215Y0571675D01*
X0074346Y0571412D01*
X0074483Y0571153D01*
X0074627Y0570897D01*
X0074777Y0570644D01*
X0074933Y0570395D01*
X0075095Y0570150D01*
X0077195Y0566804D01*
X0082595Y0557381D01*
X0136630Y0531486D02*
X0138109Y0531457D01*
X0137595Y0531400D02*
X0137818Y0531403D01*
X0138041Y0531411D01*
X0138264Y0531425D01*
X0138486Y0531444D01*
X0138708Y0531468D01*
X0138929Y0531498D01*
X0139149Y0531534D01*
X0139369Y0531575D01*
X0139587Y0531621D01*
X0139804Y0531672D01*
X0140020Y0531729D01*
X0140234Y0531791D01*
X0140447Y0531858D01*
X0140658Y0531931D01*
X0140867Y0532009D01*
X0141075Y0532091D01*
X0141280Y0532179D01*
X0141483Y0532272D01*
X0141683Y0532370D01*
X0141882Y0532473D01*
X0142077Y0532580D01*
X0142270Y0532692D01*
X0142460Y0532809D01*
X0142647Y0532931D01*
X0142831Y0533057D01*
X0143012Y0533188D01*
X0143190Y0533323D01*
X0143364Y0533462D01*
X0143535Y0533605D01*
X0143702Y0533753D01*
X0143866Y0533905D01*
X0144026Y0534061D01*
X0144182Y0534220D01*
X0144334Y0534384D01*
X0144482Y0534551D01*
X0144626Y0534721D01*
X0144765Y0534895D01*
X0144900Y0535073D01*
X0145031Y0535254D01*
X0145158Y0535437D01*
X0145280Y0535624D01*
X0145397Y0535814D01*
X0145510Y0536007D01*
X0145617Y0536202D01*
X0145720Y0536400D01*
X0171970Y0553275D02*
X0172561Y0553144D01*
X0173149Y0552998D01*
X0173733Y0552838D01*
X0174313Y0552664D01*
X0174888Y0552475D01*
X0175459Y0552273D01*
X0176025Y0552056D01*
X0176585Y0551826D01*
X0177139Y0551582D01*
X0177687Y0551325D01*
X0178229Y0551054D01*
X0178764Y0550770D01*
X0179292Y0550473D01*
X0179812Y0550163D01*
X0180324Y0549840D01*
X0180829Y0549505D01*
X0181325Y0549158D01*
X0181812Y0548798D01*
X0182291Y0548427D01*
X0182760Y0548044D01*
X0183220Y0547650D01*
X0227413Y0555422D02*
X0218845Y0576400D01*
X0297777Y0555422D02*
X0305605Y0572710D01*
X0344853Y0503134D02*
X0363220Y0509212D01*
X0363791Y0509394D01*
X0364367Y0509561D01*
X0364946Y0509715D01*
X0365528Y0509855D01*
X0366114Y0509981D01*
X0366702Y0510093D01*
X0367294Y0510191D01*
X0367887Y0510274D01*
X0368482Y0510344D01*
X0369078Y0510399D01*
X0369676Y0510440D01*
X0370275Y0510466D01*
X0370874Y0510478D01*
X0371473Y0510476D01*
X0372072Y0510459D01*
X0372670Y0510428D01*
X0373267Y0510383D01*
X0373864Y0510324D01*
X0374458Y0510250D01*
X0375051Y0510162D01*
X0375641Y0510059D01*
X0376229Y0509943D01*
X0376814Y0509813D01*
X0377395Y0509668D01*
X0377973Y0509510D01*
X0378547Y0509338D01*
X0379116Y0509152D01*
X0379681Y0508953D01*
X0380241Y0508740D01*
X0380796Y0508514D01*
X0381345Y0508275D01*
X0432595Y0501400D02*
X0457595Y0501400D01*
X0457595Y0461400D02*
X0432595Y0461400D01*
X0432595Y0446400D01*
X0432595Y0431400D01*
X0427595Y0302400D02*
X0427595Y0283275D01*
X0427569Y0283139D01*
X0427538Y0283005D01*
X0427504Y0282871D01*
X0427466Y0282738D01*
X0427425Y0282607D01*
X0427380Y0282476D01*
X0427331Y0282347D01*
X0427279Y0282220D01*
X0427223Y0282094D01*
X0427164Y0281969D01*
X0427101Y0281846D01*
X0427035Y0281725D01*
X0426966Y0281606D01*
X0426893Y0281489D01*
X0426817Y0281374D01*
X0426738Y0281261D01*
X0426655Y0281150D01*
X0426570Y0281042D01*
X0426482Y0280936D01*
X0426391Y0280832D01*
X0426296Y0280731D01*
X0426200Y0280633D01*
X0426100Y0280537D01*
X0425998Y0280445D01*
X0425893Y0280355D01*
X0425786Y0280268D01*
X0425677Y0280184D01*
X0425565Y0280103D01*
X0425451Y0280026D01*
X0425335Y0279951D01*
X0425216Y0279880D01*
X0425096Y0279812D01*
X0424974Y0279748D01*
X0424851Y0279687D01*
X0424725Y0279629D01*
X0424598Y0279575D01*
X0424470Y0279525D01*
X0424135Y0279452D01*
X0423799Y0279386D01*
X0423460Y0279329D01*
X0423121Y0279281D01*
X0422780Y0279240D01*
X0422439Y0279208D01*
X0422097Y0279184D01*
X0421754Y0279168D01*
X0421411Y0279161D01*
X0421068Y0279162D01*
X0420725Y0279171D01*
X0420383Y0279188D01*
X0420041Y0279214D01*
X0419699Y0279248D01*
X0419359Y0279291D01*
X0419020Y0279341D01*
X0418682Y0279400D01*
X0418345Y0279467D01*
X0418011Y0279542D01*
X0417678Y0279625D01*
X0417347Y0279716D01*
X0417019Y0279816D01*
X0416693Y0279923D01*
X0416370Y0280038D01*
X0416050Y0280161D01*
X0415733Y0280291D01*
X0415419Y0280429D01*
X0415108Y0280575D01*
X0414801Y0280728D01*
X0414498Y0280889D01*
X0414199Y0281057D01*
X0413904Y0281232D01*
X0413614Y0281414D01*
X0413327Y0281603D01*
X0413046Y0281799D01*
X0412769Y0282002D01*
X0412498Y0282212D01*
X0412231Y0282428D01*
X0411970Y0282650D01*
X0401970Y0286400D02*
X0401879Y0286400D01*
X0401970Y0286400D02*
X0402334Y0286396D01*
X0402697Y0286383D01*
X0403060Y0286361D01*
X0403423Y0286330D01*
X0403784Y0286291D01*
X0404145Y0286244D01*
X0404504Y0286187D01*
X0404862Y0286122D01*
X0405218Y0286049D01*
X0405573Y0285967D01*
X0405925Y0285877D01*
X0406275Y0285778D01*
X0406623Y0285671D01*
X0406968Y0285555D01*
X0407310Y0285432D01*
X0407649Y0285300D01*
X0407985Y0285160D01*
X0408317Y0285012D01*
X0408646Y0284856D01*
X0408971Y0284693D01*
X0409292Y0284522D01*
X0409608Y0284343D01*
X0409921Y0284156D01*
X0410228Y0283962D01*
X0410531Y0283761D01*
X0410830Y0283553D01*
X0411123Y0283338D01*
X0411410Y0283115D01*
X0411693Y0282886D01*
X0411970Y0282650D01*
X0387751Y0286400D02*
X0372595Y0286400D01*
X0372595Y0306400D01*
X0372595Y0286400D02*
X0347595Y0286400D01*
X0307595Y0286400D02*
X0307595Y0306400D01*
X0282595Y0306400D02*
X0282595Y0286400D01*
X0242595Y0286400D02*
X0242595Y0306400D01*
X0217595Y0306400D02*
X0217595Y0286400D01*
X0177595Y0286400D02*
X0177595Y0306400D01*
X0152595Y0306400D02*
X0152595Y0286400D01*
X0146970Y0438900D02*
X0146649Y0441178D01*
X0146383Y0443464D01*
X0146173Y0445755D01*
X0146018Y0448051D01*
X0145919Y0450349D01*
X0145876Y0452650D01*
X0078845Y0364526D02*
X0076296Y0363871D01*
X0073732Y0363278D01*
X0071154Y0362747D01*
X0068565Y0362278D01*
X0065964Y0361870D01*
X0063355Y0361525D01*
X0060739Y0361243D01*
X0058116Y0361024D01*
X0055489Y0360867D01*
X0052859Y0360774D01*
X0050227Y0360743D01*
X0047595Y0360776D01*
X0100096Y0363275D02*
X0104690Y0365099D01*
X0109242Y0367029D01*
X0113748Y0369062D01*
X0118207Y0371198D01*
X0122615Y0373436D01*
X0126971Y0375775D01*
X0115720Y0378274D02*
X0111262Y0376176D01*
X0106756Y0374185D01*
X0102204Y0372300D01*
X0097609Y0370524D01*
X0092972Y0368858D01*
X0088298Y0367302D01*
X0083588Y0365857D01*
X0078845Y0364524D01*
X0371970Y0547025D02*
X0373980Y0546315D01*
X0376005Y0545650D01*
X0378045Y0545033D01*
X0380098Y0544463D01*
X0382165Y0543941D01*
X0384243Y0543466D01*
X0386331Y0543040D01*
X0388428Y0542662D01*
X0390534Y0542333D01*
X0392647Y0542053D01*
X0394765Y0541821D01*
X0396889Y0541639D01*
X0399016Y0541505D01*
X0401146Y0541421D01*
X0403277Y0541386D01*
X0405408Y0541400D01*
X0381345Y0508275D02*
X0383036Y0507538D01*
X0384743Y0506841D01*
X0386467Y0506184D01*
X0388205Y0505568D01*
X0389957Y0504993D01*
X0391723Y0504460D01*
X0393500Y0503968D01*
X0395289Y0503518D01*
X0397088Y0503111D01*
X0398895Y0502746D01*
X0400711Y0502424D01*
X0402534Y0502145D01*
X0404363Y0501908D01*
X0406197Y0501715D01*
X0408036Y0501565D01*
X0409877Y0501459D01*
X0411720Y0501396D01*
X0413564Y0501376D01*
X0415408Y0501400D01*
X0415407Y0501400D02*
X0421136Y0501494D01*
X0426866Y0501494D01*
X0432595Y0501400D01*
D13*
X0450095Y0353900D03*
X0455095Y0353900D03*
X0460095Y0353900D03*
X0465095Y0353900D03*
X0405095Y0353900D03*
X0400095Y0353900D03*
X0395095Y0353900D03*
X0390095Y0353900D03*
X0385095Y0353900D03*
X0380095Y0353900D03*
X0340095Y0353900D03*
X0335095Y0353900D03*
X0330095Y0353900D03*
X0325095Y0353900D03*
X0320095Y0353900D03*
X0315095Y0353900D03*
X0275095Y0353900D03*
X0270095Y0353900D03*
X0265095Y0353900D03*
X0260095Y0353900D03*
X0255095Y0353900D03*
X0250095Y0353900D03*
X0210095Y0353900D03*
X0205095Y0353900D03*
X0200095Y0353900D03*
X0195095Y0353900D03*
X0190095Y0353900D03*
X0185095Y0353900D03*
X0145095Y0353900D03*
X0140095Y0353900D03*
X0135095Y0353900D03*
X0130095Y0353900D03*
X0125095Y0353900D03*
X0120095Y0353900D03*
X0115095Y0353900D03*
X0135095Y0358900D03*
X0135095Y0363900D03*
X0135095Y0368900D03*
X0135095Y0373900D03*
X0135095Y0383900D03*
X0135095Y0388900D03*
X0135095Y0398900D03*
X0135095Y0403900D03*
X0135095Y0458900D03*
X0135095Y0463900D03*
X0135095Y0468900D03*
X0135095Y0473900D03*
X0135095Y0478900D03*
X0135095Y0483900D03*
X0135095Y0488900D03*
X0135095Y0493900D03*
X0135095Y0498900D03*
X0135095Y0508900D03*
X0135095Y0558900D03*
X0135095Y0563900D03*
X0135095Y0568900D03*
X0135095Y0573900D03*
X0135095Y0578900D03*
X0135095Y0583900D03*
X0080095Y0353900D03*
X0075095Y0353900D03*
X0070095Y0353900D03*
X0065095Y0353900D03*
X0060095Y0353900D03*
X0055095Y0353900D03*
X0050095Y0353900D03*
D14*
X0083203Y0345626D02*
X0082748Y0343535D01*
X0082595Y0341400D01*
X0085032Y0343014D01*
X0087641Y0344333D01*
X0090386Y0345338D01*
X0093230Y0346016D01*
X0096133Y0346357D01*
X0099057Y0346357D01*
X0101960Y0346016D01*
X0104804Y0345338D01*
X0107549Y0344333D01*
X0110158Y0343014D01*
X0112595Y0341400D01*
X0112442Y0343535D01*
X0111988Y0345626D01*
X0111240Y0347631D01*
X0110214Y0349510D01*
X0108931Y0351223D01*
X0107418Y0352736D01*
X0105705Y0354019D01*
X0103826Y0355044D01*
X0101821Y0355792D01*
X0099730Y0356247D01*
X0097595Y0356400D01*
X0095460Y0356247D01*
X0093369Y0355792D01*
X0091364Y0355044D01*
X0089486Y0354019D01*
X0087772Y0352736D01*
X0086259Y0351223D01*
X0084976Y0349510D01*
X0083951Y0347631D01*
X0083203Y0345626D01*
X0083264Y0345790D02*
X0092282Y0345790D01*
X0090259Y0345292D02*
X0083130Y0345292D01*
X0083022Y0344793D02*
X0088898Y0344793D01*
X0087565Y0344295D02*
X0082913Y0344295D01*
X0082805Y0343796D02*
X0086579Y0343796D01*
X0085593Y0343297D02*
X0082731Y0343297D01*
X0082695Y0342799D02*
X0084707Y0342799D01*
X0083955Y0342300D02*
X0082660Y0342300D01*
X0082624Y0341802D02*
X0083202Y0341802D01*
X0083450Y0346289D02*
X0095549Y0346289D01*
X0099641Y0346289D02*
X0111740Y0346289D01*
X0111554Y0346787D02*
X0083636Y0346787D01*
X0083822Y0347286D02*
X0111369Y0347286D01*
X0111156Y0347784D02*
X0084034Y0347784D01*
X0084306Y0348283D02*
X0110884Y0348283D01*
X0110612Y0348781D02*
X0084579Y0348781D01*
X0084851Y0349280D02*
X0110340Y0349280D01*
X0110013Y0349778D02*
X0085177Y0349778D01*
X0085551Y0350277D02*
X0109640Y0350277D01*
X0109267Y0350775D02*
X0085924Y0350775D01*
X0086310Y0351274D02*
X0108881Y0351274D01*
X0108382Y0351772D02*
X0086808Y0351772D01*
X0087307Y0352271D02*
X0107884Y0352271D01*
X0107374Y0352769D02*
X0087816Y0352769D01*
X0088482Y0353268D02*
X0106708Y0353268D01*
X0106042Y0353766D02*
X0089148Y0353766D01*
X0089936Y0354265D02*
X0105254Y0354265D01*
X0104341Y0354763D02*
X0090849Y0354763D01*
X0091946Y0355262D02*
X0103244Y0355262D01*
X0101907Y0355760D02*
X0093283Y0355760D01*
X0095621Y0356259D02*
X0099570Y0356259D01*
X0102908Y0345790D02*
X0111926Y0345790D01*
X0112060Y0345292D02*
X0104931Y0345292D01*
X0106293Y0344793D02*
X0112169Y0344793D01*
X0112277Y0344295D02*
X0107625Y0344295D01*
X0108611Y0343796D02*
X0112386Y0343796D01*
X0112459Y0343297D02*
X0109598Y0343297D01*
X0110483Y0342799D02*
X0112495Y0342799D01*
X0112531Y0342300D02*
X0111236Y0342300D01*
X0111988Y0341802D02*
X0112566Y0341802D01*
X0112595Y0311400D02*
X0112442Y0309265D01*
X0111988Y0307174D01*
X0111240Y0305169D01*
X0110214Y0303290D01*
X0108931Y0301577D01*
X0107418Y0300064D01*
X0105705Y0298781D01*
X0103826Y0297756D01*
X0101821Y0297008D01*
X0099730Y0296553D01*
X0097595Y0296400D01*
X0095460Y0296553D01*
X0093369Y0297008D01*
X0091364Y0297756D01*
X0089486Y0298781D01*
X0087772Y0300064D01*
X0086259Y0301577D01*
X0084976Y0303290D01*
X0083951Y0305169D01*
X0083203Y0307174D01*
X0082748Y0309265D01*
X0082595Y0311400D01*
X0085032Y0309786D01*
X0087641Y0308467D01*
X0090386Y0307462D01*
X0093230Y0306784D01*
X0096133Y0306443D01*
X0099057Y0306443D01*
X0101960Y0306784D01*
X0104804Y0307462D01*
X0107549Y0308467D01*
X0110158Y0309786D01*
X0112595Y0311400D01*
X0112595Y0311393D02*
X0112584Y0311393D01*
X0112559Y0310894D02*
X0111832Y0310894D01*
X0112523Y0310396D02*
X0111079Y0310396D01*
X0110326Y0309897D02*
X0112488Y0309897D01*
X0112452Y0309399D02*
X0109392Y0309399D01*
X0108406Y0308900D02*
X0112363Y0308900D01*
X0112255Y0308402D02*
X0107371Y0308402D01*
X0106009Y0307903D02*
X0112146Y0307903D01*
X0112038Y0307405D02*
X0104564Y0307405D01*
X0102473Y0306906D02*
X0111888Y0306906D01*
X0111702Y0306408D02*
X0083489Y0306408D01*
X0083303Y0306906D02*
X0092718Y0306906D01*
X0090626Y0307405D02*
X0083153Y0307405D01*
X0083044Y0307903D02*
X0089181Y0307903D01*
X0087820Y0308402D02*
X0082936Y0308402D01*
X0082827Y0308900D02*
X0086784Y0308900D01*
X0085798Y0309399D02*
X0082738Y0309399D01*
X0082703Y0309897D02*
X0084864Y0309897D01*
X0084111Y0310396D02*
X0082667Y0310396D01*
X0082631Y0310894D02*
X0083359Y0310894D01*
X0082606Y0311393D02*
X0082596Y0311393D01*
X0083675Y0305909D02*
X0111516Y0305909D01*
X0111330Y0305411D02*
X0083860Y0305411D01*
X0084091Y0304912D02*
X0111099Y0304912D01*
X0110827Y0304414D02*
X0084363Y0304414D01*
X0084635Y0303915D02*
X0110555Y0303915D01*
X0110283Y0303417D02*
X0084907Y0303417D01*
X0085255Y0302918D02*
X0109935Y0302918D01*
X0109562Y0302420D02*
X0085628Y0302420D01*
X0086001Y0301921D02*
X0109189Y0301921D01*
X0108777Y0301423D02*
X0086413Y0301423D01*
X0086912Y0300924D02*
X0108278Y0300924D01*
X0107780Y0300426D02*
X0087410Y0300426D01*
X0087955Y0299927D02*
X0107235Y0299927D01*
X0106569Y0299428D02*
X0088621Y0299428D01*
X0089287Y0298930D02*
X0105903Y0298930D01*
X0105064Y0298431D02*
X0090126Y0298431D01*
X0091039Y0297933D02*
X0104151Y0297933D01*
X0102966Y0297434D02*
X0092225Y0297434D01*
X0093699Y0296936D02*
X0101492Y0296936D01*
X0098118Y0296437D02*
X0097072Y0296437D01*
X0351225Y0576207D02*
X0350601Y0577878D01*
X0350222Y0579621D01*
X0350095Y0581400D01*
X0350222Y0583179D01*
X0350601Y0584922D01*
X0351225Y0586593D01*
X0352079Y0588158D01*
X0353148Y0589586D01*
X0354409Y0590847D01*
X0355837Y0591916D01*
X0357402Y0592770D01*
X0359073Y0593394D01*
X0360816Y0593773D01*
X0362595Y0593900D01*
X0387595Y0593900D01*
X0389374Y0593773D01*
X0391117Y0593394D01*
X0392788Y0592770D01*
X0394353Y0591916D01*
X0395781Y0590847D01*
X0397042Y0589586D01*
X0398111Y0588158D01*
X0398966Y0586593D01*
X0399589Y0584922D01*
X0399968Y0583179D01*
X0400095Y0581400D01*
X0399968Y0579621D01*
X0399589Y0577878D01*
X0398966Y0576207D01*
X0398111Y0574642D01*
X0397042Y0573214D01*
X0395781Y0571953D01*
X0394353Y0570884D01*
X0392788Y0570030D01*
X0391117Y0569406D01*
X0389374Y0569027D01*
X0387595Y0568900D01*
X0362595Y0568900D01*
X0360816Y0569027D01*
X0359073Y0569406D01*
X0357402Y0570030D01*
X0355837Y0570884D01*
X0354409Y0571953D01*
X0353148Y0573214D01*
X0352079Y0574642D01*
X0351225Y0576207D01*
X0352079Y0574642D01*
X0353148Y0573214D01*
X0354409Y0571953D01*
X0355837Y0570884D01*
X0357402Y0570030D01*
X0359073Y0569406D01*
X0360816Y0569027D01*
X0362595Y0568900D01*
X0472595Y0568900D01*
X0472595Y0583900D01*
X0472468Y0585679D01*
X0472089Y0587422D01*
X0471466Y0589093D01*
X0470611Y0590658D01*
X0469542Y0592086D01*
X0468281Y0593347D01*
X0466853Y0594416D01*
X0465288Y0595270D01*
X0463617Y0595894D01*
X0461874Y0596273D01*
X0460095Y0596400D01*
X0350095Y0596400D01*
X0350095Y0581400D01*
X0350222Y0579621D01*
X0350601Y0577878D01*
X0351225Y0576207D01*
X0351282Y0576102D02*
X0398908Y0576102D01*
X0399112Y0576601D02*
X0351078Y0576601D01*
X0472595Y0576601D01*
X0472595Y0577099D02*
X0350892Y0577099D01*
X0399298Y0577099D01*
X0399484Y0577598D02*
X0350706Y0577598D01*
X0472595Y0577598D01*
X0472595Y0578096D02*
X0350554Y0578096D01*
X0399636Y0578096D01*
X0399745Y0578595D02*
X0350446Y0578595D01*
X0472595Y0578595D01*
X0472595Y0579093D02*
X0350337Y0579093D01*
X0399853Y0579093D01*
X0399962Y0579592D02*
X0350229Y0579592D01*
X0472595Y0579592D01*
X0472595Y0580090D02*
X0350189Y0580090D01*
X0400001Y0580090D01*
X0400037Y0580589D02*
X0350153Y0580589D01*
X0472595Y0580589D01*
X0472595Y0581087D02*
X0350117Y0581087D01*
X0400073Y0581087D01*
X0400082Y0581586D02*
X0350108Y0581586D01*
X0350095Y0581586D02*
X0472595Y0581586D01*
X0472595Y0582084D02*
X0350095Y0582084D01*
X0350144Y0582084D02*
X0400046Y0582084D01*
X0400011Y0582583D02*
X0350180Y0582583D01*
X0350095Y0582583D02*
X0472595Y0582583D01*
X0472595Y0583081D02*
X0350095Y0583081D01*
X0350215Y0583081D02*
X0399975Y0583081D01*
X0399881Y0583580D02*
X0350310Y0583580D01*
X0350095Y0583580D02*
X0472595Y0583580D01*
X0472582Y0584078D02*
X0350095Y0584078D01*
X0350418Y0584078D02*
X0399772Y0584078D01*
X0399664Y0584577D02*
X0350527Y0584577D01*
X0350095Y0584577D02*
X0472547Y0584577D01*
X0472511Y0585075D02*
X0350095Y0585075D01*
X0350095Y0585574D02*
X0472475Y0585574D01*
X0472382Y0586072D02*
X0350095Y0586072D01*
X0350095Y0586571D02*
X0472274Y0586571D01*
X0472165Y0587070D02*
X0350095Y0587070D01*
X0350095Y0587568D02*
X0472034Y0587568D01*
X0471848Y0588067D02*
X0350095Y0588067D01*
X0350095Y0588565D02*
X0471662Y0588565D01*
X0471476Y0589064D02*
X0350095Y0589064D01*
X0350095Y0589562D02*
X0471209Y0589562D01*
X0470937Y0590061D02*
X0350095Y0590061D01*
X0350095Y0590559D02*
X0470665Y0590559D01*
X0470312Y0591058D02*
X0350095Y0591058D01*
X0350095Y0591556D02*
X0469939Y0591556D01*
X0469565Y0592055D02*
X0350095Y0592055D01*
X0350095Y0592553D02*
X0469075Y0592553D01*
X0468576Y0593052D02*
X0350095Y0593052D01*
X0350095Y0593550D02*
X0468009Y0593550D01*
X0467343Y0594049D02*
X0350095Y0594049D01*
X0350095Y0594547D02*
X0466612Y0594547D01*
X0465699Y0595046D02*
X0350095Y0595046D01*
X0350095Y0595544D02*
X0464554Y0595544D01*
X0462932Y0596043D02*
X0350095Y0596043D01*
X0354691Y0591058D02*
X0395499Y0591058D01*
X0396069Y0590559D02*
X0354122Y0590559D01*
X0353623Y0590061D02*
X0396567Y0590061D01*
X0397060Y0589562D02*
X0353131Y0589562D01*
X0352757Y0589064D02*
X0397433Y0589064D01*
X0397806Y0588565D02*
X0352384Y0588565D01*
X0352030Y0588067D02*
X0398161Y0588067D01*
X0398433Y0587568D02*
X0351757Y0587568D01*
X0351485Y0587070D02*
X0398705Y0587070D01*
X0398974Y0586571D02*
X0351217Y0586571D01*
X0351031Y0586072D02*
X0399160Y0586072D01*
X0399346Y0585574D02*
X0350845Y0585574D01*
X0350659Y0585075D02*
X0399531Y0585075D01*
X0394833Y0591556D02*
X0355357Y0591556D01*
X0356092Y0592055D02*
X0394099Y0592055D01*
X0393186Y0592553D02*
X0357005Y0592553D01*
X0358157Y0593052D02*
X0392034Y0593052D01*
X0390397Y0593550D02*
X0359793Y0593550D01*
X0351282Y0576102D02*
X0472595Y0576102D01*
X0472595Y0575604D02*
X0351554Y0575604D01*
X0398636Y0575604D01*
X0398364Y0575105D02*
X0351827Y0575105D01*
X0472595Y0575105D01*
X0472595Y0574607D02*
X0352106Y0574607D01*
X0398084Y0574607D01*
X0397711Y0574108D02*
X0352479Y0574108D01*
X0472595Y0574108D01*
X0472595Y0573610D02*
X0352852Y0573610D01*
X0397338Y0573610D01*
X0396939Y0573111D02*
X0353251Y0573111D01*
X0472595Y0573111D01*
X0472595Y0572613D02*
X0353750Y0572613D01*
X0396440Y0572613D01*
X0395942Y0572114D02*
X0354248Y0572114D01*
X0472595Y0572114D01*
X0472595Y0571616D02*
X0354860Y0571616D01*
X0395330Y0571616D01*
X0394664Y0571117D02*
X0355526Y0571117D01*
X0472595Y0571117D01*
X0472595Y0570619D02*
X0356324Y0570619D01*
X0393867Y0570619D01*
X0392954Y0570120D02*
X0357237Y0570120D01*
X0472595Y0570120D01*
X0472595Y0569622D02*
X0358496Y0569622D01*
X0391694Y0569622D01*
X0389815Y0569123D02*
X0360375Y0569123D01*
X0472595Y0569123D01*
X0467042Y0573214D02*
X0468111Y0574642D01*
X0468966Y0576207D01*
X0469589Y0577878D01*
X0469968Y0579621D01*
X0470095Y0581400D01*
X0469968Y0583179D01*
X0469589Y0584922D01*
X0468966Y0586593D01*
X0468111Y0588158D01*
X0467042Y0589586D01*
X0465781Y0590847D01*
X0464353Y0591916D01*
X0462788Y0592770D01*
X0461117Y0593394D01*
X0459374Y0593773D01*
X0457595Y0593900D01*
X0432595Y0593900D01*
X0430816Y0593773D01*
X0429073Y0593394D01*
X0427402Y0592770D01*
X0425837Y0591916D01*
X0424409Y0590847D01*
X0423148Y0589586D01*
X0422079Y0588158D01*
X0421225Y0586593D01*
X0420601Y0584922D01*
X0420222Y0583179D01*
X0420095Y0581400D01*
X0420222Y0579621D01*
X0420601Y0577878D01*
X0421225Y0576207D01*
X0422079Y0574642D01*
X0423148Y0573214D01*
X0424409Y0571953D01*
X0425837Y0570884D01*
X0427402Y0570030D01*
X0429073Y0569406D01*
X0430816Y0569027D01*
X0432595Y0568900D01*
X0457595Y0568900D01*
X0459374Y0569027D01*
X0461117Y0569406D01*
X0462788Y0570030D01*
X0464353Y0570884D01*
X0465781Y0571953D01*
X0467042Y0573214D01*
X0466939Y0573111D02*
X0423251Y0573111D01*
X0422852Y0573610D02*
X0467338Y0573610D01*
X0467711Y0574108D02*
X0422479Y0574108D01*
X0422106Y0574607D02*
X0468084Y0574607D01*
X0468364Y0575105D02*
X0421827Y0575105D01*
X0421554Y0575604D02*
X0468636Y0575604D01*
X0468908Y0576102D02*
X0421282Y0576102D01*
X0421078Y0576601D02*
X0469112Y0576601D01*
X0469298Y0577099D02*
X0420892Y0577099D01*
X0420706Y0577598D02*
X0469484Y0577598D01*
X0469636Y0578096D02*
X0420554Y0578096D01*
X0420446Y0578595D02*
X0469745Y0578595D01*
X0469853Y0579093D02*
X0420337Y0579093D01*
X0420229Y0579592D02*
X0469962Y0579592D01*
X0470001Y0580090D02*
X0420189Y0580090D01*
X0420153Y0580589D02*
X0470037Y0580589D01*
X0470073Y0581087D02*
X0420117Y0581087D01*
X0420108Y0581586D02*
X0470082Y0581586D01*
X0470046Y0582084D02*
X0420144Y0582084D01*
X0420180Y0582583D02*
X0470011Y0582583D01*
X0469975Y0583081D02*
X0420215Y0583081D01*
X0420310Y0583580D02*
X0469881Y0583580D01*
X0469772Y0584078D02*
X0420418Y0584078D01*
X0420527Y0584577D02*
X0469664Y0584577D01*
X0469531Y0585075D02*
X0420659Y0585075D01*
X0420845Y0585574D02*
X0469346Y0585574D01*
X0469160Y0586072D02*
X0421031Y0586072D01*
X0421217Y0586571D02*
X0468974Y0586571D01*
X0468705Y0587070D02*
X0421485Y0587070D01*
X0421757Y0587568D02*
X0468433Y0587568D01*
X0468161Y0588067D02*
X0422030Y0588067D01*
X0422384Y0588565D02*
X0467806Y0588565D01*
X0467433Y0589064D02*
X0422757Y0589064D01*
X0423131Y0589562D02*
X0467060Y0589562D01*
X0466567Y0590061D02*
X0423623Y0590061D01*
X0424122Y0590559D02*
X0466069Y0590559D01*
X0465499Y0591058D02*
X0424691Y0591058D01*
X0425357Y0591556D02*
X0464833Y0591556D01*
X0464099Y0592055D02*
X0426092Y0592055D01*
X0427005Y0592553D02*
X0463186Y0592553D01*
X0462034Y0593052D02*
X0428157Y0593052D01*
X0429793Y0593550D02*
X0460397Y0593550D01*
X0466440Y0572613D02*
X0423750Y0572613D01*
X0424248Y0572114D02*
X0465942Y0572114D01*
X0465330Y0571616D02*
X0424860Y0571616D01*
X0425526Y0571117D02*
X0464664Y0571117D01*
X0463867Y0570619D02*
X0426324Y0570619D01*
X0427237Y0570120D02*
X0462954Y0570120D01*
X0461694Y0569622D02*
X0428496Y0569622D01*
X0430375Y0569123D02*
X0459815Y0569123D01*
X0459374Y0553773D02*
X0457595Y0553900D01*
X0432595Y0553900D01*
X0430816Y0553773D01*
X0429073Y0553394D01*
X0427402Y0552770D01*
X0425837Y0551916D01*
X0424409Y0550847D01*
X0423148Y0549586D01*
X0422079Y0548158D01*
X0421225Y0546593D01*
X0420601Y0544922D01*
X0420222Y0543179D01*
X0420095Y0541400D01*
X0420222Y0539621D01*
X0420601Y0537878D01*
X0421225Y0536207D01*
X0422079Y0534642D01*
X0423148Y0533214D01*
X0424409Y0531953D01*
X0425837Y0530884D01*
X0427402Y0530030D01*
X0429073Y0529406D01*
X0430816Y0529027D01*
X0432595Y0528900D01*
X0457595Y0528900D01*
X0459374Y0529027D01*
X0461117Y0529406D01*
X0462788Y0530030D01*
X0464353Y0530884D01*
X0465781Y0531953D01*
X0467042Y0533214D01*
X0468111Y0534642D01*
X0468966Y0536207D01*
X0469589Y0537878D01*
X0469968Y0539621D01*
X0470095Y0541400D01*
X0469968Y0543179D01*
X0469589Y0544922D01*
X0468966Y0546593D01*
X0468111Y0548158D01*
X0467042Y0549586D01*
X0465781Y0550847D01*
X0464353Y0551916D01*
X0462788Y0552770D01*
X0461117Y0553394D01*
X0459374Y0553773D01*
X0459850Y0553669D02*
X0430340Y0553669D01*
X0428476Y0553171D02*
X0461714Y0553171D01*
X0462968Y0552672D02*
X0427223Y0552672D01*
X0426310Y0552174D02*
X0463881Y0552174D01*
X0464674Y0551675D02*
X0425516Y0551675D01*
X0424850Y0551177D02*
X0465340Y0551177D01*
X0465950Y0550678D02*
X0424241Y0550678D01*
X0423742Y0550180D02*
X0466448Y0550180D01*
X0466947Y0549681D02*
X0423244Y0549681D01*
X0422847Y0549183D02*
X0467344Y0549183D01*
X0467717Y0548684D02*
X0422473Y0548684D01*
X0422100Y0548186D02*
X0468090Y0548186D01*
X0468368Y0547687D02*
X0421822Y0547687D01*
X0421550Y0547189D02*
X0468640Y0547189D01*
X0468912Y0546690D02*
X0421278Y0546690D01*
X0421075Y0546192D02*
X0469115Y0546192D01*
X0469301Y0545693D02*
X0420889Y0545693D01*
X0420703Y0545195D02*
X0469487Y0545195D01*
X0469638Y0544696D02*
X0420552Y0544696D01*
X0420444Y0544198D02*
X0469746Y0544198D01*
X0469855Y0543699D02*
X0420336Y0543699D01*
X0420227Y0543201D02*
X0469963Y0543201D01*
X0470002Y0542702D02*
X0420188Y0542702D01*
X0420153Y0542203D02*
X0470038Y0542203D01*
X0470073Y0541705D02*
X0420117Y0541705D01*
X0420109Y0541206D02*
X0470081Y0541206D01*
X0470046Y0540708D02*
X0420145Y0540708D01*
X0420180Y0540209D02*
X0470010Y0540209D01*
X0469974Y0539711D02*
X0420216Y0539711D01*
X0420311Y0539212D02*
X0469879Y0539212D01*
X0469771Y0538714D02*
X0420420Y0538714D01*
X0420528Y0538215D02*
X0469662Y0538215D01*
X0469529Y0537717D02*
X0420662Y0537717D01*
X0420848Y0537218D02*
X0469343Y0537218D01*
X0469157Y0536720D02*
X0421034Y0536720D01*
X0421220Y0536221D02*
X0468971Y0536221D01*
X0468701Y0535723D02*
X0421489Y0535723D01*
X0421761Y0535224D02*
X0468429Y0535224D01*
X0468157Y0534726D02*
X0422034Y0534726D01*
X0422390Y0534227D02*
X0467800Y0534227D01*
X0467427Y0533729D02*
X0422763Y0533729D01*
X0423136Y0533230D02*
X0467054Y0533230D01*
X0466560Y0532732D02*
X0423631Y0532732D01*
X0424129Y0532233D02*
X0466061Y0532233D01*
X0465489Y0531735D02*
X0424701Y0531735D01*
X0425367Y0531236D02*
X0464823Y0531236D01*
X0464085Y0530738D02*
X0426106Y0530738D01*
X0427019Y0530239D02*
X0463172Y0530239D01*
X0462013Y0529741D02*
X0428177Y0529741D01*
X0429828Y0529242D02*
X0460362Y0529242D01*
X0472595Y0529242D02*
X0445095Y0529242D01*
X0445095Y0528900D02*
X0445095Y0553900D01*
X0472595Y0553900D01*
X0472595Y0528900D01*
X0445095Y0528900D01*
X0445095Y0529741D02*
X0472595Y0529741D01*
X0472595Y0530239D02*
X0445095Y0530239D01*
X0445095Y0530738D02*
X0472595Y0530738D01*
X0472595Y0531236D02*
X0445095Y0531236D01*
X0445095Y0531735D02*
X0472595Y0531735D01*
X0472595Y0532233D02*
X0445095Y0532233D01*
X0445095Y0532732D02*
X0472595Y0532732D01*
X0472595Y0533230D02*
X0445095Y0533230D01*
X0445095Y0533729D02*
X0472595Y0533729D01*
X0472595Y0534227D02*
X0445095Y0534227D01*
X0445095Y0534726D02*
X0472595Y0534726D01*
X0472595Y0535224D02*
X0445095Y0535224D01*
X0445095Y0535723D02*
X0472595Y0535723D01*
X0472595Y0536221D02*
X0445095Y0536221D01*
X0445095Y0536720D02*
X0472595Y0536720D01*
X0472595Y0537218D02*
X0445095Y0537218D01*
X0445095Y0537717D02*
X0472595Y0537717D01*
X0472595Y0538215D02*
X0445095Y0538215D01*
X0445095Y0538714D02*
X0472595Y0538714D01*
X0472595Y0539212D02*
X0445095Y0539212D01*
X0445095Y0539711D02*
X0472595Y0539711D01*
X0472595Y0540209D02*
X0445095Y0540209D01*
X0445095Y0540708D02*
X0472595Y0540708D01*
X0472595Y0541206D02*
X0445095Y0541206D01*
X0445095Y0541705D02*
X0472595Y0541705D01*
X0472595Y0542203D02*
X0445095Y0542203D01*
X0445095Y0542702D02*
X0472595Y0542702D01*
X0472595Y0543201D02*
X0445095Y0543201D01*
X0445095Y0543699D02*
X0472595Y0543699D01*
X0472595Y0544198D02*
X0445095Y0544198D01*
X0445095Y0544696D02*
X0472595Y0544696D01*
X0472595Y0545195D02*
X0445095Y0545195D01*
X0445095Y0545693D02*
X0472595Y0545693D01*
X0472595Y0546192D02*
X0445095Y0546192D01*
X0445095Y0546690D02*
X0472595Y0546690D01*
X0472595Y0547189D02*
X0445095Y0547189D01*
X0445095Y0547687D02*
X0472595Y0547687D01*
X0472595Y0548186D02*
X0445095Y0548186D01*
X0445095Y0548684D02*
X0472595Y0548684D01*
X0472595Y0549183D02*
X0445095Y0549183D01*
X0445095Y0549681D02*
X0472595Y0549681D01*
X0472595Y0550180D02*
X0445095Y0550180D01*
X0445095Y0550678D02*
X0472595Y0550678D01*
X0472595Y0551177D02*
X0445095Y0551177D01*
X0445095Y0551675D02*
X0472595Y0551675D01*
X0472595Y0552174D02*
X0445095Y0552174D01*
X0445095Y0552672D02*
X0472595Y0552672D01*
X0472595Y0553171D02*
X0445095Y0553171D01*
X0445095Y0553669D02*
X0472595Y0553669D01*
X0472595Y0513900D02*
X0445095Y0513900D01*
X0445095Y0488900D01*
X0472595Y0488900D01*
X0472595Y0513900D01*
X0472595Y0513788D02*
X0445095Y0513788D01*
X0445095Y0513290D02*
X0472595Y0513290D01*
X0472595Y0512791D02*
X0445095Y0512791D01*
X0445095Y0512293D02*
X0472595Y0512293D01*
X0472595Y0511794D02*
X0445095Y0511794D01*
X0445095Y0511296D02*
X0472595Y0511296D01*
X0472595Y0510797D02*
X0445095Y0510797D01*
X0445095Y0510299D02*
X0472595Y0510299D01*
X0472595Y0509800D02*
X0445095Y0509800D01*
X0445095Y0509302D02*
X0472595Y0509302D01*
X0472595Y0508803D02*
X0445095Y0508803D01*
X0445095Y0508305D02*
X0472595Y0508305D01*
X0472595Y0507806D02*
X0445095Y0507806D01*
X0445095Y0507308D02*
X0472595Y0507308D01*
X0472595Y0506809D02*
X0445095Y0506809D01*
X0445095Y0506311D02*
X0472595Y0506311D01*
X0472595Y0505812D02*
X0445095Y0505812D01*
X0445095Y0505314D02*
X0472595Y0505314D01*
X0472595Y0504815D02*
X0445095Y0504815D01*
X0445095Y0504317D02*
X0472595Y0504317D01*
X0472595Y0503818D02*
X0445095Y0503818D01*
X0445095Y0503320D02*
X0472595Y0503320D01*
X0472595Y0502821D02*
X0445095Y0502821D01*
X0445095Y0502323D02*
X0472595Y0502323D01*
X0472595Y0501824D02*
X0445095Y0501824D01*
X0445095Y0501326D02*
X0472595Y0501326D01*
X0472595Y0500827D02*
X0445095Y0500827D01*
X0445095Y0500329D02*
X0472595Y0500329D01*
X0472595Y0499830D02*
X0445095Y0499830D01*
X0445095Y0499332D02*
X0472595Y0499332D01*
X0472595Y0498833D02*
X0445095Y0498833D01*
X0445095Y0498334D02*
X0472595Y0498334D01*
X0472595Y0497836D02*
X0445095Y0497836D01*
X0445095Y0497337D02*
X0472595Y0497337D01*
X0472595Y0496839D02*
X0445095Y0496839D01*
X0445095Y0496340D02*
X0472595Y0496340D01*
X0472595Y0495842D02*
X0445095Y0495842D01*
X0445095Y0495343D02*
X0472595Y0495343D01*
X0472595Y0494845D02*
X0445095Y0494845D01*
X0445095Y0494346D02*
X0472595Y0494346D01*
X0472595Y0493848D02*
X0445095Y0493848D01*
X0445095Y0493349D02*
X0472595Y0493349D01*
X0472595Y0492851D02*
X0445095Y0492851D01*
X0445095Y0492352D02*
X0472595Y0492352D01*
X0472595Y0491854D02*
X0445095Y0491854D01*
X0445095Y0491355D02*
X0472595Y0491355D01*
X0472595Y0490857D02*
X0445095Y0490857D01*
X0445095Y0490358D02*
X0472595Y0490358D01*
X0472595Y0489860D02*
X0445095Y0489860D01*
X0445095Y0489361D02*
X0472595Y0489361D01*
X0467143Y0493349D02*
X0423047Y0493349D01*
X0423148Y0493214D02*
X0424409Y0491953D01*
X0425837Y0490884D01*
X0427402Y0490030D01*
X0429073Y0489406D01*
X0430816Y0489027D01*
X0432595Y0488900D01*
X0457595Y0488900D01*
X0459374Y0489027D01*
X0461117Y0489406D01*
X0462788Y0490030D01*
X0464353Y0490884D01*
X0465781Y0491953D01*
X0467042Y0493214D01*
X0468111Y0494642D01*
X0468966Y0496207D01*
X0469589Y0497878D01*
X0469968Y0499621D01*
X0470095Y0501400D01*
X0469968Y0503179D01*
X0469589Y0504922D01*
X0468966Y0506593D01*
X0468111Y0508158D01*
X0467042Y0509586D01*
X0465781Y0510847D01*
X0464353Y0511916D01*
X0462788Y0512770D01*
X0461117Y0513394D01*
X0459374Y0513773D01*
X0457595Y0513900D01*
X0432595Y0513900D01*
X0430816Y0513773D01*
X0429073Y0513394D01*
X0427402Y0512770D01*
X0425837Y0511916D01*
X0424409Y0510847D01*
X0423148Y0509586D01*
X0422079Y0508158D01*
X0421225Y0506593D01*
X0420601Y0504922D01*
X0420222Y0503179D01*
X0420095Y0501400D01*
X0420222Y0499621D01*
X0420601Y0497878D01*
X0421225Y0496207D01*
X0422079Y0494642D01*
X0423148Y0493214D01*
X0423512Y0492851D02*
X0466679Y0492851D01*
X0466180Y0492352D02*
X0424010Y0492352D01*
X0424542Y0491854D02*
X0465648Y0491854D01*
X0464982Y0491355D02*
X0425208Y0491355D01*
X0425887Y0490857D02*
X0464303Y0490857D01*
X0463390Y0490358D02*
X0426800Y0490358D01*
X0427858Y0489860D02*
X0462333Y0489860D01*
X0460910Y0489361D02*
X0429281Y0489361D01*
X0422674Y0493848D02*
X0467516Y0493848D01*
X0467890Y0494346D02*
X0422301Y0494346D01*
X0421969Y0494845D02*
X0468222Y0494845D01*
X0468494Y0495343D02*
X0421696Y0495343D01*
X0421424Y0495842D02*
X0468766Y0495842D01*
X0469015Y0496340D02*
X0421175Y0496340D01*
X0420989Y0496839D02*
X0469201Y0496839D01*
X0469387Y0497337D02*
X0420803Y0497337D01*
X0420617Y0497836D02*
X0469573Y0497836D01*
X0469688Y0498334D02*
X0420502Y0498334D01*
X0420394Y0498833D02*
X0469796Y0498833D01*
X0469905Y0499332D02*
X0420285Y0499332D01*
X0420207Y0499830D02*
X0469983Y0499830D01*
X0470019Y0500329D02*
X0420172Y0500329D01*
X0420136Y0500827D02*
X0470054Y0500827D01*
X0470090Y0501326D02*
X0420100Y0501326D01*
X0420125Y0501824D02*
X0470065Y0501824D01*
X0470029Y0502323D02*
X0420161Y0502323D01*
X0420197Y0502821D02*
X0469994Y0502821D01*
X0469937Y0503320D02*
X0420253Y0503320D01*
X0420361Y0503818D02*
X0469829Y0503818D01*
X0469720Y0504317D02*
X0420470Y0504317D01*
X0420578Y0504815D02*
X0469612Y0504815D01*
X0469443Y0505314D02*
X0420748Y0505314D01*
X0420934Y0505812D02*
X0469257Y0505812D01*
X0469071Y0506311D02*
X0421120Y0506311D01*
X0421343Y0506809D02*
X0468847Y0506809D01*
X0468575Y0507308D02*
X0421615Y0507308D01*
X0421887Y0507806D02*
X0468303Y0507806D01*
X0468001Y0508305D02*
X0422189Y0508305D01*
X0422562Y0508803D02*
X0467628Y0508803D01*
X0467255Y0509302D02*
X0422936Y0509302D01*
X0423363Y0509800D02*
X0466828Y0509800D01*
X0466329Y0510299D02*
X0423861Y0510299D01*
X0424360Y0510797D02*
X0465830Y0510797D01*
X0465181Y0511296D02*
X0425009Y0511296D01*
X0425675Y0511794D02*
X0464515Y0511794D01*
X0463662Y0512293D02*
X0426528Y0512293D01*
X0427459Y0512791D02*
X0462732Y0512791D01*
X0461395Y0513290D02*
X0428795Y0513290D01*
X0431034Y0513788D02*
X0459156Y0513788D01*
X0457595Y0473900D02*
X0432595Y0473900D01*
X0430816Y0473773D01*
X0429073Y0473394D01*
X0427402Y0472770D01*
X0425837Y0471916D01*
X0424409Y0470847D01*
X0423148Y0469586D01*
X0422079Y0468158D01*
X0421225Y0466593D01*
X0420601Y0464922D01*
X0420222Y0463179D01*
X0420095Y0461400D01*
X0420222Y0459621D01*
X0420601Y0457878D01*
X0421225Y0456207D01*
X0422079Y0454642D01*
X0423148Y0453214D01*
X0424409Y0451953D01*
X0425837Y0450884D01*
X0427402Y0450030D01*
X0429073Y0449406D01*
X0430816Y0449027D01*
X0432595Y0448900D01*
X0457595Y0448900D01*
X0459374Y0449027D01*
X0461117Y0449406D01*
X0462788Y0450030D01*
X0464353Y0450884D01*
X0465781Y0451953D01*
X0467042Y0453214D01*
X0468111Y0454642D01*
X0468966Y0456207D01*
X0469589Y0457878D01*
X0469968Y0459621D01*
X0470095Y0461400D01*
X0469968Y0463179D01*
X0469589Y0464922D01*
X0468966Y0466593D01*
X0468111Y0468158D01*
X0467042Y0469586D01*
X0465781Y0470847D01*
X0464353Y0471916D01*
X0462788Y0472770D01*
X0461117Y0473394D01*
X0459374Y0473773D01*
X0457595Y0473900D01*
X0461047Y0473409D02*
X0429144Y0473409D01*
X0427778Y0472910D02*
X0462412Y0472910D01*
X0463444Y0472412D02*
X0426746Y0472412D01*
X0425834Y0471913D02*
X0464356Y0471913D01*
X0465022Y0471415D02*
X0425168Y0471415D01*
X0424502Y0470916D02*
X0465688Y0470916D01*
X0466210Y0470418D02*
X0423980Y0470418D01*
X0423482Y0469919D02*
X0466708Y0469919D01*
X0467165Y0469421D02*
X0423025Y0469421D01*
X0422652Y0468922D02*
X0467539Y0468922D01*
X0467912Y0468424D02*
X0422278Y0468424D01*
X0421952Y0467925D02*
X0468238Y0467925D01*
X0468510Y0467427D02*
X0421680Y0467427D01*
X0421408Y0466928D02*
X0468782Y0466928D01*
X0469026Y0466430D02*
X0421164Y0466430D01*
X0420978Y0465931D02*
X0469212Y0465931D01*
X0469398Y0465433D02*
X0420792Y0465433D01*
X0420606Y0464934D02*
X0469584Y0464934D01*
X0469695Y0464436D02*
X0420496Y0464436D01*
X0420387Y0463937D02*
X0469803Y0463937D01*
X0469911Y0463439D02*
X0420279Y0463439D01*
X0420205Y0462940D02*
X0469985Y0462940D01*
X0470021Y0462442D02*
X0420170Y0462442D01*
X0420134Y0461943D02*
X0470056Y0461943D01*
X0470092Y0461445D02*
X0420098Y0461445D01*
X0420128Y0460946D02*
X0470063Y0460946D01*
X0470027Y0460448D02*
X0420163Y0460448D01*
X0420199Y0459949D02*
X0469991Y0459949D01*
X0469931Y0459451D02*
X0420259Y0459451D01*
X0420368Y0458952D02*
X0469822Y0458952D01*
X0469714Y0458454D02*
X0420476Y0458454D01*
X0420585Y0457955D02*
X0469605Y0457955D01*
X0469431Y0457457D02*
X0420759Y0457457D01*
X0420945Y0456958D02*
X0469246Y0456958D01*
X0469060Y0456460D02*
X0421131Y0456460D01*
X0421359Y0455961D02*
X0468831Y0455961D01*
X0468559Y0455463D02*
X0421631Y0455463D01*
X0421904Y0454964D02*
X0468287Y0454964D01*
X0467979Y0454466D02*
X0422212Y0454466D01*
X0422585Y0453967D02*
X0467606Y0453967D01*
X0467232Y0453468D02*
X0422958Y0453468D01*
X0423393Y0452970D02*
X0466798Y0452970D01*
X0466299Y0452471D02*
X0423891Y0452471D01*
X0424390Y0451973D02*
X0465801Y0451973D01*
X0465141Y0451474D02*
X0425049Y0451474D01*
X0425715Y0450976D02*
X0464476Y0450976D01*
X0463608Y0450477D02*
X0426582Y0450477D01*
X0427595Y0450477D02*
X0472595Y0450477D01*
X0472595Y0449979D02*
X0427595Y0449979D01*
X0427538Y0449979D02*
X0462652Y0449979D01*
X0461315Y0449480D02*
X0428875Y0449480D01*
X0427595Y0449480D02*
X0472595Y0449480D01*
X0472595Y0448982D02*
X0427595Y0448982D01*
X0427595Y0448483D02*
X0472595Y0448483D01*
X0472595Y0447985D02*
X0427595Y0447985D01*
X0427595Y0447486D02*
X0472595Y0447486D01*
X0472595Y0446988D02*
X0427595Y0446988D01*
X0427595Y0446489D02*
X0472595Y0446489D01*
X0472595Y0445991D02*
X0427595Y0445991D01*
X0427595Y0445492D02*
X0472595Y0445492D01*
X0472595Y0444994D02*
X0427595Y0444994D01*
X0427595Y0444495D02*
X0472595Y0444495D01*
X0472595Y0443997D02*
X0427595Y0443997D01*
X0427595Y0443498D02*
X0472595Y0443498D01*
X0472595Y0443000D02*
X0427595Y0443000D01*
X0427402Y0442770D02*
X0425837Y0441916D01*
X0424409Y0440847D01*
X0423148Y0439586D01*
X0422079Y0438158D01*
X0421225Y0436593D01*
X0420601Y0434922D01*
X0420222Y0433179D01*
X0420095Y0431400D01*
X0420222Y0429621D01*
X0420601Y0427878D01*
X0421225Y0426207D01*
X0422079Y0424642D01*
X0423148Y0423214D01*
X0424409Y0421953D01*
X0425837Y0420884D01*
X0427402Y0420030D01*
X0429073Y0419406D01*
X0430816Y0419027D01*
X0432595Y0418900D01*
X0457595Y0418900D01*
X0459374Y0419027D01*
X0461117Y0419406D01*
X0462788Y0420030D01*
X0464353Y0420884D01*
X0465781Y0421953D01*
X0467042Y0423214D01*
X0468111Y0424642D01*
X0468966Y0426207D01*
X0469589Y0427878D01*
X0469968Y0429621D01*
X0470095Y0431400D01*
X0469968Y0433179D01*
X0469589Y0434922D01*
X0468966Y0436593D01*
X0468111Y0438158D01*
X0467042Y0439586D01*
X0465781Y0440847D01*
X0464353Y0441916D01*
X0462788Y0442770D01*
X0461117Y0443394D01*
X0459374Y0443773D01*
X0457595Y0443900D01*
X0432595Y0443900D01*
X0430816Y0443773D01*
X0429073Y0443394D01*
X0427402Y0442770D01*
X0427595Y0442501D02*
X0472595Y0442501D01*
X0472595Y0442003D02*
X0427595Y0442003D01*
X0427595Y0441504D02*
X0472595Y0441504D01*
X0472595Y0441006D02*
X0427595Y0441006D01*
X0427595Y0440507D02*
X0472595Y0440507D01*
X0472595Y0440009D02*
X0427595Y0440009D01*
X0427595Y0439510D02*
X0472595Y0439510D01*
X0472595Y0439012D02*
X0427595Y0439012D01*
X0427595Y0438513D02*
X0472595Y0438513D01*
X0472595Y0438015D02*
X0427595Y0438015D01*
X0427595Y0437516D02*
X0472595Y0437516D01*
X0472595Y0437018D02*
X0427595Y0437018D01*
X0427595Y0436519D02*
X0472595Y0436519D01*
X0472595Y0436021D02*
X0427595Y0436021D01*
X0427595Y0435522D02*
X0472595Y0435522D01*
X0472595Y0435024D02*
X0427595Y0435024D01*
X0427595Y0434525D02*
X0472595Y0434525D01*
X0472595Y0434027D02*
X0427595Y0434027D01*
X0427595Y0433528D02*
X0472595Y0433528D01*
X0472595Y0433030D02*
X0427595Y0433030D01*
X0427595Y0432531D02*
X0472595Y0432531D01*
X0472595Y0432032D02*
X0427595Y0432032D01*
X0427595Y0431534D02*
X0472595Y0431534D01*
X0472595Y0431035D02*
X0427960Y0431035D01*
X0427595Y0431400D02*
X0427595Y0461400D01*
X0432595Y0466400D01*
X0432595Y0473900D01*
X0472595Y0473900D01*
X0472595Y0418900D01*
X0432595Y0418900D01*
X0432595Y0426400D01*
X0427595Y0431400D01*
X0428458Y0430537D02*
X0472595Y0430537D01*
X0472595Y0430038D02*
X0428957Y0430038D01*
X0429455Y0429540D02*
X0472595Y0429540D01*
X0472595Y0429041D02*
X0429954Y0429041D01*
X0430452Y0428543D02*
X0472595Y0428543D01*
X0472595Y0428044D02*
X0430951Y0428044D01*
X0431449Y0427546D02*
X0472595Y0427546D01*
X0472595Y0427047D02*
X0431948Y0427047D01*
X0432446Y0426549D02*
X0472595Y0426549D01*
X0472595Y0426050D02*
X0432595Y0426050D01*
X0432595Y0425552D02*
X0472595Y0425552D01*
X0472595Y0425053D02*
X0432595Y0425053D01*
X0432595Y0424555D02*
X0472595Y0424555D01*
X0472595Y0424056D02*
X0432595Y0424056D01*
X0432595Y0423558D02*
X0472595Y0423558D01*
X0472595Y0423059D02*
X0432595Y0423059D01*
X0432595Y0422561D02*
X0472595Y0422561D01*
X0472595Y0422062D02*
X0432595Y0422062D01*
X0432595Y0421564D02*
X0472595Y0421564D01*
X0472595Y0421065D02*
X0432595Y0421065D01*
X0432595Y0420567D02*
X0472595Y0420567D01*
X0472595Y0420068D02*
X0432595Y0420068D01*
X0432595Y0419570D02*
X0472595Y0419570D01*
X0472595Y0419071D02*
X0432595Y0419071D01*
X0430614Y0419071D02*
X0459576Y0419071D01*
X0461555Y0419570D02*
X0428635Y0419570D01*
X0427332Y0420068D02*
X0462859Y0420068D01*
X0463772Y0420567D02*
X0426419Y0420567D01*
X0425595Y0421065D02*
X0464595Y0421065D01*
X0465261Y0421564D02*
X0424930Y0421564D01*
X0424300Y0422062D02*
X0465890Y0422062D01*
X0466389Y0422561D02*
X0423802Y0422561D01*
X0423303Y0423059D02*
X0466887Y0423059D01*
X0467299Y0423558D02*
X0422891Y0423558D01*
X0422518Y0424056D02*
X0467672Y0424056D01*
X0468046Y0424555D02*
X0422145Y0424555D01*
X0421855Y0425053D02*
X0468335Y0425053D01*
X0468608Y0425552D02*
X0421583Y0425552D01*
X0421310Y0426050D02*
X0468880Y0426050D01*
X0469093Y0426549D02*
X0421097Y0426549D01*
X0420911Y0427047D02*
X0469279Y0427047D01*
X0469465Y0427546D02*
X0420725Y0427546D01*
X0420565Y0428044D02*
X0469625Y0428044D01*
X0469733Y0428543D02*
X0420457Y0428543D01*
X0420348Y0429041D02*
X0469842Y0429041D01*
X0469950Y0429540D02*
X0420240Y0429540D01*
X0420193Y0430038D02*
X0469998Y0430038D01*
X0470033Y0430537D02*
X0420157Y0430537D01*
X0420121Y0431035D02*
X0470069Y0431035D01*
X0470086Y0431534D02*
X0420105Y0431534D01*
X0420140Y0432032D02*
X0470050Y0432032D01*
X0470014Y0432531D02*
X0420176Y0432531D01*
X0420212Y0433030D02*
X0469979Y0433030D01*
X0469892Y0433528D02*
X0420298Y0433528D01*
X0420407Y0434027D02*
X0469784Y0434027D01*
X0469675Y0434525D02*
X0420515Y0434525D01*
X0420639Y0435024D02*
X0469551Y0435024D01*
X0469365Y0435522D02*
X0420825Y0435522D01*
X0421011Y0436021D02*
X0469179Y0436021D01*
X0468993Y0436519D02*
X0421197Y0436519D01*
X0421457Y0437018D02*
X0468734Y0437018D01*
X0468461Y0437516D02*
X0421729Y0437516D01*
X0422001Y0438015D02*
X0468189Y0438015D01*
X0467845Y0438513D02*
X0422345Y0438513D01*
X0422718Y0439012D02*
X0467472Y0439012D01*
X0467099Y0439510D02*
X0423092Y0439510D01*
X0423571Y0440009D02*
X0466619Y0440009D01*
X0466121Y0440507D02*
X0424070Y0440507D01*
X0424622Y0441006D02*
X0465569Y0441006D01*
X0464903Y0441504D02*
X0425287Y0441504D01*
X0425997Y0442003D02*
X0464194Y0442003D01*
X0463281Y0442501D02*
X0426910Y0442501D01*
X0428017Y0443000D02*
X0462173Y0443000D01*
X0460636Y0443498D02*
X0429554Y0443498D01*
X0431450Y0448982D02*
X0458740Y0448982D01*
X0472595Y0450976D02*
X0427595Y0450976D01*
X0427595Y0451474D02*
X0472595Y0451474D01*
X0472595Y0451973D02*
X0427595Y0451973D01*
X0427595Y0452471D02*
X0472595Y0452471D01*
X0472595Y0452970D02*
X0427595Y0452970D01*
X0427595Y0453468D02*
X0472595Y0453468D01*
X0472595Y0453967D02*
X0427595Y0453967D01*
X0427595Y0454466D02*
X0472595Y0454466D01*
X0472595Y0454964D02*
X0427595Y0454964D01*
X0427595Y0455463D02*
X0472595Y0455463D01*
X0472595Y0455961D02*
X0427595Y0455961D01*
X0427595Y0456460D02*
X0472595Y0456460D01*
X0472595Y0456958D02*
X0427595Y0456958D01*
X0427595Y0457457D02*
X0472595Y0457457D01*
X0472595Y0457955D02*
X0427595Y0457955D01*
X0427595Y0458454D02*
X0472595Y0458454D01*
X0472595Y0458952D02*
X0427595Y0458952D01*
X0427595Y0459451D02*
X0472595Y0459451D01*
X0472595Y0459949D02*
X0427595Y0459949D01*
X0427595Y0460448D02*
X0472595Y0460448D01*
X0472595Y0460946D02*
X0427595Y0460946D01*
X0427640Y0461445D02*
X0472595Y0461445D01*
X0472595Y0461943D02*
X0428138Y0461943D01*
X0428637Y0462442D02*
X0472595Y0462442D01*
X0472595Y0462940D02*
X0429135Y0462940D01*
X0429634Y0463439D02*
X0472595Y0463439D01*
X0472595Y0463937D02*
X0430132Y0463937D01*
X0430631Y0464436D02*
X0472595Y0464436D01*
X0472595Y0464934D02*
X0431129Y0464934D01*
X0431628Y0465433D02*
X0472595Y0465433D01*
X0472595Y0465931D02*
X0432126Y0465931D01*
X0432595Y0466430D02*
X0472595Y0466430D01*
X0472595Y0466928D02*
X0432595Y0466928D01*
X0432595Y0467427D02*
X0472595Y0467427D01*
X0472595Y0467925D02*
X0432595Y0467925D01*
X0432595Y0468424D02*
X0472595Y0468424D01*
X0472595Y0468922D02*
X0432595Y0468922D01*
X0432595Y0469421D02*
X0472595Y0469421D01*
X0472595Y0469919D02*
X0432595Y0469919D01*
X0432595Y0470418D02*
X0472595Y0470418D01*
X0472595Y0470916D02*
X0432595Y0470916D01*
X0432595Y0471415D02*
X0472595Y0471415D01*
X0472595Y0471913D02*
X0432595Y0471913D01*
X0432595Y0472412D02*
X0472595Y0472412D01*
X0472595Y0472910D02*
X0432595Y0472910D01*
X0432595Y0473409D02*
X0472595Y0473409D01*
X0472595Y0403900D02*
X0445095Y0403900D01*
X0445095Y0378900D01*
X0472595Y0378900D01*
X0472595Y0403900D01*
X0472595Y0403617D02*
X0445095Y0403617D01*
X0445095Y0403119D02*
X0472595Y0403119D01*
X0472595Y0402620D02*
X0445095Y0402620D01*
X0445095Y0402122D02*
X0472595Y0402122D01*
X0472595Y0401623D02*
X0445095Y0401623D01*
X0445095Y0401125D02*
X0472595Y0401125D01*
X0472595Y0400626D02*
X0445095Y0400626D01*
X0445095Y0400128D02*
X0472595Y0400128D01*
X0472595Y0399629D02*
X0445095Y0399629D01*
X0445095Y0399131D02*
X0472595Y0399131D01*
X0472595Y0398632D02*
X0445095Y0398632D01*
X0445095Y0398134D02*
X0472595Y0398134D01*
X0472595Y0397635D02*
X0445095Y0397635D01*
X0445095Y0397137D02*
X0472595Y0397137D01*
X0472595Y0396638D02*
X0445095Y0396638D01*
X0445095Y0396140D02*
X0472595Y0396140D01*
X0472595Y0395641D02*
X0445095Y0395641D01*
X0445095Y0395143D02*
X0472595Y0395143D01*
X0472595Y0394644D02*
X0445095Y0394644D01*
X0445095Y0394146D02*
X0472595Y0394146D01*
X0472595Y0393647D02*
X0445095Y0393647D01*
X0445095Y0393149D02*
X0472595Y0393149D01*
X0472595Y0392650D02*
X0445095Y0392650D01*
X0445095Y0392152D02*
X0472595Y0392152D01*
X0472595Y0391653D02*
X0445095Y0391653D01*
X0445095Y0391155D02*
X0472595Y0391155D01*
X0472595Y0390656D02*
X0445095Y0390656D01*
X0445095Y0390158D02*
X0472595Y0390158D01*
X0472595Y0389659D02*
X0445095Y0389659D01*
X0445095Y0389161D02*
X0472595Y0389161D01*
X0472595Y0388662D02*
X0445095Y0388662D01*
X0445095Y0388163D02*
X0472595Y0388163D01*
X0472595Y0387665D02*
X0445095Y0387665D01*
X0445095Y0387166D02*
X0472595Y0387166D01*
X0472595Y0386668D02*
X0445095Y0386668D01*
X0445095Y0386169D02*
X0472595Y0386169D01*
X0472595Y0385671D02*
X0445095Y0385671D01*
X0445095Y0385172D02*
X0472595Y0385172D01*
X0472595Y0384674D02*
X0445095Y0384674D01*
X0445095Y0384175D02*
X0472595Y0384175D01*
X0472595Y0383677D02*
X0445095Y0383677D01*
X0445095Y0383178D02*
X0472595Y0383178D01*
X0472595Y0382680D02*
X0445095Y0382680D01*
X0445095Y0382181D02*
X0472595Y0382181D01*
X0472595Y0381683D02*
X0445095Y0381683D01*
X0445095Y0381184D02*
X0472595Y0381184D01*
X0472595Y0380686D02*
X0445095Y0380686D01*
X0445095Y0380187D02*
X0472595Y0380187D01*
X0472595Y0379689D02*
X0445095Y0379689D01*
X0445095Y0379190D02*
X0472595Y0379190D01*
X0467042Y0383214D02*
X0468111Y0384642D01*
X0468966Y0386207D01*
X0469589Y0387878D01*
X0469968Y0389621D01*
X0470095Y0391400D01*
X0469968Y0393179D01*
X0469589Y0394922D01*
X0468966Y0396593D01*
X0468111Y0398158D01*
X0467042Y0399586D01*
X0465781Y0400847D01*
X0464353Y0401916D01*
X0462788Y0402770D01*
X0461117Y0403394D01*
X0459374Y0403773D01*
X0457595Y0403900D01*
X0432595Y0403900D01*
X0430816Y0403773D01*
X0429073Y0403394D01*
X0427402Y0402770D01*
X0425837Y0401916D01*
X0424409Y0400847D01*
X0423148Y0399586D01*
X0422079Y0398158D01*
X0421225Y0396593D01*
X0420601Y0394922D01*
X0420222Y0393179D01*
X0420095Y0391400D01*
X0420222Y0389621D01*
X0420601Y0387878D01*
X0421225Y0386207D01*
X0422079Y0384642D01*
X0423148Y0383214D01*
X0424409Y0381953D01*
X0425837Y0380884D01*
X0427402Y0380030D01*
X0429073Y0379406D01*
X0430816Y0379027D01*
X0432595Y0378900D01*
X0457595Y0378900D01*
X0459374Y0379027D01*
X0461117Y0379406D01*
X0462788Y0380030D01*
X0464353Y0380884D01*
X0465781Y0381953D01*
X0467042Y0383214D01*
X0467006Y0383178D02*
X0423184Y0383178D01*
X0422802Y0383677D02*
X0467388Y0383677D01*
X0467762Y0384175D02*
X0422429Y0384175D01*
X0422062Y0384674D02*
X0468128Y0384674D01*
X0468400Y0385172D02*
X0421790Y0385172D01*
X0421518Y0385671D02*
X0468673Y0385671D01*
X0468945Y0386169D02*
X0421245Y0386169D01*
X0421053Y0386668D02*
X0469137Y0386668D01*
X0469323Y0387166D02*
X0420867Y0387166D01*
X0420681Y0387665D02*
X0469509Y0387665D01*
X0469651Y0388163D02*
X0420539Y0388163D01*
X0420431Y0388662D02*
X0469759Y0388662D01*
X0469868Y0389161D02*
X0420323Y0389161D01*
X0420220Y0389659D02*
X0469971Y0389659D01*
X0470006Y0390158D02*
X0420184Y0390158D01*
X0420148Y0390656D02*
X0470042Y0390656D01*
X0470078Y0391155D02*
X0420113Y0391155D01*
X0420113Y0391653D02*
X0470077Y0391653D01*
X0470041Y0392152D02*
X0420149Y0392152D01*
X0420185Y0392650D02*
X0470006Y0392650D01*
X0469970Y0393149D02*
X0420220Y0393149D01*
X0420324Y0393647D02*
X0469866Y0393647D01*
X0469758Y0394146D02*
X0420433Y0394146D01*
X0420541Y0394644D02*
X0469649Y0394644D01*
X0469506Y0395143D02*
X0420684Y0395143D01*
X0420870Y0395641D02*
X0469320Y0395641D01*
X0469135Y0396140D02*
X0421056Y0396140D01*
X0421250Y0396638D02*
X0468941Y0396638D01*
X0468668Y0397137D02*
X0421522Y0397137D01*
X0421794Y0397635D02*
X0468396Y0397635D01*
X0468124Y0398134D02*
X0422066Y0398134D01*
X0422434Y0398632D02*
X0467756Y0398632D01*
X0467383Y0399131D02*
X0422808Y0399131D01*
X0423192Y0399629D02*
X0466999Y0399629D01*
X0466500Y0400128D02*
X0423690Y0400128D01*
X0424189Y0400626D02*
X0466002Y0400626D01*
X0465410Y0401125D02*
X0424781Y0401125D01*
X0425447Y0401623D02*
X0464744Y0401623D01*
X0463976Y0402122D02*
X0426215Y0402122D01*
X0427128Y0402620D02*
X0463063Y0402620D01*
X0461854Y0403119D02*
X0428337Y0403119D01*
X0430102Y0403617D02*
X0460089Y0403617D01*
X0466508Y0382680D02*
X0423683Y0382680D01*
X0424181Y0382181D02*
X0466009Y0382181D01*
X0465420Y0381683D02*
X0424770Y0381683D01*
X0425436Y0381184D02*
X0464754Y0381184D01*
X0463990Y0380686D02*
X0426201Y0380686D01*
X0427114Y0380187D02*
X0463077Y0380187D01*
X0461874Y0379689D02*
X0428316Y0379689D01*
X0430067Y0379190D02*
X0460124Y0379190D01*
X0437418Y0355736D02*
X0438931Y0354223D01*
X0440214Y0352510D01*
X0441240Y0350631D01*
X0441988Y0348626D01*
X0442442Y0346535D01*
X0442595Y0344400D01*
X0440158Y0346014D01*
X0437549Y0347333D01*
X0434804Y0348338D01*
X0431960Y0349016D01*
X0429057Y0349357D01*
X0426133Y0349357D01*
X0423230Y0349016D01*
X0420386Y0348338D01*
X0417641Y0347333D01*
X0415032Y0346014D01*
X0412595Y0344400D01*
X0412748Y0346535D01*
X0413203Y0348626D01*
X0413951Y0350631D01*
X0414976Y0352510D01*
X0416259Y0354223D01*
X0417772Y0355736D01*
X0419486Y0357019D01*
X0421364Y0358044D01*
X0423369Y0358792D01*
X0425460Y0359247D01*
X0427595Y0359400D01*
X0429730Y0359247D01*
X0431821Y0358792D01*
X0433826Y0358044D01*
X0435705Y0357019D01*
X0437418Y0355736D01*
X0437386Y0355760D02*
X0417804Y0355760D01*
X0417298Y0355262D02*
X0437893Y0355262D01*
X0438391Y0354763D02*
X0416799Y0354763D01*
X0416301Y0354265D02*
X0438890Y0354265D01*
X0439273Y0353766D02*
X0415917Y0353766D01*
X0415544Y0353268D02*
X0439646Y0353268D01*
X0440020Y0352769D02*
X0415171Y0352769D01*
X0414846Y0352271D02*
X0440344Y0352271D01*
X0440617Y0351772D02*
X0414574Y0351772D01*
X0414301Y0351274D02*
X0440889Y0351274D01*
X0441161Y0350775D02*
X0414029Y0350775D01*
X0413818Y0350277D02*
X0441372Y0350277D01*
X0441558Y0349778D02*
X0413632Y0349778D01*
X0413447Y0349280D02*
X0425473Y0349280D01*
X0422245Y0348781D02*
X0413261Y0348781D01*
X0413128Y0348283D02*
X0420235Y0348283D01*
X0418873Y0347784D02*
X0413020Y0347784D01*
X0412911Y0347286D02*
X0417548Y0347286D01*
X0416561Y0346787D02*
X0412803Y0346787D01*
X0412730Y0346289D02*
X0415575Y0346289D01*
X0414694Y0345790D02*
X0412695Y0345790D01*
X0412659Y0345292D02*
X0413941Y0345292D01*
X0413189Y0344793D02*
X0412623Y0344793D01*
X0418470Y0356259D02*
X0436720Y0356259D01*
X0436054Y0356757D02*
X0419136Y0356757D01*
X0419920Y0357256D02*
X0435271Y0357256D01*
X0434358Y0357754D02*
X0420833Y0357754D01*
X0421922Y0358253D02*
X0433268Y0358253D01*
X0431931Y0358751D02*
X0423259Y0358751D01*
X0425496Y0359250D02*
X0429695Y0359250D01*
X0429717Y0349280D02*
X0441744Y0349280D01*
X0441930Y0348781D02*
X0432946Y0348781D01*
X0434956Y0348283D02*
X0442062Y0348283D01*
X0442171Y0347784D02*
X0436317Y0347784D01*
X0437643Y0347286D02*
X0442279Y0347286D01*
X0442388Y0346787D02*
X0438629Y0346787D01*
X0439615Y0346289D02*
X0442460Y0346289D01*
X0442496Y0345790D02*
X0440496Y0345790D01*
X0441249Y0345292D02*
X0442531Y0345292D01*
X0442567Y0344793D02*
X0442002Y0344793D01*
X0442595Y0303400D02*
X0440158Y0301786D01*
X0437549Y0300467D01*
X0434804Y0299462D01*
X0431960Y0298784D01*
X0429057Y0298443D01*
X0426133Y0298443D01*
X0423230Y0298784D01*
X0420386Y0299462D01*
X0417641Y0300467D01*
X0415032Y0301786D01*
X0412595Y0303400D01*
X0412748Y0301265D01*
X0413203Y0299174D01*
X0413951Y0297169D01*
X0414976Y0295290D01*
X0416259Y0293577D01*
X0417772Y0292064D01*
X0419486Y0290781D01*
X0421364Y0289756D01*
X0423369Y0289008D01*
X0425460Y0288553D01*
X0427595Y0288400D01*
X0429730Y0288553D01*
X0431821Y0289008D01*
X0433826Y0289756D01*
X0435705Y0290781D01*
X0437418Y0292064D01*
X0438931Y0293577D01*
X0440214Y0295290D01*
X0441240Y0297169D01*
X0441988Y0299174D01*
X0442442Y0301265D01*
X0442595Y0303400D01*
X0442561Y0302918D02*
X0441868Y0302918D01*
X0442525Y0302420D02*
X0441115Y0302420D01*
X0440362Y0301921D02*
X0442489Y0301921D01*
X0442454Y0301423D02*
X0439439Y0301423D01*
X0438453Y0300924D02*
X0442368Y0300924D01*
X0442260Y0300426D02*
X0437436Y0300426D01*
X0436074Y0299927D02*
X0442151Y0299927D01*
X0442043Y0299428D02*
X0434664Y0299428D01*
X0432572Y0298930D02*
X0441897Y0298930D01*
X0441711Y0298431D02*
X0413480Y0298431D01*
X0413666Y0297933D02*
X0441525Y0297933D01*
X0441339Y0297434D02*
X0413852Y0297434D01*
X0414078Y0296936D02*
X0441112Y0296936D01*
X0440840Y0296437D02*
X0414350Y0296437D01*
X0414622Y0295939D02*
X0440568Y0295939D01*
X0440296Y0295440D02*
X0414894Y0295440D01*
X0415237Y0294942D02*
X0439953Y0294942D01*
X0439580Y0294443D02*
X0415610Y0294443D01*
X0415984Y0293945D02*
X0439207Y0293945D01*
X0438801Y0293446D02*
X0416390Y0293446D01*
X0416888Y0292948D02*
X0438302Y0292948D01*
X0437804Y0292449D02*
X0417387Y0292449D01*
X0417923Y0291951D02*
X0437267Y0291951D01*
X0436601Y0291452D02*
X0418589Y0291452D01*
X0419255Y0290954D02*
X0435935Y0290954D01*
X0435108Y0290455D02*
X0420082Y0290455D01*
X0420995Y0289957D02*
X0434195Y0289957D01*
X0433029Y0289458D02*
X0422161Y0289458D01*
X0423589Y0288960D02*
X0431601Y0288960D01*
X0428451Y0288461D02*
X0426739Y0288461D01*
X0422618Y0298930D02*
X0413294Y0298930D01*
X0413147Y0299428D02*
X0420526Y0299428D01*
X0419116Y0299927D02*
X0413039Y0299927D01*
X0412931Y0300426D02*
X0417755Y0300426D01*
X0416737Y0300924D02*
X0412822Y0300924D01*
X0412737Y0301423D02*
X0415751Y0301423D01*
X0414828Y0301921D02*
X0412701Y0301921D01*
X0412665Y0302420D02*
X0414075Y0302420D01*
X0413323Y0302918D02*
X0412630Y0302918D01*
D15*
X0427595Y0317994D03*
X0427595Y0329806D03*
X0311095Y0450494D03*
X0311095Y0462306D03*
D16*
X0337503Y0433149D03*
X0313436Y0406426D03*
X0280581Y0391796D03*
X0244610Y0391796D03*
X0211755Y0406426D03*
X0187687Y0433149D03*
X0176573Y0467362D03*
X0180337Y0503134D03*
X0198313Y0534281D03*
X0227413Y0555422D03*
X0297777Y0555422D03*
X0326877Y0534281D03*
X0344853Y0503134D03*
X0348618Y0467362D03*
D17*
X0273196Y0570865D03*
X0273196Y0571518D03*
X0273200Y0572302D03*
X0273200Y0572952D03*
X0251704Y0572952D03*
X0251704Y0572290D03*
X0251700Y0571530D03*
X0251696Y0570865D03*
D18*
X0252807Y0560763D03*
X0252828Y0560333D03*
X0252789Y0559743D03*
X0252828Y0559231D03*
X0271844Y0559743D03*
X0271883Y0559231D03*
X0271883Y0560333D03*
X0271862Y0560763D03*
D19*
X0257595Y0541400D03*
X0257595Y0531400D03*
X0247595Y0531400D03*
X0247595Y0541400D03*
X0237595Y0541400D03*
X0237595Y0531400D03*
X0315095Y0456400D03*
X0305095Y0433431D03*
D20*
X0307595Y0341400D03*
X0282595Y0341400D03*
X0282595Y0306400D03*
X0307595Y0306400D03*
X0347595Y0306400D03*
X0372595Y0306400D03*
X0372595Y0341400D03*
X0347595Y0341400D03*
X0242595Y0341400D03*
X0217595Y0341400D03*
X0217595Y0306400D03*
X0242595Y0306400D03*
X0177595Y0306400D03*
X0152595Y0306400D03*
X0152595Y0341400D03*
X0177595Y0341400D03*
X0112359Y0456951D03*
X0082595Y0505419D03*
X0082595Y0557381D03*
X0127595Y0531400D03*
X0082831Y0405809D03*
D21*
X0106453Y0416046D03*
X0082241Y0440258D03*
D22*
X0097595Y0342400D03*
X0097595Y0310400D03*
X0427595Y0302400D03*
X0427595Y0345400D03*
D23*
X0169773Y0572817D02*
X0169576Y0573014D01*
X0169458Y0573211D01*
X0169261Y0573408D01*
X0169064Y0573644D01*
X0168592Y0574117D01*
X0168119Y0574668D01*
X0167726Y0575061D01*
X0167332Y0575298D01*
X0167096Y0575337D01*
X0166348Y0575337D01*
X0165875Y0575416D01*
X0165442Y0575534D01*
X0165048Y0575691D01*
X0164655Y0575928D01*
X0164340Y0576203D01*
X0164025Y0576518D01*
X0163749Y0576872D01*
X0163355Y0577581D01*
X0163159Y0578329D01*
X0163119Y0578998D01*
X0163237Y0579628D01*
X0163434Y0580219D01*
X0163710Y0580652D01*
X0164025Y0581006D01*
X0164340Y0581203D01*
X0164340Y0580849D01*
X0164379Y0580731D01*
X0164418Y0580652D01*
X0164537Y0580534D01*
X0164655Y0580494D01*
X0164773Y0580494D01*
X0165088Y0580573D01*
X0165245Y0580652D01*
X0165363Y0580731D01*
X0165521Y0580849D01*
X0165757Y0581085D01*
X0165915Y0581321D01*
X0165954Y0581479D01*
X0165954Y0581715D01*
X0165915Y0581833D01*
X0165875Y0581912D01*
X0165796Y0582030D01*
X0165639Y0582148D01*
X0165481Y0582227D01*
X0165285Y0582266D01*
X0165127Y0582306D01*
X0164891Y0582306D01*
X0164812Y0582266D01*
X0164773Y0582266D01*
X0164812Y0582306D01*
X0164970Y0582424D01*
X0165521Y0582699D01*
X0165875Y0582778D01*
X0166269Y0582778D01*
X0166702Y0582699D01*
X0167135Y0582463D01*
X0167489Y0582187D01*
X0167686Y0581872D01*
X0167804Y0581518D01*
X0167804Y0581203D01*
X0167726Y0580849D01*
X0167529Y0580494D01*
X0167253Y0580180D01*
X0166938Y0579825D01*
X0166663Y0579550D01*
X0166544Y0579235D01*
X0166544Y0578959D01*
X0166623Y0578723D01*
X0166781Y0578526D01*
X0167017Y0578369D01*
X0167332Y0578290D01*
X0167647Y0578290D01*
X0167844Y0578329D01*
X0168041Y0578408D01*
X0168277Y0578644D01*
X0168355Y0578762D01*
X0168395Y0578880D01*
X0168395Y0579038D01*
X0168355Y0579156D01*
X0168119Y0579392D01*
X0168001Y0579431D01*
X0167844Y0579510D01*
X0167804Y0579550D01*
X0167962Y0579628D01*
X0168434Y0579628D01*
X0168670Y0579589D01*
X0168867Y0579550D01*
X0169064Y0579471D01*
X0169222Y0579353D01*
X0169418Y0579195D01*
X0169655Y0578802D01*
X0169733Y0578526D01*
X0169773Y0578211D01*
X0169773Y0572817D01*
X0169771Y0572819D02*
X0169773Y0572819D01*
X0169773Y0573118D02*
X0169514Y0573118D01*
X0169773Y0573416D02*
X0169254Y0573416D01*
X0168994Y0573715D02*
X0169773Y0573715D01*
X0169773Y0574013D02*
X0168695Y0574013D01*
X0168424Y0574312D02*
X0169773Y0574312D01*
X0169773Y0574610D02*
X0168169Y0574610D01*
X0167878Y0574909D02*
X0169773Y0574909D01*
X0169773Y0575207D02*
X0167483Y0575207D01*
X0165545Y0575506D02*
X0169773Y0575506D01*
X0169773Y0575804D02*
X0164860Y0575804D01*
X0164454Y0576103D02*
X0169773Y0576103D01*
X0169773Y0576401D02*
X0164142Y0576401D01*
X0163883Y0576700D02*
X0169773Y0576700D01*
X0169773Y0576998D02*
X0163679Y0576998D01*
X0163513Y0577297D02*
X0169773Y0577297D01*
X0169773Y0577595D02*
X0163352Y0577595D01*
X0163273Y0577894D02*
X0169773Y0577894D01*
X0169773Y0578192D02*
X0163195Y0578192D01*
X0163149Y0578491D02*
X0166833Y0578491D01*
X0166601Y0578789D02*
X0163132Y0578789D01*
X0163136Y0579088D02*
X0166544Y0579088D01*
X0166601Y0579386D02*
X0163192Y0579386D01*
X0163256Y0579685D02*
X0166798Y0579685D01*
X0167079Y0579983D02*
X0163356Y0579983D01*
X0163474Y0580282D02*
X0167343Y0580282D01*
X0167576Y0580580D02*
X0165102Y0580580D01*
X0165551Y0580879D02*
X0167732Y0580879D01*
X0167799Y0581177D02*
X0165819Y0581177D01*
X0165953Y0581476D02*
X0167804Y0581476D01*
X0167719Y0581774D02*
X0165934Y0581774D01*
X0165739Y0582073D02*
X0167561Y0582073D01*
X0167253Y0582372D02*
X0164900Y0582372D01*
X0165462Y0582670D02*
X0166755Y0582670D01*
X0164340Y0581177D02*
X0164299Y0581177D01*
X0164340Y0580879D02*
X0163912Y0580879D01*
X0163664Y0580580D02*
X0164490Y0580580D01*
X0168125Y0579386D02*
X0169177Y0579386D01*
X0169483Y0579088D02*
X0168378Y0579088D01*
X0168365Y0578789D02*
X0169658Y0578789D01*
X0169738Y0578491D02*
X0168124Y0578491D01*
M02*
