%
M48
M72
T01C0.0130
T02C0.0150
T03C0.0200
T04C0.0260
T05C0.0276
T06C0.0315
T07C0.0335
T08C0.0866
T09C0.1100
T10C0.1575
%
T01
X9760Y29750
X9760Y35530
X7930Y39970
X11580Y46310
X7900Y49930
X7910Y56350
X13470Y53140
X16980Y50660
X19000Y54160
X22320Y56570
X23760Y54140
X23760Y53140
X24760Y53140
X24760Y54140
X25760Y54140
X25760Y53140
X24960Y51640
X25460Y51140
X25053Y50553
X24322Y49890
X24010Y50515
X23560Y50346
X22560Y51590
X22860Y51890
X23260Y52140
X21510Y48953
X21885Y48546
X21510Y46031
X22119Y45953
X22697Y45953
X23135Y45953
X23666Y45953
X23119Y45062
X22400Y45046
X22610Y44190
X23010Y44156
X23400Y44162
X23916Y44687
X24760Y44340
X25878Y44278
X26666Y43703
X27385Y44515
X27603Y44874
X28244Y45406
X28760Y45234
X29322Y45203
X29291Y45734
X29010Y46296
X29103Y46640
X28603Y45921
X27635Y47046
X26978Y46546
X25260Y47703
X26228Y48656
X26491Y49512
X26994Y49828
X27822Y51046
X28478Y51984
X28541Y53078
X28416Y53484
X28760Y53765
X28985Y53365
X29822Y53359
X30260Y52190
X30610Y51890
X30910Y51490
X30666Y51078
X30485Y50621
X30078Y50878
X30166Y51609
X31041Y50684
X31010Y50221
X31947Y49453
X30978Y48796
X30447Y48953
X30710Y48290
X29635Y48328
X29360Y49240
X28928Y49296
X29810Y49290
X29853Y49828
X32041Y47171
X31510Y45640
X31103Y44515
X29997Y44656
X30510Y43343
X28210Y43390
X32000Y39740
X34720Y42760
X35970Y46620
X35540Y50670
X33520Y54170
X30240Y56560
X27810Y55340
X27353Y54453
X27947Y53484
X27603Y53171
X20978Y45390
X21410Y44103
X21960Y44140
X20885Y43796
X20520Y39740
X17810Y42760
X16550Y46610
X19478Y47796
X20041Y49296
X24220Y38090
X24260Y34850
X21760Y34840
X17760Y34850
X15260Y34850
X15260Y29930
X17760Y29930
X21760Y29940
X24260Y29930
X28260Y29930
X30760Y29930
X30760Y34850
X28260Y34850
X28290Y38100
X34760Y34850
X37260Y34850
X37260Y29930
X38775Y28640
X40244Y28640
X34760Y29930
T02
X9600Y29563
X9920Y29563
X9920Y35717
X9600Y35717
X7868Y39554
X7600Y39710
X11914Y46572
X11643Y46729
X7931Y49639
X7642Y49806
X7642Y56474
X7931Y56641
X13706Y53307
X13706Y52973
X16761Y50890
X16671Y50593
X18708Y54234
X18916Y54464
X22041Y56735
X22338Y56867
X22500Y56935
X22657Y56994
X22816Y57054
X22977Y57108
X23137Y57164
X23297Y57215
X23457Y57269
X26760Y53234
X26978Y52671
X29064Y57271
X29229Y57220
X29390Y57167
X29556Y57108
X29723Y57048
X29884Y56988
X30039Y56931
X30195Y56858
X30478Y56736
X33606Y54461
X33816Y54233
X35751Y50887
X35840Y50595
X36251Y46747
X36229Y46438
X35034Y42760
X34875Y42487
X32284Y39612
X32031Y39434
X28498Y37859
X28197Y37799
X28100Y35031
X28420Y35031
X30600Y35031
X30920Y35031
X34600Y35031
X34920Y35031
X37100Y35031
X37420Y35031
X37420Y29749
X37100Y29749
X34920Y29749
X34600Y29749
X30920Y29749
X30600Y29749
X28420Y29749
X28100Y29749
X24420Y29749
X24100Y29749
X21920Y29749
X21600Y29749
X17920Y29749
X17600Y29749
X15420Y29749
X15100Y29749
X15100Y35031
X15420Y35031
X17600Y35031
X17920Y35031
X20486Y39436
X20238Y39617
X17648Y42490
X17486Y42754
X16296Y46435
X16264Y46745
X13350Y41257
X13276Y41121
X13195Y40989
X21600Y35031
X21920Y35031
X24100Y35031
X24420Y35031
X24325Y37791
X24024Y37854
X31872Y50018
T03
X32010Y35390
X32510Y35390
X33010Y35390
X33510Y35390
X34010Y35390
X31510Y35390
X27510Y35390
X27010Y35390
X26510Y35390
X26010Y35390
X25510Y35390
X25010Y35390
X21010Y35390
X20510Y35390
X20010Y35390
X19510Y35390
X19010Y35390
X18510Y35390
X14510Y35390
X14010Y35390
X13510Y35390
X13510Y35890
X13510Y36390
X13510Y36890
X13510Y37390
X13510Y38390
X13510Y38890
X13510Y39890
X13510Y40390
X13010Y35390
X12510Y35390
X12010Y35390
X11510Y35390
X8010Y35390
X7510Y35390
X7010Y35390
X6510Y35390
X6010Y35390
X5510Y35390
X5010Y35390
X13510Y45890
X13510Y46390
X13510Y46890
X13510Y47390
X13510Y47890
X13510Y48390
X13510Y48890
X13510Y49390
X13510Y49890
X13510Y50890
X13510Y55890
X13510Y56390
X13510Y56890
X13510Y57390
X13510Y57890
X13510Y58390
X38010Y35390
X38510Y35390
X39010Y35390
X39510Y35390
X40010Y35390
X40510Y35390
X45010Y35390
X45510Y35390
X46010Y35390
X46510Y35390
T04
X27188Y55923
X27184Y55974
X27188Y56033
X27186Y56076
X25283Y56033
X25281Y56076
X25279Y55974
X25283Y55923
T05
X25170Y57086
X25170Y57153
X25170Y57229
X25170Y57295
X27320Y57295
X27320Y57230
X27320Y57152
X27320Y57086
T06
X10645Y41605
X8224Y44026
T07
X31110Y45049
X31110Y46231
X42760Y32981
X42760Y31799
T08
X37260Y30640
X34760Y30640
X34760Y34140
X37260Y34140
X30760Y34140
X28260Y34140
X28260Y30640
X30760Y30640
X24260Y30640
X21760Y30640
X21760Y34140
X24260Y34140
X17760Y34140
X15260Y34140
X15260Y30640
X17760Y30640
X8283Y40581
X11236Y45695
X8260Y50542
X8260Y55738
X12760Y53140
T09
X17657Y46736
X18034Y50313
X19831Y53428
X22741Y55542
X29778Y55542
X32688Y53428
X34485Y50313
X34862Y46736
X33750Y43315
X31344Y40643
X28058Y39180
X24461Y39180
X21175Y40643
X18769Y43315
X9760Y34240
X9760Y31040
X42760Y30240
X42760Y34540
T10
X43260Y39140
X45760Y39140
X45760Y43140
X43260Y43140
X43260Y46140
X45760Y46140
X45760Y50140
X43260Y50140
X43260Y54140
X45760Y54140
X45760Y58140
X43260Y58140
X38760Y58140
X36260Y58140
M30
